<svg xmlns="http://www.w3.org/2000/svg" xmlns:xlink="http://www.w3.org/1999/xlink" id="body_10" preserveAspectRatio="xMinYMin meet" viewBox="0 0 793 1121"><defs><clipPath id="1"><path d="M0 841L0 -0.9000244L0 -0.9000244L595.3 -0.9000244L595.3 -0.9000244L595.3 841L595.3 841L0 841z" /></clipPath><clipPath id="2"><path d="M0 -0.9000244L595.3 -0.9000244L595.3 -0.9000244L595.3 841L595.3 841L0 841z" /></clipPath><clipPath id="3"><path d="M0 -0.9000244L595.3 -0.9000244L595.3 -0.9000244L595.3 841L595.3 841L0 841z" /></clipPath><clipPath id="4"><path d="M295.2 763.05L300.1 763.05L300.1 763.05L300.1 783.9L300.1 783.9L295.2 783.9z" /></clipPath><clipPath id="5"><path d="M0 -0.9000244L595.3 -0.9000244L595.3 -0.9000244L595.3 841L595.3 841L0 841z" /></clipPath><clipPath id="6"><path d="M-1638.4 73.39996L2179.65 73.39996L2179.65 73.39996L2179.65 101.4L2179.65 101.4L-1638.4 101.4z" /></clipPath><clipPath id="7"><path d="M0 -0.9000244L595.3 -0.9000244L595.3 -0.9000244L595.3 841L595.3 841L0 841z" /></clipPath><clipPath id="8"><path d="M-1638.4 101.35L2179.65 101.35L2179.65 101.35L2179.65 129.35L2179.65 129.35L-1638.4 129.35z" /></clipPath><clipPath id="9"><path d="M0 -0.9000244L595.3 -0.9000244L595.3 -0.9000244L595.3 841L595.3 841L0 841z" /></clipPath><clipPath id="10"><path d="M-1638.4 129.3L2179.65 129.3L2179.65 129.3L2179.65 157.3L2179.65 157.3L-1638.4 157.3z" /></clipPath><clipPath id="11"><path d="M0 -0.9000244L595.3 -0.9000244L595.3 -0.9000244L595.3 841L595.3 841L0 841z" /></clipPath><clipPath id="12"><path d="M0 -0.9000244L595.3 -0.9000244L595.3 -0.9000244L595.3 841L595.3 841L0 841z" /></clipPath><clipPath id="13"><path d="M-1638.4 437.7L2179.65 437.7L2179.65 437.7L2179.65 465.7L2179.65 465.7L-1638.4 465.7z" /></clipPath><clipPath id="14"><path d="M0 -0.9000244L595.3 -0.9000244L595.3 -0.9000244L595.3 841L595.3 841L0 841z" /></clipPath><clipPath id="15"><path d="M-1638.4 465.65L2179.65 465.65L2179.65 465.65L2179.65 493.65L2179.65 493.65L-1638.4 493.65z" /></clipPath><clipPath id="16"><path d="M0 -0.9000244L595.3 -0.9000244L595.3 -0.9000244L595.3 841L595.3 841L0 841z" /></clipPath><clipPath id="17"><path d="M-1638.4 493.7L2179.65 493.7L2179.65 493.7L2179.65 521.7L2179.65 521.7L-1638.4 521.7z" /></clipPath><clipPath id="18"><path d="M0 -0.9000244L595.3 -0.9000244L595.3 -0.9000244L595.3 841L595.3 841L0 841z" /></clipPath><clipPath id="19"><path d="M-1638.4 521.7L2179.65 521.7L2179.65 521.7L2179.65 549.7L2179.65 549.7L-1638.4 549.7z" /></clipPath><clipPath id="20"><path d="M0 -0.9000244L595.3 -0.9000244L595.3 -0.9000244L595.3 841L595.3 841L0 841z" /></clipPath><clipPath id="21"><path d="M-1638.4 549.65L2179.65 549.65L2179.65 549.65L2179.65 577.65L2179.65 577.65L-1638.4 577.65z" /></clipPath><clipPath id="22"><path d="M0 -0.9000244L595.3 -0.9000244L595.3 -0.9000244L595.3 841L595.3 841L0 841z" /></clipPath><clipPath id="23"><path d="M-1638.4 577.7L2179.65 577.7L2179.65 577.7L2179.65 605.7L2179.65 605.7L-1638.4 605.7z" /></clipPath><clipPath id="24"><path d="M0 -0.9000244L595.3 -0.9000244L595.3 -0.9000244L595.3 841L595.3 841L0 841z" /></clipPath><clipPath id="25"><path d="M-1638.4 605.7L2179.65 605.7L2179.65 605.7L2179.65 633.7L2179.65 633.7L-1638.4 633.7z" /></clipPath><clipPath id="26"><path d="M0 -0.9000244L595.3 -0.9000244L595.3 -0.9000244L595.3 841L595.3 841L0 841z" /></clipPath><clipPath id="27"><path d="M-1638.4 633.65L2179.65 633.65L2179.65 633.65L2179.65 661.65L2179.65 661.65L-1638.4 661.65z" /></clipPath></defs><g transform="matrix(1.333333 0 0 1.333333 0 0)"><g><g clip-path="url(#1)"><g clip-path="url(#2)"><g transform="matrix(0.3271429 0 0 0.3275676 55.56 34.5)"><g transform="matrix(1 0 0 1 0 0)"><image x="0" y="0" xlink:href="img_03.png" width="168" height="74" /></g></g><path transform="matrix(1 0 0 -1 0 841)" d="M54 778.4L523.3 778.4L523.3 778.4L523.3 777.6801L523.3 777.6801L54 777.6801z" stroke="none" fill="#000000" fill-rule="evenodd" /></g><g clip-path="url(#3)"><g clip-path="url(#4)"></g></g><g clip-path="url(#5)"><g clip-path="url(#6)"></g></g><g clip-path="url(#7)"><g clip-path="url(#8)"></g></g><g clip-path="url(#9)"><g clip-path="url(#10)"></g></g><g clip-path="url(#11)"><g transform="matrix(0.3278003 0 0 0.3271264 78 157.38)"><g transform="matrix(1 0 0 1 0 0)"><image x="0" y="0" xlink:href="img_18.png" width="641" height="522" /></g></g><g transform="matrix(0.3273803 0 0 0.3275862 301.56 157.38)"><g transform="matrix(1 0 0 1 0 0)"><image x="0" y="0" xlink:href="img_19.png" width="710" height="522" /></g></g></g><g clip-path="url(#12)"><g clip-path="url(#13)"></g></g><g clip-path="url(#14)"><g clip-path="url(#15)"></g></g><g clip-path="url(#16)"><g clip-path="url(#17)"></g></g><g clip-path="url(#18)"><g clip-path="url(#19)"></g></g><g clip-path="url(#20)"><g clip-path="url(#21)"></g></g><g clip-path="url(#22)"><g clip-path="url(#23)"></g></g><g clip-path="url(#24)"><g clip-path="url(#25)"></g></g><g clip-path="url(#26)"><g clip-path="url(#27)"></g></g></g></g></g></svg>