<svg xmlns="http://www.w3.org/2000/svg" xmlns:xlink="http://www.w3.org/1999/xlink" id="body_5" preserveAspectRatio="xMinYMin meet" viewBox="0 0 793 1121"><defs><clipPath id="1"><path d="M0 841L0 -0.9000244L0 -0.9000244L595.3 -0.9000244L595.3 -0.9000244L595.3 841L595.3 841L0 841z" /></clipPath><clipPath id="2"><path d="M0 -0.9000244L595.3 -0.9000244L595.3 -0.9000244L595.3 841L595.3 841L0 841z" /></clipPath><clipPath id="3"><path d="M0 -0.9000244L595.3 -0.9000244L595.3 -0.9000244L595.3 841L595.3 841L0 841z" /></clipPath><clipPath id="4"><path d="M295.2 763.05L300.1 763.05L300.1 763.05L300.1 783.9L300.1 783.9L295.2 783.9z" /></clipPath><clipPath id="5"><path d="M0 -0.9000244L595.3 -0.9000244L595.3 -0.9000244L595.3 841L595.3 841L0 841z" /></clipPath><clipPath id="6"><path d="M-1638.4 73.39996L2179.65 73.39996L2179.65 73.39996L2179.65 101.4L2179.65 101.4L-1638.4 101.4z" /></clipPath><clipPath id="7"><path d="M0 -0.9000244L595.3 -0.9000244L595.3 -0.9000244L595.3 841L595.3 841L0 841z" /></clipPath><clipPath id="8"><path d="M-1638.4 101.35L2179.65 101.35L2179.65 101.35L2179.65 129.35L2179.65 129.35L-1638.4 129.35z" /></clipPath><clipPath id="9"><path d="M0 -0.9000244L595.3 -0.9000244L595.3 -0.9000244L595.3 841L595.3 841L0 841z" /></clipPath><clipPath id="10"><path d="M-1638.4 129.3L2179.65 129.3L2179.65 129.3L2179.65 157.3L2179.65 157.3L-1638.4 157.3z" /></clipPath><clipPath id="11"><path d="M0 -0.9000244L595.3 -0.9000244L595.3 -0.9000244L595.3 841L595.3 841L0 841z" /></clipPath><clipPath id="12"><path d="M-1638.4 157.4L2179.65 157.4L2179.65 157.4L2179.65 185.4L2179.65 185.4L-1638.4 185.4z" /></clipPath><clipPath id="13"><path d="M0 -0.9000244L595.3 -0.9000244L595.3 -0.9000244L595.3 841L595.3 841L0 841z" /></clipPath><clipPath id="14"><path d="M-1638.4 185.35L2179.65 185.35L2179.65 185.35L2179.65 213.35L2179.65 213.35L-1638.4 213.35z" /></clipPath><clipPath id="15"><path d="M0 -0.9000244L595.3 -0.9000244L595.3 -0.9000244L595.3 841L595.3 841L0 841z" /></clipPath><clipPath id="16"><path d="M0 -0.9000244L595.3 -0.9000244L595.3 -0.9000244L595.3 841L595.3 841L0 841z" /></clipPath><clipPath id="17"><path d="M-1638.4 237.55L2179.65 237.55L2179.65 237.55L2179.65 265.55L2179.65 265.55L-1638.4 265.55z" /></clipPath><clipPath id="18"><path d="M0 -0.9000244L595.3 -0.9000244L595.3 -0.9000244L595.3 841L595.3 841L0 841z" /></clipPath><clipPath id="19"><path d="M-1638.4 265.5L2179.65 265.5L2179.65 265.5L2179.65 293.5L2179.65 293.5L-1638.4 293.5z" /></clipPath><clipPath id="20"><path d="M0 -0.9000244L595.3 -0.9000244L595.3 -0.9000244L595.3 841L595.3 841L0 841z" /></clipPath><clipPath id="21"><path d="M-1638.4 293.45L2179.65 293.45L2179.65 293.45L2179.65 321.45L2179.65 321.45L-1638.4 321.45z" /></clipPath><clipPath id="22"><path d="M0 -0.9000244L595.3 -0.9000244L595.3 -0.9000244L595.3 841L595.3 841L0 841z" /></clipPath><clipPath id="23"><path d="M-1638.4 321.55L2179.65 321.55L2179.65 321.55L2179.65 349.55L2179.65 349.55L-1638.4 349.55z" /></clipPath><clipPath id="24"><path d="M0 -0.9000244L595.3 -0.9000244L595.3 -0.9000244L595.3 841L595.3 841L0 841z" /></clipPath><clipPath id="25"><path d="M-1638.4 349.5L2179.65 349.5L2179.65 349.5L2179.65 377.5L2179.65 377.5L-1638.4 377.5z" /></clipPath><clipPath id="26"><path d="M0 -0.9000244L595.3 -0.9000244L595.3 -0.9000244L595.3 841L595.3 841L0 841z" /></clipPath><clipPath id="27"><path d="M-1638.4 377.45L2179.65 377.45L2179.65 377.45L2179.65 405.45L2179.65 405.45L-1638.4 405.45z" /></clipPath><clipPath id="28"><path d="M0 -0.9000244L595.3 -0.9000244L595.3 -0.9000244L595.3 841L595.3 841L0 841z" /></clipPath><clipPath id="29"><path d="M0 -0.9000244L595.3 -0.9000244L595.3 -0.9000244L595.3 841L595.3 841L0 841z" /></clipPath><clipPath id="30"><path d="M-1638.4 652.5L2179.65 652.5L2179.65 652.5L2179.65 680.5L2179.65 680.5L-1638.4 680.5z" /></clipPath><clipPath id="31"><path d="M0 -0.9000244L595.3 -0.9000244L595.3 -0.9000244L595.3 841L595.3 841L0 841z" /></clipPath><clipPath id="32"><path d="M-1638.4 680.45L2179.65 680.45L2179.65 680.45L2179.65 708.45L2179.65 708.45L-1638.4 708.45z" /></clipPath><clipPath id="33"><path d="M0 -0.9000244L595.3 -0.9000244L595.3 -0.9000244L595.3 841L595.3 841L0 841z" /></clipPath><clipPath id="34"><path d="M-1638.4 708.4L2179.65 708.4L2179.65 708.4L2179.65 736.4L2179.65 736.4L-1638.4 736.4z" /></clipPath><clipPath id="35"><path d="M0 -0.9000244L595.3 -0.9000244L595.3 -0.9000244L595.3 841L595.3 841L0 841z" /></clipPath></defs><g transform="matrix(1.333333 0 0 1.333333 0 0)"><g><g clip-path="url(#1)"><g clip-path="url(#2)"><g transform="matrix(0.3271429 0 0 0.3275676 55.56 34.5)"><g transform="matrix(1 0 0 1 0 0)"><image x="0" y="0" xlink:href="img_03.png" width="168" height="74" /></g></g><path transform="matrix(1 0 0 -1 0 841)" d="M54 778.4L523.3 778.4L523.3 778.4L523.3 777.6801L523.3 777.6801L54 777.6801z" stroke="none" fill="#000000" fill-rule="evenodd" /></g><g clip-path="url(#3)"><g clip-path="url(#4)"></g></g><g clip-path="url(#5)"><g clip-path="url(#6)"></g></g><g clip-path="url(#7)"><g clip-path="url(#8)"></g></g><g clip-path="url(#9)"><g clip-path="url(#10)"></g></g><g clip-path="url(#11)"><g clip-path="url(#12)"></g></g><g clip-path="url(#13)"><g clip-path="url(#14)"></g></g><g clip-path="url(#15)"></g><g clip-path="url(#16)"><g clip-path="url(#17)"></g></g><g clip-path="url(#18)"><g clip-path="url(#19)"></g></g><g clip-path="url(#20)"><g clip-path="url(#21)"></g></g><g clip-path="url(#22)"><g clip-path="url(#23)"></g></g><g clip-path="url(#24)"><g clip-path="url(#25)"></g></g><g clip-path="url(#26)"><g clip-path="url(#27)"></g></g><g clip-path="url(#28)"><g transform="matrix(0.3339671 0 0 0.3339056 104.4 405.54)"><g transform="matrix(1 0 0 1 0 0)"><image x="0" y="0" xlink:href="img_07.png" width="1157" height="699" /></g></g></g><g clip-path="url(#29)"><g clip-path="url(#30)"></g></g><g clip-path="url(#31)"><g clip-path="url(#32)"></g></g><g clip-path="url(#33)"><g clip-path="url(#34)"></g></g><g clip-path="url(#35)"><path transform="matrix(1 0 0 -1 0 841)" d="M442.68 619.54L441 614.86L441 614.86L435.84 614.86L435.84 614.86L440.04 612.1L440.04 612.1L438.48 607.54L438.48 607.54L442.68 610.3L442.68 610.3L446.76 607.54L446.76 607.54L445.2 612.1L445.2 612.1L449.4 614.86L449.4 614.86L444.24 614.86L444.24 614.86L442.68 619.54" stroke="none" fill="#FF0000" fill-rule="evenodd" /><path transform="matrix(1 0 0 -1 0 841)" d="M442.625 620.644L444.572 615.035L444.572 615.035L444.217 615.287L444.217 615.287L450.679 615.287L450.679 615.287L445.413 611.742L445.413 611.742L445.557 612.177L445.557 612.177L447.52 606.565L447.52 606.565L442.417 609.9771L442.417 609.9771L442.833 609.9771L442.833 609.9771L437.73 606.565L437.73 606.565L439.693 612.177L439.693 612.177L439.837 611.742L439.837 611.742L434.571 615.287L434.571 615.287L441.033 615.287L441.033 615.287L440.678 615.035L440.678 615.035L442.625 620.644M441.299 614.537L435.8 614.537L435.8 614.537L436.009 615.223L436.009 615.223L440.496 612.202L440.496 612.202L438.808 607.376L438.808 607.376L438.246 607.812L438.246 607.812L442.625 610.739L442.625 610.739L447.004 607.812L447.004 607.812L446.442 607.376L446.442 607.376L444.754 612.202L444.754 612.202L449.241 615.223L449.241 615.223L449.45 614.537L449.45 614.537L443.951 614.537L443.951 614.537L442.271 619.377L442.271 619.377L442.979 619.377L442.979 619.377L441.299 614.537z" stroke="none" fill="#FF0000" fill-rule="winding" /><path transform="matrix(1 0 0 -1 0 841)" d="M460.44 619.54L458.88 614.98L458.88 614.98L453.6 614.98L453.6 614.98L457.8 612.1L457.8 612.1L456.24 607.54L456.24 607.54L460.44 610.42L460.44 610.42L464.64 607.54L464.64 607.54L462.96 612.1L462.96 612.1L467.28 614.98L467.28 614.98L462 614.98L462 614.98L460.44 619.54" stroke="none" fill="#FF0000" fill-rule="evenodd" /><path transform="matrix(1 0 0 -1 0 841)" d="M460.425 620.744L462.372 615.135L462.372 615.135L462.017 615.387L462.017 615.387L468.479 615.387L468.479 615.387L463.213 611.842L463.213 611.842L463.357 612.277L463.357 612.277L465.32 606.665L465.32 606.665L460.217 610.077L460.217 610.077L460.633 610.077L460.633 610.077L455.53 606.665L455.53 606.665L457.493 612.277L457.493 612.277L457.637 611.842L457.637 611.842L452.371 615.387L452.371 615.387L458.832 615.387L458.832 615.387L458.478 615.135L458.478 615.135L460.425 620.744M459.099 614.637L453.6 614.637L453.6 614.637L453.809 615.323L453.809 615.323L458.296 612.302L458.296 612.302L456.608 607.476L456.608 607.476L456.046 607.912L456.046 607.912L460.425 610.839L460.425 610.839L464.804 607.912L464.804 607.912L464.242 607.476L464.242 607.476L462.554 612.302L462.554 612.302L467.041 615.323L467.041 615.323L467.25 614.637L467.25 614.637L461.751 614.637L461.751 614.637L460.071 619.4771L460.071 619.4771L460.779 619.4771L460.779 619.4771L459.099 614.637z" stroke="none" fill="#FF0000" fill-rule="winding" /><path transform="matrix(1 0 0 -1 0 841)" d="M479.28 619.9L477.72 615.34L477.72 615.34L472.56 615.34L472.56 615.34L476.76 612.46L476.76 612.46L475.2 607.9L475.2 607.9L479.28 610.66L479.28 610.66L483.48 607.9L483.48 607.9L481.92 612.46L481.92 612.46L486.12 615.34L486.12 615.34L480.96 615.34L480.96 615.34L479.28 619.9" stroke="none" fill="#FF0000" fill-rule="evenodd" /><path transform="matrix(1 0 0 -1 0 841)" d="M479.325 621.044L481.272 615.4351L481.272 615.4351L480.918 615.687L480.918 615.687L487.379 615.687L487.379 615.687L482.113 612.142L482.113 612.142L482.257 612.577L482.257 612.577L484.22 606.965L484.22 606.965L479.117 610.377L479.117 610.377L479.533 610.377L479.533 610.377L474.43 606.965L474.43 606.965L476.393 612.577L476.393 612.577L476.537 612.142L476.537 612.142L471.271 615.687L471.271 615.687L477.733 615.687L477.733 615.687L477.378 615.4351L477.378 615.4351L479.325 621.044M477.999 614.937L472.5 614.937L472.5 614.937L472.709 615.623L472.709 615.623L477.196 612.6021L477.196 612.6021L475.508 607.776L475.508 607.776L474.946 608.212L474.946 608.212L479.325 611.139L479.325 611.139L483.704 608.212L483.704 608.212L483.142 607.776L483.142 607.776L481.454 612.6021L481.454 612.6021L485.941 615.623L485.941 615.623L486.15 614.937L486.15 614.937L480.651 614.937L480.651 614.937L478.971 619.777L478.971 619.777L479.679 619.777L479.679 619.777L477.999 614.937z" stroke="none" fill="#FF0000" fill-rule="winding" /><path transform="matrix(1 0 0 -1 0 841)" d="M497.64 620.02L496.08 615.46L496.08 615.46L490.8 615.46L490.8 615.46L495.12 612.58L495.12 612.58L493.56 608.02L493.56 608.02L497.64 610.78L497.64 610.78L501.84 608.02L501.84 608.02L500.28 612.58L500.28 612.58L504.48 615.46L504.48 615.46L499.32 615.46L499.32 615.46L497.64 620.02" stroke="none" fill="#FF0000" fill-rule="evenodd" /><path transform="matrix(1 0 0 -1 0 841)" d="M497.675 621.144L499.622 615.535L499.622 615.535L499.268 615.787L499.268 615.787L505.729 615.787L505.729 615.787L500.463 612.242L500.463 612.242L500.607 612.677L500.607 612.677L502.57 607.065L502.57 607.065L497.467 610.4771L497.467 610.4771L497.883 610.4771L497.883 610.4771L492.78 607.065L492.78 607.065L494.743 612.677L494.743 612.677L494.887 612.242L494.887 612.242L489.621 615.787L489.621 615.787L496.083 615.787L496.083 615.787L495.728 615.535L495.728 615.535L497.675 621.144M496.349 615.037L490.85 615.037L490.85 615.037L491.059 615.723L491.059 615.723L495.546 612.702L495.546 612.702L493.858 607.876L493.858 607.876L493.296 608.312L493.296 608.312L497.675 611.239L497.675 611.239L502.054 608.312L502.054 608.312L501.492 607.876L501.492 607.876L499.804 612.702L499.804 612.702L504.291 615.723L504.291 615.723L504.5 615.037L504.5 615.037L499.001 615.037L499.001 615.037L497.321 619.877L497.321 619.877L498.029 619.877L498.029 619.877L496.349 615.037z" stroke="none" fill="#FF0000" fill-rule="winding" /></g></g></g></g></svg>