<svg xmlns="http://www.w3.org/2000/svg" xmlns:xlink="http://www.w3.org/1999/xlink" id="body_8" preserveAspectRatio="xMinYMin meet" viewBox="0 0 793 1121"><defs><clipPath id="1"><path d="M0 841L0 -0.9000244L0 -0.9000244L595.3 -0.9000244L595.3 -0.9000244L595.3 841L595.3 841L0 841z" /></clipPath><clipPath id="2"><path d="M0 -0.9000244L595.3 -0.9000244L595.3 -0.9000244L595.3 841L595.3 841L0 841z" /></clipPath><clipPath id="3"><path d="M0 -0.9000244L595.3 -0.9000244L595.3 -0.9000244L595.3 841L595.3 841L0 841z" /></clipPath><clipPath id="4"><path d="M295.2 763.05L300.1 763.05L300.1 763.05L300.1 783.9L300.1 783.9L295.2 783.9z" /></clipPath><clipPath id="5"><path d="M0 -0.9000244L595.3 -0.9000244L595.3 -0.9000244L595.3 841L595.3 841L0 841z" /></clipPath><clipPath id="6"><path d="M0 -0.9000244L595.3 -0.9000244L595.3 -0.9000244L595.3 841L595.3 841L0 841z" /></clipPath><clipPath id="7"><path d="M-1638.4 169.15L2179.65 169.15L2179.65 169.15L2179.65 197.15L2179.65 197.15L-1638.4 197.15z" /></clipPath><clipPath id="8"><path d="M0 -0.9000244L595.3 -0.9000244L595.3 -0.9000244L595.3 841L595.3 841L0 841z" /></clipPath><clipPath id="9"><path d="M-1638.4 197.1L2179.65 197.1L2179.65 197.1L2179.65 225.1L2179.65 225.1L-1638.4 225.1z" /></clipPath><clipPath id="10"><path d="M0 -0.9000244L595.3 -0.9000244L595.3 -0.9000244L595.3 841L595.3 841L0 841z" /></clipPath><clipPath id="11"><path d="M-1638.4 225.05L2179.65 225.05L2179.65 225.05L2179.65 253.05L2179.65 253.05L-1638.4 253.05z" /></clipPath><clipPath id="12"><path d="M0 -0.9000244L595.3 -0.9000244L595.3 -0.9000244L595.3 841L595.3 841L0 841z" /></clipPath><clipPath id="13"><path d="M-1638.4 253.1L2179.65 253.1L2179.65 253.1L2179.65 277.1L2179.65 277.1L-1638.4 277.1z" /></clipPath><clipPath id="14"><path d="M0 -0.9000244L595.3 -0.9000244L595.3 -0.9000244L595.3 841L595.3 841L0 841z" /></clipPath><clipPath id="15"><path d="M26.75 277.15L50.8 277.15L50.8 277.15L50.8 316.4L50.8 316.4L26.75 316.4z" /></clipPath><clipPath id="16"><path d="M0 -0.9000244L595.3 -0.9000244L595.3 -0.9000244L595.3 841L595.3 841L0 841z" /></clipPath><clipPath id="17"><path d="M50.75 277.15L107.05 277.15L107.05 277.15L107.05 316.4L107.05 316.4L50.75 316.4z" /></clipPath><clipPath id="18"><path d="M0 -0.9000244L595.3 -0.9000244L595.3 -0.9000244L595.3 841L595.3 841L0 841z" /></clipPath><clipPath id="19"><path d="M107 277.15L155.8 277.15L155.8 277.15L155.8 316.4L155.8 316.4L107 316.4z" /></clipPath><clipPath id="20"><path d="M0 -0.9000244L595.3 -0.9000244L595.3 -0.9000244L595.3 841L595.3 841L0 841z" /></clipPath><clipPath id="21"><path d="M155.75 277.15L203.05 277.15L203.05 277.15L203.05 316.4L203.05 316.4L155.75 316.4z" /></clipPath><clipPath id="22"><path d="M0 -0.9000244L595.3 -0.9000244L595.3 -0.9000244L595.3 841L595.3 841L0 841z" /></clipPath><clipPath id="23"><path d="M203 277.15L253.3 277.15L253.3 277.15L253.3 316.4L253.3 316.4L203 316.4z" /></clipPath><clipPath id="24"><path d="M0 -0.9000244L595.3 -0.9000244L595.3 -0.9000244L595.3 841L595.3 841L0 841z" /></clipPath><clipPath id="25"><path d="M253.25 277.15L294.55 277.15L294.55 277.15L294.55 316.4L294.55 316.4L253.25 316.4z" /></clipPath><clipPath id="26"><path d="M0 -0.9000244L595.3 -0.9000244L595.3 -0.9000244L595.3 841L595.3 841L0 841z" /></clipPath><clipPath id="27"><path d="M294.5 277.15L342.55 277.15L342.55 277.15L342.55 316.4L342.55 316.4L294.5 316.4z" /></clipPath><clipPath id="28"><path d="M0 -0.9000244L595.3 -0.9000244L595.3 -0.9000244L595.3 841L595.3 841L0 841z" /></clipPath><clipPath id="29"><path d="M342.5 277.15L397.3 277.15L397.3 277.15L397.3 316.4L397.3 316.4L342.5 316.4z" /></clipPath><clipPath id="30"><path d="M0 -0.9000244L595.3 -0.9000244L595.3 -0.9000244L595.3 841L595.3 841L0 841z" /></clipPath><clipPath id="31"><path d="M397.25 277.15L455.05 277.15L455.05 277.15L455.05 316.4L455.05 316.4L397.25 316.4z" /></clipPath><clipPath id="32"><path d="M0 -0.9000244L595.3 -0.9000244L595.3 -0.9000244L595.3 841L595.3 841L0 841z" /></clipPath><clipPath id="33"><path d="M455 277.15L512.05 277.15L512.05 277.15L512.05 316.4L512.05 316.4L455 316.4z" /></clipPath><clipPath id="34"><path d="M0 -0.9000244L595.3 -0.9000244L595.3 -0.9000244L595.3 841L595.3 841L0 841z" /></clipPath><clipPath id="35"><path d="M512 277.15L567.55 277.15L567.55 277.15L567.55 316.4L567.55 316.4L512 316.4z" /></clipPath><clipPath id="36"><path d="M0 -0.9000244L595.3 -0.9000244L595.3 -0.9000244L595.3 841L595.3 841L0 841z" /></clipPath><clipPath id="37"><path d="M26.75 316.4L50.8 316.4L50.8 316.4L50.8 367.65L50.8 367.65L26.75 367.65z" /></clipPath><clipPath id="38"><path d="M0 -0.9000244L595.3 -0.9000244L595.3 -0.9000244L595.3 841L595.3 841L0 841z" /></clipPath><clipPath id="39"><path d="M50.75 316.4L107.05 316.4L107.05 316.4L107.05 367.65L107.05 367.65L50.75 367.65z" /></clipPath><clipPath id="40"><path d="M0 -0.9000244L595.3 -0.9000244L595.3 -0.9000244L595.3 841L595.3 841L0 841z" /></clipPath><clipPath id="41"><path d="M107 316.4L155.8 316.4L155.8 316.4L155.8 367.65L155.8 367.65L107 367.65z" /></clipPath><clipPath id="42"><path d="M0 -0.9000244L595.3 -0.9000244L595.3 -0.9000244L595.3 841L595.3 841L0 841z" /></clipPath><clipPath id="43"><path d="M155.75 316.4L203.05 316.4L203.05 316.4L203.05 367.65L203.05 367.65L155.75 367.65z" /></clipPath><clipPath id="44"><path d="M0 -0.9000244L595.3 -0.9000244L595.3 -0.9000244L595.3 841L595.3 841L0 841z" /></clipPath><clipPath id="45"><path d="M203 316.4L253.3 316.4L253.3 316.4L253.3 367.65L253.3 367.65L203 367.65z" /></clipPath><clipPath id="46"><path d="M0 -0.9000244L595.3 -0.9000244L595.3 -0.9000244L595.3 841L595.3 841L0 841z" /></clipPath><clipPath id="47"><path d="M253.25 316.4L294.55 316.4L294.55 316.4L294.55 367.65L294.55 367.65L253.25 367.65z" /></clipPath><clipPath id="48"><path d="M0 -0.9000244L595.3 -0.9000244L595.3 -0.9000244L595.3 841L595.3 841L0 841z" /></clipPath><clipPath id="49"><path d="M294.5 316.4L342.55 316.4L342.55 316.4L342.55 367.65L342.55 367.65L294.5 367.65z" /></clipPath><clipPath id="50"><path d="M0 -0.9000244L595.3 -0.9000244L595.3 -0.9000244L595.3 841L595.3 841L0 841z" /></clipPath><clipPath id="51"><path d="M342.5 316.4L397.3 316.4L397.3 316.4L397.3 367.65L397.3 367.65L342.5 367.65z" /></clipPath><clipPath id="52"><path d="M0 -0.9000244L595.3 -0.9000244L595.3 -0.9000244L595.3 841L595.3 841L0 841z" /></clipPath><clipPath id="53"><path d="M397.25 316.4L455.05 316.4L455.05 316.4L455.05 367.65L455.05 367.65L397.25 367.65z" /></clipPath><clipPath id="54"><path d="M0 -0.9000244L595.3 -0.9000244L595.3 -0.9000244L595.3 841L595.3 841L0 841z" /></clipPath><clipPath id="55"><path d="M455 316.4L512.05 316.4L512.05 316.4L512.05 367.65L512.05 367.65L455 367.65z" /></clipPath><clipPath id="56"><path d="M0 -0.9000244L595.3 -0.9000244L595.3 -0.9000244L595.3 841L595.3 841L0 841z" /></clipPath><clipPath id="57"><path d="M512 316.4L567.55 316.4L567.55 316.4L567.55 367.65L567.55 367.65L512 367.65z" /></clipPath><clipPath id="58"><path d="M0 -0.9000244L595.3 -0.9000244L595.3 -0.9000244L595.3 841L595.3 841L0 841z" /></clipPath><clipPath id="59"><path d="M26.75 367.65L50.8 367.65L50.8 367.65L50.8 421.4L50.8 421.4L26.75 421.4z" /></clipPath><clipPath id="60"><path d="M0 -0.9000244L595.3 -0.9000244L595.3 -0.9000244L595.3 841L595.3 841L0 841z" /></clipPath><clipPath id="61"><path d="M50.75 367.65L107.05 367.65L107.05 367.65L107.05 421.4L107.05 421.4L50.75 421.4z" /></clipPath><clipPath id="62"><path d="M0 -0.9000244L595.3 -0.9000244L595.3 -0.9000244L595.3 841L595.3 841L0 841z" /></clipPath><clipPath id="63"><path d="M107 367.65L155.8 367.65L155.8 367.65L155.8 421.4L155.8 421.4L107 421.4z" /></clipPath><clipPath id="64"><path d="M0 -0.9000244L595.3 -0.9000244L595.3 -0.9000244L595.3 841L595.3 841L0 841z" /></clipPath><clipPath id="65"><path d="M155.75 367.65L203.05 367.65L203.05 367.65L203.05 421.4L203.05 421.4L155.75 421.4z" /></clipPath><clipPath id="66"><path d="M0 -0.9000244L595.3 -0.9000244L595.3 -0.9000244L595.3 841L595.3 841L0 841z" /></clipPath><clipPath id="67"><path d="M203 367.65L253.3 367.65L253.3 367.65L253.3 421.4L253.3 421.4L203 421.4z" /></clipPath><clipPath id="68"><path d="M0 -0.9000244L595.3 -0.9000244L595.3 -0.9000244L595.3 841L595.3 841L0 841z" /></clipPath><clipPath id="69"><path d="M253.25 367.65L294.55 367.65L294.55 367.65L294.55 421.4L294.55 421.4L253.25 421.4z" /></clipPath><clipPath id="70"><path d="M0 -0.9000244L595.3 -0.9000244L595.3 -0.9000244L595.3 841L595.3 841L0 841z" /></clipPath><clipPath id="71"><path d="M294.5 367.65L342.55 367.65L342.55 367.65L342.55 421.4L342.55 421.4L294.5 421.4z" /></clipPath><clipPath id="72"><path d="M0 -0.9000244L595.3 -0.9000244L595.3 -0.9000244L595.3 841L595.3 841L0 841z" /></clipPath><clipPath id="73"><path d="M342.5 367.65L397.3 367.65L397.3 367.65L397.3 421.4L397.3 421.4L342.5 421.4z" /></clipPath><clipPath id="74"><path d="M0 -0.9000244L595.3 -0.9000244L595.3 -0.9000244L595.3 841L595.3 841L0 841z" /></clipPath><clipPath id="75"><path d="M397.25 367.65L455.05 367.65L455.05 367.65L455.05 421.4L455.05 421.4L397.25 421.4z" /></clipPath><clipPath id="76"><path d="M0 -0.9000244L595.3 -0.9000244L595.3 -0.9000244L595.3 841L595.3 841L0 841z" /></clipPath><clipPath id="77"><path d="M455 367.65L512.05 367.65L512.05 367.65L512.05 421.4L512.05 421.4L455 421.4z" /></clipPath><clipPath id="78"><path d="M0 -0.9000244L595.3 -0.9000244L595.3 -0.9000244L595.3 841L595.3 841L0 841z" /></clipPath><clipPath id="79"><path d="M512 367.65L567.55 367.65L567.55 367.65L567.55 421.4L567.55 421.4L512 421.4z" /></clipPath><clipPath id="80"><path d="M0 -0.9000244L595.3 -0.9000244L595.3 -0.9000244L595.3 841L595.3 841L0 841z" /></clipPath><clipPath id="81"><path d="M26.75 421.4L50.8 421.4L50.8 421.4L50.8 466.9L50.8 466.9L26.75 466.9z" /></clipPath><clipPath id="82"><path d="M0 -0.9000244L595.3 -0.9000244L595.3 -0.9000244L595.3 841L595.3 841L0 841z" /></clipPath><clipPath id="83"><path d="M50.75 421.4L107.05 421.4L107.05 421.4L107.05 466.9L107.05 466.9L50.75 466.9z" /></clipPath><clipPath id="84"><path d="M0 -0.9000244L595.3 -0.9000244L595.3 -0.9000244L595.3 841L595.3 841L0 841z" /></clipPath><clipPath id="85"><path d="M107 421.4L155.8 421.4L155.8 421.4L155.8 466.9L155.8 466.9L107 466.9z" /></clipPath><clipPath id="86"><path d="M0 -0.9000244L595.3 -0.9000244L595.3 -0.9000244L595.3 841L595.3 841L0 841z" /></clipPath><clipPath id="87"><path d="M155.75 421.4L203.05 421.4L203.05 421.4L203.05 466.9L203.05 466.9L155.75 466.9z" /></clipPath><clipPath id="88"><path d="M0 -0.9000244L595.3 -0.9000244L595.3 -0.9000244L595.3 841L595.3 841L0 841z" /></clipPath><clipPath id="89"><path d="M203 421.4L253.3 421.4L253.3 421.4L253.3 466.9L253.3 466.9L203 466.9z" /></clipPath><clipPath id="90"><path d="M0 -0.9000244L595.3 -0.9000244L595.3 -0.9000244L595.3 841L595.3 841L0 841z" /></clipPath><clipPath id="91"><path d="M253.25 421.4L294.55 421.4L294.55 421.4L294.55 466.9L294.55 466.9L253.25 466.9z" /></clipPath><clipPath id="92"><path d="M0 -0.9000244L595.3 -0.9000244L595.3 -0.9000244L595.3 841L595.3 841L0 841z" /></clipPath><clipPath id="93"><path d="M294.5 421.4L342.55 421.4L342.55 421.4L342.55 466.9L342.55 466.9L294.5 466.9z" /></clipPath><clipPath id="94"><path d="M0 -0.9000244L595.3 -0.9000244L595.3 -0.9000244L595.3 841L595.3 841L0 841z" /></clipPath><clipPath id="95"><path d="M342.5 421.4L397.3 421.4L397.3 421.4L397.3 466.9L397.3 466.9L342.5 466.9z" /></clipPath><clipPath id="96"><path d="M0 -0.9000244L595.3 -0.9000244L595.3 -0.9000244L595.3 841L595.3 841L0 841z" /></clipPath><clipPath id="97"><path d="M397.25 421.4L455.05 421.4L455.05 421.4L455.05 466.9L455.05 466.9L397.25 466.9z" /></clipPath><clipPath id="98"><path d="M0 -0.9000244L595.3 -0.9000244L595.3 -0.9000244L595.3 841L595.3 841L0 841z" /></clipPath><clipPath id="99"><path d="M455 421.4L512.05 421.4L512.05 421.4L512.05 466.9L512.05 466.9L455 466.9z" /></clipPath><clipPath id="100"><path d="M0 -0.9000244L595.3 -0.9000244L595.3 -0.9000244L595.3 841L595.3 841L0 841z" /></clipPath><clipPath id="101"><path d="M512 421.4L567.55 421.4L567.55 421.4L567.55 466.9L567.55 466.9L512 466.9z" /></clipPath><clipPath id="102"><path d="M0 -0.9000244L595.3 -0.9000244L595.3 -0.9000244L595.3 841L595.3 841L0 841z" /></clipPath><clipPath id="103"><path d="M26.75 466.9L50.8 466.9L50.8 466.9L50.8 517.55L50.8 517.55L26.75 517.55z" /></clipPath><clipPath id="104"><path d="M0 -0.9000244L595.3 -0.9000244L595.3 -0.9000244L595.3 841L595.3 841L0 841z" /></clipPath><clipPath id="105"><path d="M50.75 466.9L107.05 466.9L107.05 466.9L107.05 517.55L107.05 517.55L50.75 517.55z" /></clipPath><clipPath id="106"><path d="M0 -0.9000244L595.3 -0.9000244L595.3 -0.9000244L595.3 841L595.3 841L0 841z" /></clipPath><clipPath id="107"><path d="M107 466.9L155.8 466.9L155.8 466.9L155.8 517.55L155.8 517.55L107 517.55z" /></clipPath><clipPath id="108"><path d="M0 -0.9000244L595.3 -0.9000244L595.3 -0.9000244L595.3 841L595.3 841L0 841z" /></clipPath><clipPath id="109"><path d="M155.75 466.9L203.05 466.9L203.05 466.9L203.05 517.55L203.05 517.55L155.75 517.55z" /></clipPath><clipPath id="110"><path d="M0 -0.9000244L595.3 -0.9000244L595.3 -0.9000244L595.3 841L595.3 841L0 841z" /></clipPath><clipPath id="111"><path d="M203 466.9L253.3 466.9L253.3 466.9L253.3 517.55L253.3 517.55L203 517.55z" /></clipPath><clipPath id="112"><path d="M0 -0.9000244L595.3 -0.9000244L595.3 -0.9000244L595.3 841L595.3 841L0 841z" /></clipPath><clipPath id="113"><path d="M253.25 466.9L294.55 466.9L294.55 466.9L294.55 517.55L294.55 517.55L253.25 517.55z" /></clipPath><clipPath id="114"><path d="M0 -0.9000244L595.3 -0.9000244L595.3 -0.9000244L595.3 841L595.3 841L0 841z" /></clipPath><clipPath id="115"><path d="M294.5 466.9L342.55 466.9L342.55 466.9L342.55 517.55L342.55 517.55L294.5 517.55z" /></clipPath><clipPath id="116"><path d="M0 -0.9000244L595.3 -0.9000244L595.3 -0.9000244L595.3 841L595.3 841L0 841z" /></clipPath><clipPath id="117"><path d="M342.5 466.9L397.3 466.9L397.3 466.9L397.3 517.55L397.3 517.55L342.5 517.55z" /></clipPath><clipPath id="118"><path d="M0 -0.9000244L595.3 -0.9000244L595.3 -0.9000244L595.3 841L595.3 841L0 841z" /></clipPath><clipPath id="119"><path d="M397.25 466.9L455.05 466.9L455.05 466.9L455.05 517.55L455.05 517.55L397.25 517.55z" /></clipPath><clipPath id="120"><path d="M0 -0.9000244L595.3 -0.9000244L595.3 -0.9000244L595.3 841L595.3 841L0 841z" /></clipPath><clipPath id="121"><path d="M455 466.9L512.05 466.9L512.05 466.9L512.05 517.55L512.05 517.55L455 517.55z" /></clipPath><clipPath id="122"><path d="M0 -0.9000244L595.3 -0.9000244L595.3 -0.9000244L595.3 841L595.3 841L0 841z" /></clipPath><clipPath id="123"><path d="M512 466.9L567.55 466.9L567.55 466.9L567.55 517.55L567.55 517.55L512 517.55z" /></clipPath><clipPath id="124"><path d="M0 -0.9000244L595.3 -0.9000244L595.3 -0.9000244L595.3 841L595.3 841L0 841z" /></clipPath><clipPath id="125"><path d="M26.75 517.55L50.8 517.55L50.8 517.55L50.8 574.4L50.8 574.4L26.75 574.4z" /></clipPath><clipPath id="126"><path d="M0 -0.9000244L595.3 -0.9000244L595.3 -0.9000244L595.3 841L595.3 841L0 841z" /></clipPath><clipPath id="127"><path d="M50.75 517.55L107.05 517.55L107.05 517.55L107.05 574.4L107.05 574.4L50.75 574.4z" /></clipPath><clipPath id="128"><path d="M0 -0.9000244L595.3 -0.9000244L595.3 -0.9000244L595.3 841L595.3 841L0 841z" /></clipPath><clipPath id="129"><path d="M107 517.55L155.8 517.55L155.8 517.55L155.8 574.4L155.8 574.4L107 574.4z" /></clipPath><clipPath id="130"><path d="M0 -0.9000244L595.3 -0.9000244L595.3 -0.9000244L595.3 841L595.3 841L0 841z" /></clipPath><clipPath id="131"><path d="M155.75 517.55L203.05 517.55L203.05 517.55L203.05 574.4L203.05 574.4L155.75 574.4z" /></clipPath><clipPath id="132"><path d="M0 -0.9000244L595.3 -0.9000244L595.3 -0.9000244L595.3 841L595.3 841L0 841z" /></clipPath><clipPath id="133"><path d="M203 517.55L253.3 517.55L253.3 517.55L253.3 574.4L253.3 574.4L203 574.4z" /></clipPath><clipPath id="134"><path d="M0 -0.9000244L595.3 -0.9000244L595.3 -0.9000244L595.3 841L595.3 841L0 841z" /></clipPath><clipPath id="135"><path d="M253.25 517.55L294.55 517.55L294.55 517.55L294.55 574.4L294.55 574.4L253.25 574.4z" /></clipPath><clipPath id="136"><path d="M0 -0.9000244L595.3 -0.9000244L595.3 -0.9000244L595.3 841L595.3 841L0 841z" /></clipPath><clipPath id="137"><path d="M294.5 517.55L342.55 517.55L342.55 517.55L342.55 574.4L342.55 574.4L294.5 574.4z" /></clipPath><clipPath id="138"><path d="M0 -0.9000244L595.3 -0.9000244L595.3 -0.9000244L595.3 841L595.3 841L0 841z" /></clipPath><clipPath id="139"><path d="M342.5 517.55L397.3 517.55L397.3 517.55L397.3 574.4L397.3 574.4L342.5 574.4z" /></clipPath><clipPath id="140"><path d="M0 -0.9000244L595.3 -0.9000244L595.3 -0.9000244L595.3 841L595.3 841L0 841z" /></clipPath><clipPath id="141"><path d="M397.25 517.55L455.05 517.55L455.05 517.55L455.05 574.4L455.05 574.4L397.25 574.4z" /></clipPath><clipPath id="142"><path d="M0 -0.9000244L595.3 -0.9000244L595.3 -0.9000244L595.3 841L595.3 841L0 841z" /></clipPath><clipPath id="143"><path d="M455 517.55L512.05 517.55L512.05 517.55L512.05 574.4L512.05 574.4L455 574.4z" /></clipPath><clipPath id="144"><path d="M0 -0.9000244L595.3 -0.9000244L595.3 -0.9000244L595.3 841L595.3 841L0 841z" /></clipPath><clipPath id="145"><path d="M512 517.55L567.55 517.55L567.55 517.55L567.55 574.4L567.55 574.4L512 574.4z" /></clipPath><clipPath id="146"><path d="M0 -0.9000244L595.3 -0.9000244L595.3 -0.9000244L595.3 841L595.3 841L0 841z" /></clipPath><clipPath id="147"><path d="M26.75 574.4L50.8 574.4L50.8 574.4L50.8 631.55L50.8 631.55L26.75 631.55z" /></clipPath><clipPath id="148"><path d="M0 -0.9000244L595.3 -0.9000244L595.3 -0.9000244L595.3 841L595.3 841L0 841z" /></clipPath><clipPath id="149"><path d="M50.75 574.4L107.05 574.4L107.05 574.4L107.05 631.55L107.05 631.55L50.75 631.55z" /></clipPath><clipPath id="150"><path d="M0 -0.9000244L595.3 -0.9000244L595.3 -0.9000244L595.3 841L595.3 841L0 841z" /></clipPath><clipPath id="151"><path d="M107 574.4L155.8 574.4L155.8 574.4L155.8 631.55L155.8 631.55L107 631.55z" /></clipPath><clipPath id="152"><path d="M0 -0.9000244L595.3 -0.9000244L595.3 -0.9000244L595.3 841L595.3 841L0 841z" /></clipPath><clipPath id="153"><path d="M155.75 574.4L203.05 574.4L203.05 574.4L203.05 631.55L203.05 631.55L155.75 631.55z" /></clipPath><clipPath id="154"><path d="M0 -0.9000244L595.3 -0.9000244L595.3 -0.9000244L595.3 841L595.3 841L0 841z" /></clipPath><clipPath id="155"><path d="M203 574.4L253.3 574.4L253.3 574.4L253.3 631.55L253.3 631.55L203 631.55z" /></clipPath><clipPath id="156"><path d="M0 -0.9000244L595.3 -0.9000244L595.3 -0.9000244L595.3 841L595.3 841L0 841z" /></clipPath><clipPath id="157"><path d="M253.25 574.4L294.55 574.4L294.55 574.4L294.55 631.55L294.55 631.55L253.25 631.55z" /></clipPath><clipPath id="158"><path d="M0 -0.9000244L595.3 -0.9000244L595.3 -0.9000244L595.3 841L595.3 841L0 841z" /></clipPath><clipPath id="159"><path d="M294.5 574.4L342.55 574.4L342.55 574.4L342.55 631.55L342.55 631.55L294.5 631.55z" /></clipPath><clipPath id="160"><path d="M0 -0.9000244L595.3 -0.9000244L595.3 -0.9000244L595.3 841L595.3 841L0 841z" /></clipPath><clipPath id="161"><path d="M342.5 574.4L397.3 574.4L397.3 574.4L397.3 631.55L397.3 631.55L342.5 631.55z" /></clipPath><clipPath id="162"><path d="M0 -0.9000244L595.3 -0.9000244L595.3 -0.9000244L595.3 841L595.3 841L0 841z" /></clipPath><clipPath id="163"><path d="M397.25 574.4L455.05 574.4L455.05 574.4L455.05 631.55L455.05 631.55L397.25 631.55z" /></clipPath><clipPath id="164"><path d="M0 -0.9000244L595.3 -0.9000244L595.3 -0.9000244L595.3 841L595.3 841L0 841z" /></clipPath><clipPath id="165"><path d="M455 574.4L512.05 574.4L512.05 574.4L512.05 631.55L512.05 631.55L455 631.55z" /></clipPath><clipPath id="166"><path d="M0 -0.9000244L595.3 -0.9000244L595.3 -0.9000244L595.3 841L595.3 841L0 841z" /></clipPath><clipPath id="167"><path d="M512 574.4L567.55 574.4L567.55 574.4L567.55 631.55L567.55 631.55L512 631.55z" /></clipPath><clipPath id="168"><path d="M0 -0.9000244L595.3 -0.9000244L595.3 -0.9000244L595.3 841L595.3 841L0 841z" /></clipPath><clipPath id="169"><path d="M26.75 631.6L50.8 631.6L50.8 631.6L50.8 686.5L50.8 686.5L26.75 686.5z" /></clipPath><clipPath id="170"><path d="M0 -0.9000244L595.3 -0.9000244L595.3 -0.9000244L595.3 841L595.3 841L0 841z" /></clipPath><clipPath id="171"><path d="M50.75 631.6L107.05 631.6L107.05 631.6L107.05 686.5L107.05 686.5L50.75 686.5z" /></clipPath><clipPath id="172"><path d="M0 -0.9000244L595.3 -0.9000244L595.3 -0.9000244L595.3 841L595.3 841L0 841z" /></clipPath><clipPath id="173"><path d="M107 631.6L155.8 631.6L155.8 631.6L155.8 686.5L155.8 686.5L107 686.5z" /></clipPath><clipPath id="174"><path d="M0 -0.9000244L595.3 -0.9000244L595.3 -0.9000244L595.3 841L595.3 841L0 841z" /></clipPath><clipPath id="175"><path d="M155.75 631.6L203.05 631.6L203.05 631.6L203.05 686.5L203.05 686.5L155.75 686.5z" /></clipPath><clipPath id="176"><path d="M0 -0.9000244L595.3 -0.9000244L595.3 -0.9000244L595.3 841L595.3 841L0 841z" /></clipPath><clipPath id="177"><path d="M203 631.6L253.3 631.6L253.3 631.6L253.3 686.5L253.3 686.5L203 686.5z" /></clipPath><clipPath id="178"><path d="M0 -0.9000244L595.3 -0.9000244L595.3 -0.9000244L595.3 841L595.3 841L0 841z" /></clipPath><clipPath id="179"><path d="M253.25 631.6L294.55 631.6L294.55 631.6L294.55 686.5L294.55 686.5L253.25 686.5z" /></clipPath><clipPath id="180"><path d="M0 -0.9000244L595.3 -0.9000244L595.3 -0.9000244L595.3 841L595.3 841L0 841z" /></clipPath><clipPath id="181"><path d="M294.5 631.6L342.55 631.6L342.55 631.6L342.55 686.5L342.55 686.5L294.5 686.5z" /></clipPath><clipPath id="182"><path d="M0 -0.9000244L595.3 -0.9000244L595.3 -0.9000244L595.3 841L595.3 841L0 841z" /></clipPath><clipPath id="183"><path d="M342.5 631.6L397.3 631.6L397.3 631.6L397.3 686.5L397.3 686.5L342.5 686.5z" /></clipPath><clipPath id="184"><path d="M0 -0.9000244L595.3 -0.9000244L595.3 -0.9000244L595.3 841L595.3 841L0 841z" /></clipPath><clipPath id="185"><path d="M397.25 631.6L455.05 631.6L455.05 631.6L455.05 686.5L455.05 686.5L397.25 686.5z" /></clipPath><clipPath id="186"><path d="M0 -0.9000244L595.3 -0.9000244L595.3 -0.9000244L595.3 841L595.3 841L0 841z" /></clipPath><clipPath id="187"><path d="M455 631.6L512.05 631.6L512.05 631.6L512.05 686.5L512.05 686.5L455 686.5z" /></clipPath><clipPath id="188"><path d="M0 -0.9000244L595.3 -0.9000244L595.3 -0.9000244L595.3 841L595.3 841L0 841z" /></clipPath><clipPath id="189"><path d="M512 631.6L567.55 631.6L567.55 631.6L567.55 686.5L567.55 686.5L512 686.5z" /></clipPath><clipPath id="190"><path d="M0 -0.9000244L595.3 -0.9000244L595.3 -0.9000244L595.3 841L595.3 841L0 841z" /></clipPath><clipPath id="191"><path d="M26.75 686.5L50.8 686.5L50.8 686.5L50.8 732.05L50.8 732.05L26.75 732.05z" /></clipPath><clipPath id="192"><path d="M0 -0.9000244L595.3 -0.9000244L595.3 -0.9000244L595.3 841L595.3 841L0 841z" /></clipPath><clipPath id="193"><path d="M50.75 686.5L107.05 686.5L107.05 686.5L107.05 732.05L107.05 732.05L50.75 732.05z" /></clipPath><clipPath id="194"><path d="M0 -0.9000244L595.3 -0.9000244L595.3 -0.9000244L595.3 841L595.3 841L0 841z" /></clipPath><clipPath id="195"><path d="M107 686.5L155.8 686.5L155.8 686.5L155.8 732.05L155.8 732.05L107 732.05z" /></clipPath><clipPath id="196"><path d="M0 -0.9000244L595.3 -0.9000244L595.3 -0.9000244L595.3 841L595.3 841L0 841z" /></clipPath><clipPath id="197"><path d="M155.75 686.5L203.05 686.5L203.05 686.5L203.05 732.05L203.05 732.05L155.75 732.05z" /></clipPath><clipPath id="198"><path d="M0 -0.9000244L595.3 -0.9000244L595.3 -0.9000244L595.3 841L595.3 841L0 841z" /></clipPath><clipPath id="199"><path d="M203 686.5L253.3 686.5L253.3 686.5L253.3 732.05L253.3 732.05L203 732.05z" /></clipPath><clipPath id="200"><path d="M0 -0.9000244L595.3 -0.9000244L595.3 -0.9000244L595.3 841L595.3 841L0 841z" /></clipPath><clipPath id="201"><path d="M253.25 686.5L294.55 686.5L294.55 686.5L294.55 732.05L294.55 732.05L253.25 732.05z" /></clipPath><clipPath id="202"><path d="M0 -0.9000244L595.3 -0.9000244L595.3 -0.9000244L595.3 841L595.3 841L0 841z" /></clipPath><clipPath id="203"><path d="M294.5 686.5L342.55 686.5L342.55 686.5L342.55 732.05L342.55 732.05L294.5 732.05z" /></clipPath><clipPath id="204"><path d="M0 -0.9000244L595.3 -0.9000244L595.3 -0.9000244L595.3 841L595.3 841L0 841z" /></clipPath><clipPath id="205"><path d="M342.5 686.5L397.3 686.5L397.3 686.5L397.3 732.05L397.3 732.05L342.5 732.05z" /></clipPath><clipPath id="206"><path d="M0 -0.9000244L595.3 -0.9000244L595.3 -0.9000244L595.3 841L595.3 841L0 841z" /></clipPath><clipPath id="207"><path d="M397.25 686.5L455.05 686.5L455.05 686.5L455.05 732.05L455.05 732.05L397.25 732.05z" /></clipPath><clipPath id="208"><path d="M0 -0.9000244L595.3 -0.9000244L595.3 -0.9000244L595.3 841L595.3 841L0 841z" /></clipPath><clipPath id="209"><path d="M455 686.5L512.05 686.5L512.05 686.5L512.05 732.05L512.05 732.05L455 732.05z" /></clipPath><clipPath id="210"><path d="M0 -0.9000244L595.3 -0.9000244L595.3 -0.9000244L595.3 841L595.3 841L0 841z" /></clipPath><clipPath id="211"><path d="M512 686.5L567.55 686.5L567.55 686.5L567.55 732.05L567.55 732.05L512 732.05z" /></clipPath><clipPath id="212"><path d="M0 -0.9000244L595.3 -0.9000244L595.3 -0.9000244L595.3 841L595.3 841L0 841z" /></clipPath></defs><g transform="matrix(1.333333 0 0 1.333333 0 0)"><g><g clip-path="url(#1)"><g clip-path="url(#2)"><g transform="matrix(0.3271429 0 0 0.3275676 55.56 34.5)"><g transform="matrix(1 0 0 1 0 0)"><image x="0" y="0" xlink:href="img_03.png" width="168" height="74" /></g></g><path transform="matrix(1 0 0 -1 0 841)" d="M54 778.4L523.3 778.4L523.3 778.4L523.3 777.6801L523.3 777.6801L54 777.6801z" stroke="none" fill="#000000" fill-rule="evenodd" /></g><g clip-path="url(#3)"><g clip-path="url(#4)"></g></g><g clip-path="url(#5)"></g><g clip-path="url(#6)"><g clip-path="url(#7)"></g></g><g clip-path="url(#8)"><g clip-path="url(#9)"></g></g><g clip-path="url(#10)"><g clip-path="url(#11)"></g></g><g clip-path="url(#12)"><g clip-path="url(#13)"></g></g><g clip-path="url(#14)"><g clip-path="url(#15)"></g></g><g clip-path="url(#16)"><g clip-path="url(#17)"></g></g><g clip-path="url(#18)"><g clip-path="url(#19)"></g></g><g clip-path="url(#20)"><g clip-path="url(#21)"></g></g><g clip-path="url(#22)"><g clip-path="url(#23)"></g></g><g clip-path="url(#24)"><g clip-path="url(#25)"></g></g><g clip-path="url(#26)"><g clip-path="url(#27)"></g></g><g clip-path="url(#28)"><g clip-path="url(#29)"></g></g><g clip-path="url(#30)"><g clip-path="url(#31)"></g></g><g clip-path="url(#32)"><g clip-path="url(#33)"></g></g><g clip-path="url(#34)"><g clip-path="url(#35)"></g></g><g clip-path="url(#36)"><g clip-path="url(#37)"></g></g><g clip-path="url(#38)"><g clip-path="url(#39)"></g></g><g clip-path="url(#40)"><g clip-path="url(#41)"></g></g><g clip-path="url(#42)"><g clip-path="url(#43)"></g></g><g clip-path="url(#44)"><g clip-path="url(#45)"></g></g><g clip-path="url(#46)"><g clip-path="url(#47)"></g></g><g clip-path="url(#48)"><g clip-path="url(#49)"></g></g><g clip-path="url(#50)"><g clip-path="url(#51)"></g></g><g clip-path="url(#52)"><g clip-path="url(#53)"></g></g><g clip-path="url(#54)"><g clip-path="url(#55)"></g></g><g clip-path="url(#56)"><g clip-path="url(#57)"></g></g><g clip-path="url(#58)"><g clip-path="url(#59)"></g></g><g clip-path="url(#60)"><g clip-path="url(#61)"></g></g><g clip-path="url(#62)"><g clip-path="url(#63)"></g></g><g clip-path="url(#64)"><g clip-path="url(#65)"></g></g><g clip-path="url(#66)"><g clip-path="url(#67)"></g></g><g clip-path="url(#68)"><g clip-path="url(#69)"></g></g><g clip-path="url(#70)"><g clip-path="url(#71)"></g></g><g clip-path="url(#72)"><g clip-path="url(#73)"></g></g><g clip-path="url(#74)"><g clip-path="url(#75)"></g></g><g clip-path="url(#76)"><g clip-path="url(#77)"></g></g><g clip-path="url(#78)"><g clip-path="url(#79)"></g></g><g clip-path="url(#80)"><g clip-path="url(#81)"></g></g><g clip-path="url(#82)"><g clip-path="url(#83)"></g></g><g clip-path="url(#84)"><g clip-path="url(#85)"></g></g><g clip-path="url(#86)"><g clip-path="url(#87)"></g></g><g clip-path="url(#88)"><g clip-path="url(#89)"></g></g><g clip-path="url(#90)"><g clip-path="url(#91)"></g></g><g clip-path="url(#92)"><g clip-path="url(#93)"></g></g><g clip-path="url(#94)"><g clip-path="url(#95)"></g></g><g clip-path="url(#96)"><g clip-path="url(#97)"></g></g><g clip-path="url(#98)"><g clip-path="url(#99)"></g></g><g clip-path="url(#100)"><g clip-path="url(#101)"></g></g><g clip-path="url(#102)"><g clip-path="url(#103)"></g></g><g clip-path="url(#104)"><g clip-path="url(#105)"></g></g><g clip-path="url(#106)"><g clip-path="url(#107)"></g></g><g clip-path="url(#108)"><g clip-path="url(#109)"></g></g><g clip-path="url(#110)"><g clip-path="url(#111)"></g></g><g clip-path="url(#112)"><g clip-path="url(#113)"></g></g><g clip-path="url(#114)"><g clip-path="url(#115)"></g></g><g clip-path="url(#116)"><g clip-path="url(#117)"></g></g><g clip-path="url(#118)"><g clip-path="url(#119)"></g></g><g clip-path="url(#120)"><g clip-path="url(#121)"></g></g><g clip-path="url(#122)"><g clip-path="url(#123)"></g></g><g clip-path="url(#124)"><g clip-path="url(#125)"></g></g><g clip-path="url(#126)"><g clip-path="url(#127)"></g></g><g clip-path="url(#128)"><g clip-path="url(#129)"></g></g><g clip-path="url(#130)"><g clip-path="url(#131)"></g></g><g clip-path="url(#132)"><g clip-path="url(#133)"></g></g><g clip-path="url(#134)"><g clip-path="url(#135)"></g></g><g clip-path="url(#136)"><g clip-path="url(#137)"></g></g><g clip-path="url(#138)"><g clip-path="url(#139)"></g></g><g clip-path="url(#140)"><g clip-path="url(#141)"></g></g><g clip-path="url(#142)"><g clip-path="url(#143)"></g></g><g clip-path="url(#144)"><g clip-path="url(#145)"></g></g><g clip-path="url(#146)"><g clip-path="url(#147)"></g></g><g clip-path="url(#148)"><g clip-path="url(#149)"></g></g><g clip-path="url(#150)"><g clip-path="url(#151)"></g></g><g clip-path="url(#152)"><g clip-path="url(#153)"></g></g><g clip-path="url(#154)"><g clip-path="url(#155)"></g></g><g clip-path="url(#156)"><g clip-path="url(#157)"></g></g><g clip-path="url(#158)"><g clip-path="url(#159)"></g></g><g clip-path="url(#160)"><g clip-path="url(#161)"></g></g><g clip-path="url(#162)"><g clip-path="url(#163)"></g></g><g clip-path="url(#164)"><g clip-path="url(#165)"></g></g><g clip-path="url(#166)"><g clip-path="url(#167)"></g></g><g clip-path="url(#168)"><g clip-path="url(#169)"></g></g><g clip-path="url(#170)"><g clip-path="url(#171)"></g></g><g clip-path="url(#172)"><g clip-path="url(#173)"></g></g><g clip-path="url(#174)"><g clip-path="url(#175)"></g></g><g clip-path="url(#176)"><g clip-path="url(#177)"></g></g><g clip-path="url(#178)"><g clip-path="url(#179)"></g></g><g clip-path="url(#180)"><g clip-path="url(#181)"></g></g><g clip-path="url(#182)"><g clip-path="url(#183)"></g></g><g clip-path="url(#184)"><g clip-path="url(#185)"></g></g><g clip-path="url(#186)"><g clip-path="url(#187)"></g></g><g clip-path="url(#188)"><g clip-path="url(#189)"></g></g><g clip-path="url(#190)"><g clip-path="url(#191)"></g></g><g clip-path="url(#192)"><g clip-path="url(#193)"></g></g><g clip-path="url(#194)"><g clip-path="url(#195)"></g></g><g clip-path="url(#196)"><g clip-path="url(#197)"></g></g><g clip-path="url(#198)"><g clip-path="url(#199)"></g></g><g clip-path="url(#200)"><g clip-path="url(#201)"></g></g><g clip-path="url(#202)"><g clip-path="url(#203)"></g></g><g clip-path="url(#204)"><g clip-path="url(#205)"></g></g><g clip-path="url(#206)"><g clip-path="url(#207)"></g></g><g clip-path="url(#208)"><g clip-path="url(#209)"></g></g><g clip-path="url(#210)"><g clip-path="url(#211)"></g></g><g clip-path="url(#212)"><path transform="matrix(1 0 0 -1 0 841)" d="M26.03 563.13L568.22 563.13" stroke="#000000" stroke-width="1.44" fill="none" /><path transform="matrix(1 0 0 -1 0 841)" d="M26.03 108.33L568.22 108.33" stroke="#000000" stroke-width="1.44" fill="none" /><path transform="matrix(1 0 0 -1 0 841)" d="M27.47 524.36L566.78 524.36" stroke="#000000" stroke-width="0.48" fill="none" /><path transform="matrix(1 0 0 -1 0 841)" d="M27.47 473.11L566.78 473.11" stroke="#000000" stroke-width="0.48" fill="none" /><path transform="matrix(1 0 0 -1 0 841)" d="M27.47 419.36L566.78 419.36" stroke="#000000" stroke-width="0.48" fill="none" /><path transform="matrix(1 0 0 -1 0 841)" d="M27.47 373.81L566.78 373.81" stroke="#000000" stroke-width="0.48" fill="none" /><path transform="matrix(1 0 0 -1 0 841)" d="M27.47 323.16L566.78 323.16" stroke="#000000" stroke-width="0.48" fill="none" /><path transform="matrix(1 0 0 -1 0 841)" d="M27.47 266.31L566.78 266.31" stroke="#000000" stroke-width="0.48" fill="none" /><path transform="matrix(1 0 0 -1 0 841)" d="M27.47 209.16L566.78 209.16" stroke="#000000" stroke-width="0.48" fill="none" /><path transform="matrix(1 0 0 -1 0 841)" d="M27.47 154.26L566.78 154.26" stroke="#000000" stroke-width="0.48" fill="none" /><path transform="matrix(1 0 0 -1 0 841)" d="M26.75 563.85L26.75 107.61" stroke="#000000" stroke-width="1.44" fill="none" /><path transform="matrix(1 0 0 -1 0 841)" d="M567.5 562.41L567.5 107.61" stroke="#000000" stroke-width="1.44" fill="none" /><path transform="matrix(1 0 0 -1 0 841)" d="M50.75 562.41L50.75 109.05" stroke="#000000" stroke-width="0.48" fill="none" /><path transform="matrix(1 0 0 -1 0 841)" d="M107 562.41L107 109.05" stroke="#000000" stroke-width="0.48" fill="none" /><path transform="matrix(1 0 0 -1 0 841)" d="M155.75 562.41L155.75 109.05" stroke="#000000" stroke-width="0.48" fill="none" /><path transform="matrix(1 0 0 -1 0 841)" d="M203 562.41L203 109.05" stroke="#000000" stroke-width="0.48" fill="none" /><path transform="matrix(1 0 0 -1 0 841)" d="M253.25 562.41L253.25 109.05" stroke="#000000" stroke-width="0.48" fill="none" /><path transform="matrix(1 0 0 -1 0 841)" d="M294.5 562.41L294.5 109.05" stroke="#000000" stroke-width="0.48" fill="none" /><path transform="matrix(1 0 0 -1 0 841)" d="M342.5 562.41L342.5 109.05" stroke="#000000" stroke-width="0.48" fill="none" /><path transform="matrix(1 0 0 -1 0 841)" d="M397.25 562.41L397.25 109.05" stroke="#000000" stroke-width="0.48" fill="none" /><path transform="matrix(1 0 0 -1 0 841)" d="M455 562.41L455 109.05" stroke="#000000" stroke-width="0.48" fill="none" /><path transform="matrix(1 0 0 -1 0 841)" d="M512 562.41L512 109.05" stroke="#000000" stroke-width="0.48" fill="none" /></g></g></g></g></svg>