<svg xmlns="http://www.w3.org/2000/svg" xmlns:xlink="http://www.w3.org/1999/xlink" id="body_11" preserveAspectRatio="xMinYMin meet" viewBox="0 0 793 1121"><defs><clipPath id="1"><path d="M0 841L0 -0.9000244L0 -0.9000244L595.3 -0.9000244L595.3 -0.9000244L595.3 841L595.3 841L0 841z" /></clipPath><clipPath id="2"><path d="M0 -0.9000244L595.3 -0.9000244L595.3 -0.9000244L595.3 841L595.3 841L0 841z" /></clipPath><clipPath id="3"><path d="M0 -0.9000244L595.3 -0.9000244L595.3 -0.9000244L595.3 841L595.3 841L0 841z" /></clipPath><clipPath id="4"><path d="M292.75 763.05L302.55 763.05L302.55 763.05L302.55 783.9L302.55 783.9L292.75 783.9z" /></clipPath><clipPath id="5"><path d="M0 -0.9000244L595.3 -0.9000244L595.3 -0.9000244L595.3 841L595.3 841L0 841z" /></clipPath><clipPath id="6"><path d="M0 -0.9000244L595.3 -0.9000244L595.3 -0.9000244L595.3 841L595.3 841L0 841z" /></clipPath><clipPath id="7"><path d="M-1638.4 296.45L2179.65 296.45L2179.65 296.45L2179.65 324.45L2179.65 324.45L-1638.4 324.45z" /></clipPath><clipPath id="8"><path d="M0 -0.9000244L595.3 -0.9000244L595.3 -0.9000244L595.3 841L595.3 841L0 841z" /></clipPath><clipPath id="9"><path d="M-1638.4 324.4L2179.65 324.4L2179.65 324.4L2179.65 352.4L2179.65 352.4L-1638.4 352.4z" /></clipPath><clipPath id="10"><path d="M0 -0.9000244L595.3 -0.9000244L595.3 -0.9000244L595.3 841L595.3 841L0 841z" /></clipPath><clipPath id="11"><path d="M-1638.4 352.5L2179.65 352.5L2179.65 352.5L2179.65 380.5L2179.65 380.5L-1638.4 380.5z" /></clipPath><clipPath id="12"><path d="M0 -0.9000244L595.3 -0.9000244L595.3 -0.9000244L595.3 841L595.3 841L0 841z" /></clipPath><clipPath id="13"><path d="M0 -0.9000244L595.3 -0.9000244L595.3 -0.9000244L595.3 841L595.3 841L0 841z" /></clipPath><clipPath id="14"><path d="M-1638.4 649.25L2179.65 649.25L2179.65 649.25L2179.65 677.25L2179.65 677.25L-1638.4 677.25z" /></clipPath><clipPath id="15"><path d="M0 -0.9000244L595.3 -0.9000244L595.3 -0.9000244L595.3 841L595.3 841L0 841z" /></clipPath><clipPath id="16"><path d="M-1638.4 677.2L2179.65 677.2L2179.65 677.2L2179.65 705.2L2179.65 705.2L-1638.4 705.2z" /></clipPath><clipPath id="17"><path d="M0 -0.9000244L595.3 -0.9000244L595.3 -0.9000244L595.3 841L595.3 841L0 841z" /></clipPath><clipPath id="18"><path d="M-1638.4 705.3L2179.65 705.3L2179.65 705.3L2179.65 733.3L2179.65 733.3L-1638.4 733.3z" /></clipPath><clipPath id="19"><path d="M0 -0.9000244L595.3 -0.9000244L595.3 -0.9000244L595.3 841L595.3 841L0 841z" /></clipPath><clipPath id="20"><path d="M-1638.4 733.25L2179.65 733.25L2179.65 733.25L2179.65 761.25L2179.65 761.25L-1638.4 761.25z" /></clipPath></defs><g transform="matrix(1.333333 0 0 1.333333 0 0)"><g><g clip-path="url(#1)"><g clip-path="url(#2)"><g transform="matrix(0.3271429 0 0 0.3275676 55.56 34.5)"><g transform="matrix(1 0 0 1 0 0)"><image x="0" y="0" xlink:href="img_03.png" width="168" height="74" /></g></g><path transform="matrix(1 0 0 -1 0 841)" d="M54 778.4L523.3 778.4L523.3 778.4L523.3 777.6801L523.3 777.6801L54 777.6801z" stroke="none" fill="#000000" fill-rule="evenodd" /></g><g clip-path="url(#3)"><g clip-path="url(#4)"></g></g><g clip-path="url(#5)"><g transform="matrix(0.3275 0 0 0.3274172 54 74.94)"><g transform="matrix(1 0 0 1 0 0)"><image x="0" y="0" xlink:href="img_21.png" width="720" height="604" /></g></g><g transform="matrix(0.3292745 0 0 0.3298013 302.04 73.38)"><g transform="matrix(1 0 0 1 0 0)"><image x="0" y="0" xlink:href="img_22.png" width="703" height="604" /></g></g></g><g clip-path="url(#6)"><g clip-path="url(#7)"></g></g><g clip-path="url(#8)"><g clip-path="url(#9)"></g></g><g clip-path="url(#10)"><g clip-path="url(#11)"></g></g><g clip-path="url(#12)"><g transform="matrix(0.328421 0 0 0.3284927 54 380.46)"><g transform="matrix(1 0 0 1 0 0)"><image x="0" y="0" xlink:href="img_23.png" width="722" height="617" /></g></g><g transform="matrix(0.3274689 0 0 0.3274478 303.48 380.46)"><g transform="matrix(1 0 0 1 0 0)"><image x="0" y="0" xlink:href="img_24.png" width="723" height="623" /></g></g></g><g clip-path="url(#13)"><g clip-path="url(#14)"></g></g><g clip-path="url(#15)"><g clip-path="url(#16)"></g></g><g clip-path="url(#17)"><g clip-path="url(#18)"></g></g><g clip-path="url(#19)"><g clip-path="url(#20)"></g></g></g></g></g></svg>