<svg xmlns="http://www.w3.org/2000/svg" xmlns:xlink="http://www.w3.org/1999/xlink" id="body_7" preserveAspectRatio="xMinYMin meet" viewBox="0 0 793 1121"><defs><clipPath id="1"><path d="M0 841L0 -0.9000244L0 -0.9000244L595.3 -0.9000244L595.3 -0.9000244L595.3 841L595.3 841L0 841z" /></clipPath><clipPath id="2"><path d="M0 -0.9000244L595.3 -0.9000244L595.3 -0.9000244L595.3 841L595.3 841L0 841z" /></clipPath><clipPath id="3"><path d="M0 -0.9000244L595.3 -0.9000244L595.3 -0.9000244L595.3 841L595.3 841L0 841z" /></clipPath><clipPath id="4"><path d="M295.2 763.05L300.1 763.05L300.1 763.05L300.1 783.9L300.1 783.9L295.2 783.9z" /></clipPath><clipPath id="5"><path d="M0 -0.9000244L595.3 -0.9000244L595.3 -0.9000244L595.3 841L595.3 841L0 841z" /></clipPath><clipPath id="6"><path d="M-1638.4 73.39996L2179.65 73.39996L2179.65 73.39996L2179.65 101.4L2179.65 101.4L-1638.4 101.4z" /></clipPath><clipPath id="7"><path d="M0 -0.9000244L595.3 -0.9000244L595.3 -0.9000244L595.3 841L595.3 841L0 841z" /></clipPath><clipPath id="8"><path d="M-1638.4 101.35L2179.65 101.35L2179.65 101.35L2179.65 129.35L2179.65 129.35L-1638.4 129.35z" /></clipPath><clipPath id="9"><path d="M0 -0.9000244L595.3 -0.9000244L595.3 -0.9000244L595.3 841L595.3 841L0 841z" /></clipPath><clipPath id="10"><path d="M0 -0.9000244L595.3 -0.9000244L595.3 -0.9000244L595.3 841L595.3 841L0 841z" /></clipPath><clipPath id="11"><path d="M-1638.4 375.9L2179.65 375.9L2179.65 375.9L2179.65 403.9L2179.65 403.9L-1638.4 403.9z" /></clipPath><clipPath id="12"><path d="M0 -0.9000244L595.3 -0.9000244L595.3 -0.9000244L595.3 841L595.3 841L0 841z" /></clipPath><clipPath id="13"><path d="M-1638.4 403.95L2179.65 403.95L2179.65 403.95L2179.65 431.95L2179.65 431.95L-1638.4 431.95z" /></clipPath><clipPath id="14"><path d="M0 -0.9000244L595.3 -0.9000244L595.3 -0.9000244L595.3 841L595.3 841L0 841z" /></clipPath><clipPath id="15"><path d="M-1638.4 431.95L2179.65 431.95L2179.65 431.95L2179.65 459.95L2179.65 459.95L-1638.4 459.95z" /></clipPath><clipPath id="16"><path d="M0 -0.9000244L595.3 -0.9000244L595.3 -0.9000244L595.3 841L595.3 841L0 841z" /></clipPath><clipPath id="17"><path d="M-1638.4 459.9L2179.65 459.9L2179.65 459.9L2179.65 487.9L2179.65 487.9L-1638.4 487.9z" /></clipPath><clipPath id="18"><path d="M0 -0.9000244L595.3 -0.9000244L595.3 -0.9000244L595.3 841L595.3 841L0 841z" /></clipPath></defs><g transform="matrix(1.333333 0 0 1.333333 0 0)"><g><g clip-path="url(#1)"><g clip-path="url(#2)"><g transform="matrix(0.3271429 0 0 0.3275676 55.56 34.5)"><g transform="matrix(1 0 0 1 0 0)"><image x="0" y="0" xlink:href="img_03.png" width="168" height="74" /></g></g><path transform="matrix(1 0 0 -1 0 841)" d="M54 778.4L523.3 778.4L523.3 778.4L523.3 777.6801L523.3 777.6801L54 777.6801z" stroke="none" fill="#000000" fill-rule="evenodd" /></g><g clip-path="url(#3)"><g clip-path="url(#4)"></g></g><g clip-path="url(#5)"><g clip-path="url(#6)"></g></g><g clip-path="url(#7)"><g clip-path="url(#8)"></g></g><g clip-path="url(#9)"><g transform="matrix(0.4797546 0 0 0.4793163 63.6 129.42)"><g transform="matrix(1 0 0 1 0 0)"><image x="0" y="0" xlink:href="img_11.png" width="489" height="351" /></g></g><g transform="matrix(0.3805893 0 0 0.3805869 311.16 129.42)"><g transform="matrix(1 0 0 1 0 0)"><image x="0" y="0" xlink:href="img_12.png" width="577" height="443" /></g></g></g><g clip-path="url(#10)"><g clip-path="url(#11)"></g></g><g clip-path="url(#12)"><g clip-path="url(#13)"></g></g><g clip-path="url(#14)"><g clip-path="url(#15)"></g></g><g clip-path="url(#16)"><g clip-path="url(#17)"></g></g><g clip-path="url(#18)"><g transform="matrix(0.32737 0 0 0.3276117 78.12 490.9799)"><g transform="matrix(1 0 0 1 0 0)"><image x="0" y="0" xlink:href="img_13.png" width="673" height="515" /></g></g><g transform="matrix(0.3332751 0 0 0.3326112 309.6 487.98)"><g transform="matrix(1 0 0 1 0 0)"><image x="0" y="0" xlink:href="img_14.png" width="687" height="517" /></g></g><path transform="matrix(1 0 0 -1 0 841)" d="M463.92 482.62L462.24 478.06L462.24 478.06L457.08 478.06L457.08 478.06L461.28 475.18L461.28 475.18L459.72 470.62L459.72 470.62L463.92 473.38L463.92 473.38L468 470.62L468 470.62L466.44 475.18L466.44 475.18L470.76 478.06L470.76 478.06L465.48 478.06L465.48 478.06L463.92 482.62" stroke="none" fill="#FF0000" fill-rule="evenodd" /><path transform="matrix(1 0 0 -1 0 841)" d="M463.875 483.794L465.822 478.185L465.822 478.185L465.467 478.437L465.467 478.437L471.929 478.437L471.929 478.437L466.663 474.892L466.663 474.892L466.807 475.327L466.807 475.327L468.77 469.715L468.77 469.715L463.667 473.127L463.667 473.127L464.083 473.127L464.083 473.127L458.98 469.715L458.98 469.715L460.943 475.327L460.943 475.327L461.087 474.892L461.087 474.892L455.821 478.437L455.821 478.437L462.283 478.437L462.283 478.437L461.928 478.185L461.928 478.185L463.875 483.794M462.549 477.687L457.05 477.687L457.05 477.687L457.259 478.373L457.259 478.373L461.746 475.352L461.746 475.352L460.058 470.526L460.058 470.526L459.496 470.962L459.496 470.962L463.875 473.889L463.875 473.889L468.254 470.962L468.254 470.962L467.692 470.526L467.692 470.526L466.004 475.352L466.004 475.352L470.491 478.373L470.491 478.373L470.7 477.687L470.7 477.687L465.201 477.687L465.201 477.687L463.521 482.527L463.521 482.527L464.229 482.527L464.229 482.527L462.549 477.687z" stroke="none" fill="#FF0000" fill-rule="winding" /><path transform="matrix(1 0 0 -1 0 841)" d="M482.52 482.26L480.84 477.7L480.84 477.7L475.68 477.7L475.68 477.7L479.88 474.82L479.88 474.82L478.32 470.26L478.32 470.26L482.52 473.02L482.52 473.02L486.6 470.26L486.6 470.26L485.04 474.82L485.04 474.82L489.36 477.7L489.36 477.7L484.08 477.7L484.08 477.7L482.52 482.26" stroke="none" fill="#FF0000" fill-rule="evenodd" /><path transform="matrix(1 0 0 -1 0 841)" d="M482.475 483.394L484.422 477.785L484.422 477.785L484.068 478.037L484.068 478.037L490.529 478.037L490.529 478.037L485.263 474.492L485.263 474.492L485.407 474.927L485.407 474.927L487.37 469.315L487.37 469.315L482.267 472.727L482.267 472.727L482.683 472.727L482.683 472.727L477.58 469.315L477.58 469.315L479.543 474.927L479.543 474.927L479.687 474.492L479.687 474.492L474.421 478.037L474.421 478.037L480.883 478.037L480.883 478.037L480.528 477.785L480.528 477.785L482.475 483.394M481.149 477.287L475.65 477.287L475.65 477.287L475.859 477.973L475.859 477.973L480.346 474.952L480.346 474.952L478.658 470.126L478.658 470.126L478.096 470.562L478.096 470.562L482.475 473.489L482.475 473.489L486.854 470.562L486.854 470.562L486.292 470.126L486.292 470.126L484.604 474.952L484.604 474.952L489.091 477.973L489.091 477.973L489.3 477.287L489.3 477.287L483.801 477.287L483.801 477.287L482.121 482.127L482.121 482.127L482.829 482.127L482.829 482.127L481.149 477.287z" stroke="none" fill="#FF0000" fill-rule="winding" /><path transform="matrix(1 0 0 -1 0 841)" d="M500.52 482.62L498.84 478.06L498.84 478.06L493.68 478.06L493.68 478.06L497.88 475.18L497.88 475.18L496.32 470.62L496.32 470.62L500.52 473.38L500.52 473.38L504.6 470.62L504.6 470.62L503.04 475.18L503.04 475.18L507.36 478.06L507.36 478.06L502.08 478.06L502.08 478.06L500.52 482.62" stroke="none" fill="#FF0000" fill-rule="evenodd" /><path transform="matrix(1 0 0 -1 0 841)" d="M500.475 483.794L502.422 478.185L502.422 478.185L502.068 478.437L502.068 478.437L508.529 478.437L508.529 478.437L503.263 474.892L503.263 474.892L503.407 475.327L503.407 475.327L505.37 469.715L505.37 469.715L500.267 473.127L500.267 473.127L500.683 473.127L500.683 473.127L495.58 469.715L495.58 469.715L497.543 475.327L497.543 475.327L497.687 474.892L497.687 474.892L492.421 478.437L492.421 478.437L498.883 478.437L498.883 478.437L498.528 478.185L498.528 478.185L500.475 483.794M499.149 477.687L493.65 477.687L493.65 477.687L493.859 478.373L493.859 478.373L498.346 475.352L498.346 475.352L496.658 470.526L496.658 470.526L496.096 470.962L496.096 470.962L500.475 473.889L500.475 473.889L504.854 470.962L504.854 470.962L504.292 470.526L504.292 470.526L502.604 475.352L502.604 475.352L507.091 478.373L507.091 478.373L507.3 477.687L507.3 477.687L501.801 477.687L501.801 477.687L500.121 482.527L500.121 482.527L500.829 482.527L500.829 482.527L499.149 477.687z" stroke="none" fill="#FF0000" fill-rule="winding" /><path transform="matrix(1 0 0 -1 0 841)" d="M519.12 482.26L517.44 477.7L517.44 477.7L512.28 477.7L512.28 477.7L516.48 474.82L516.48 474.82L514.92 470.26L514.92 470.26L519.12 473.02L519.12 473.02L523.2 470.26L523.2 470.26L521.64 474.82L521.64 474.82L525.96 477.7L525.96 477.7L520.68 477.7L520.68 477.7L519.12 482.26" stroke="none" fill="#FF0000" fill-rule="evenodd" /><path transform="matrix(1 0 0 -1 0 841)" d="M519.075 483.394L521.022 477.785L521.022 477.785L520.667 478.037L520.667 478.037L527.129 478.037L527.129 478.037L521.863 474.492L521.863 474.492L522.007 474.927L522.007 474.927L523.97 469.315L523.97 469.315L518.867 472.727L518.867 472.727L519.283 472.727L519.283 472.727L514.18 469.315L514.18 469.315L516.143 474.927L516.143 474.927L516.287 474.492L516.287 474.492L511.021 478.037L511.021 478.037L517.482 478.037L517.482 478.037L517.128 477.785L517.128 477.785L519.075 483.394M517.749 477.287L512.25 477.287L512.25 477.287L512.459 477.973L512.459 477.973L516.946 474.952L516.946 474.952L515.258 470.126L515.258 470.126L514.696 470.562L514.696 470.562L519.075 473.489L519.075 473.489L523.454 470.562L523.454 470.562L522.892 470.126L522.892 470.126L521.204 474.952L521.204 474.952L525.691 477.973L525.691 477.973L525.9 477.287L525.9 477.287L520.401 477.287L520.401 477.287L518.721 482.127L518.721 482.127L519.429 482.127L519.429 482.127L517.749 477.287z" stroke="none" fill="#FF0000" fill-rule="winding" /></g></g></g></g></svg>