<svg xmlns="http://www.w3.org/2000/svg" xmlns:xlink="http://www.w3.org/1999/xlink" id="body_9" preserveAspectRatio="xMinYMin meet" viewBox="0 0 793 1121"><defs><clipPath id="1"><path d="M0 841L0 -0.9000244L0 -0.9000244L595.3 -0.9000244L595.3 -0.9000244L595.3 841L595.3 841L0 841z" /></clipPath><clipPath id="2"><path d="M0 -0.9000244L595.3 -0.9000244L595.3 -0.9000244L595.3 841L595.3 841L0 841z" /></clipPath><clipPath id="3"><path d="M0 -0.9000244L595.3 -0.9000244L595.3 -0.9000244L595.3 841L595.3 841L0 841z" /></clipPath><clipPath id="4"><path d="M295.2 763.05L300.1 763.05L300.1 763.05L300.1 783.9L300.1 783.9L295.2 783.9z" /></clipPath><clipPath id="5"><path d="M0 -0.9000244L595.3 -0.9000244L595.3 -0.9000244L595.3 841L595.3 841L0 841z" /></clipPath><clipPath id="6"><path d="M26.75 73.39996L50.8 73.39996L50.8 73.39996L50.8 131.55L50.8 131.55L26.75 131.55z" /></clipPath><clipPath id="7"><path d="M0 -0.9000244L595.3 -0.9000244L595.3 -0.9000244L595.3 841L595.3 841L0 841z" /></clipPath><clipPath id="8"><path d="M50.75 73.39996L107.05 73.39996L107.05 73.39996L107.05 131.55L107.05 131.55L50.75 131.55z" /></clipPath><clipPath id="9"><path d="M0 -0.9000244L595.3 -0.9000244L595.3 -0.9000244L595.3 841L595.3 841L0 841z" /></clipPath><clipPath id="10"><path d="M107 73.39996L155.8 73.39996L155.8 73.39996L155.8 131.55L155.8 131.55L107 131.55z" /></clipPath><clipPath id="11"><path d="M0 -0.9000244L595.3 -0.9000244L595.3 -0.9000244L595.3 841L595.3 841L0 841z" /></clipPath><clipPath id="12"><path d="M155.75 73.39996L203.05 73.39996L203.05 73.39996L203.05 131.55L203.05 131.55L155.75 131.55z" /></clipPath><clipPath id="13"><path d="M0 -0.9000244L595.3 -0.9000244L595.3 -0.9000244L595.3 841L595.3 841L0 841z" /></clipPath><clipPath id="14"><path d="M203 73.39996L253.3 73.39996L253.3 73.39996L253.3 131.55L253.3 131.55L203 131.55z" /></clipPath><clipPath id="15"><path d="M0 -0.9000244L595.3 -0.9000244L595.3 -0.9000244L595.3 841L595.3 841L0 841z" /></clipPath><clipPath id="16"><path d="M253.25 73.39996L294.55 73.39996L294.55 73.39996L294.55 131.55L294.55 131.55L253.25 131.55z" /></clipPath><clipPath id="17"><path d="M0 -0.9000244L595.3 -0.9000244L595.3 -0.9000244L595.3 841L595.3 841L0 841z" /></clipPath><clipPath id="18"><path d="M294.5 73.39996L342.55 73.39996L342.55 73.39996L342.55 131.55L342.55 131.55L294.5 131.55z" /></clipPath><clipPath id="19"><path d="M0 -0.9000244L595.3 -0.9000244L595.3 -0.9000244L595.3 841L595.3 841L0 841z" /></clipPath><clipPath id="20"><path d="M342.5 73.39996L397.3 73.39996L397.3 73.39996L397.3 131.55L397.3 131.55L342.5 131.55z" /></clipPath><clipPath id="21"><path d="M0 -0.9000244L595.3 -0.9000244L595.3 -0.9000244L595.3 841L595.3 841L0 841z" /></clipPath><clipPath id="22"><path d="M397.25 73.39996L455.05 73.39996L455.05 73.39996L455.05 131.55L455.05 131.55L397.25 131.55z" /></clipPath><clipPath id="23"><path d="M0 -0.9000244L595.3 -0.9000244L595.3 -0.9000244L595.3 841L595.3 841L0 841z" /></clipPath><clipPath id="24"><path d="M455 73.39996L512.05 73.39996L512.05 73.39996L512.05 131.55L512.05 131.55L455 131.55z" /></clipPath><clipPath id="25"><path d="M0 -0.9000244L595.3 -0.9000244L595.3 -0.9000244L595.3 841L595.3 841L0 841z" /></clipPath><clipPath id="26"><path d="M512 73.39996L567.55 73.39996L567.55 73.39996L567.55 131.55L567.55 131.55L512 131.55z" /></clipPath><clipPath id="27"><path d="M0 -0.9000244L595.3 -0.9000244L595.3 -0.9000244L595.3 841L595.3 841L0 841z" /></clipPath><clipPath id="28"><path d="M26.75 131.55L50.8 131.55L50.8 131.55L50.8 177.05L50.8 177.05L26.75 177.05z" /></clipPath><clipPath id="29"><path d="M0 -0.9000244L595.3 -0.9000244L595.3 -0.9000244L595.3 841L595.3 841L0 841z" /></clipPath><clipPath id="30"><path d="M50.75 131.55L107.05 131.55L107.05 131.55L107.05 177.05L107.05 177.05L50.75 177.05z" /></clipPath><clipPath id="31"><path d="M0 -0.9000244L595.3 -0.9000244L595.3 -0.9000244L595.3 841L595.3 841L0 841z" /></clipPath><clipPath id="32"><path d="M107 131.55L155.8 131.55L155.8 131.55L155.8 177.05L155.8 177.05L107 177.05z" /></clipPath><clipPath id="33"><path d="M0 -0.9000244L595.3 -0.9000244L595.3 -0.9000244L595.3 841L595.3 841L0 841z" /></clipPath><clipPath id="34"><path d="M155.75 131.55L203.05 131.55L203.05 131.55L203.05 177.05L203.05 177.05L155.75 177.05z" /></clipPath><clipPath id="35"><path d="M0 -0.9000244L595.3 -0.9000244L595.3 -0.9000244L595.3 841L595.3 841L0 841z" /></clipPath><clipPath id="36"><path d="M203 131.55L253.3 131.55L253.3 131.55L253.3 177.05L253.3 177.05L203 177.05z" /></clipPath><clipPath id="37"><path d="M0 -0.9000244L595.3 -0.9000244L595.3 -0.9000244L595.3 841L595.3 841L0 841z" /></clipPath><clipPath id="38"><path d="M253.25 131.55L294.55 131.55L294.55 131.55L294.55 177.05L294.55 177.05L253.25 177.05z" /></clipPath><clipPath id="39"><path d="M0 -0.9000244L595.3 -0.9000244L595.3 -0.9000244L595.3 841L595.3 841L0 841z" /></clipPath><clipPath id="40"><path d="M294.5 131.55L342.55 131.55L342.55 131.55L342.55 177.05L342.55 177.05L294.5 177.05z" /></clipPath><clipPath id="41"><path d="M0 -0.9000244L595.3 -0.9000244L595.3 -0.9000244L595.3 841L595.3 841L0 841z" /></clipPath><clipPath id="42"><path d="M342.5 131.55L397.3 131.55L397.3 131.55L397.3 177.05L397.3 177.05L342.5 177.05z" /></clipPath><clipPath id="43"><path d="M0 -0.9000244L595.3 -0.9000244L595.3 -0.9000244L595.3 841L595.3 841L0 841z" /></clipPath><clipPath id="44"><path d="M397.25 131.55L455.05 131.55L455.05 131.55L455.05 177.05L455.05 177.05L397.25 177.05z" /></clipPath><clipPath id="45"><path d="M0 -0.9000244L595.3 -0.9000244L595.3 -0.9000244L595.3 841L595.3 841L0 841z" /></clipPath><clipPath id="46"><path d="M455 131.55L512.05 131.55L512.05 131.55L512.05 177.05L512.05 177.05L455 177.05z" /></clipPath><clipPath id="47"><path d="M0 -0.9000244L595.3 -0.9000244L595.3 -0.9000244L595.3 841L595.3 841L0 841z" /></clipPath><clipPath id="48"><path d="M512 131.55L567.55 131.55L567.55 131.55L567.55 177.05L567.55 177.05L512 177.05z" /></clipPath><clipPath id="49"><path d="M0 -0.9000244L595.3 -0.9000244L595.3 -0.9000244L595.3 841L595.3 841L0 841z" /></clipPath><clipPath id="50"><path d="M26.75 177.1L50.8 177.1L50.8 177.1L50.8 257.6L50.8 257.6L26.75 257.6z" /></clipPath><clipPath id="51"><path d="M0 -0.9000244L595.3 -0.9000244L595.3 -0.9000244L595.3 841L595.3 841L0 841z" /></clipPath><clipPath id="52"><path d="M50.75 177.1L107.05 177.1L107.05 177.1L107.05 257.6L107.05 257.6L50.75 257.6z" /></clipPath><clipPath id="53"><path d="M0 -0.9000244L595.3 -0.9000244L595.3 -0.9000244L595.3 841L595.3 841L0 841z" /></clipPath><clipPath id="54"><path d="M107 177.1L155.8 177.1L155.8 177.1L155.8 257.6L155.8 257.6L107 257.6z" /></clipPath><clipPath id="55"><path d="M0 -0.9000244L595.3 -0.9000244L595.3 -0.9000244L595.3 841L595.3 841L0 841z" /></clipPath><clipPath id="56"><path d="M155.75 177.1L203.05 177.1L203.05 177.1L203.05 257.6L203.05 257.6L155.75 257.6z" /></clipPath><clipPath id="57"><path d="M0 -0.9000244L595.3 -0.9000244L595.3 -0.9000244L595.3 841L595.3 841L0 841z" /></clipPath><clipPath id="58"><path d="M203 177.1L253.3 177.1L253.3 177.1L253.3 257.6L253.3 257.6L203 257.6z" /></clipPath><clipPath id="59"><path d="M0 -0.9000244L595.3 -0.9000244L595.3 -0.9000244L595.3 841L595.3 841L0 841z" /></clipPath><clipPath id="60"><path d="M253.25 177.1L294.55 177.1L294.55 177.1L294.55 257.6L294.55 257.6L253.25 257.6z" /></clipPath><clipPath id="61"><path d="M0 -0.9000244L595.3 -0.9000244L595.3 -0.9000244L595.3 841L595.3 841L0 841z" /></clipPath><clipPath id="62"><path d="M294.5 177.1L342.55 177.1L342.55 177.1L342.55 257.6L342.55 257.6L294.5 257.6z" /></clipPath><clipPath id="63"><path d="M0 -0.9000244L595.3 -0.9000244L595.3 -0.9000244L595.3 841L595.3 841L0 841z" /></clipPath><clipPath id="64"><path d="M342.5 177.1L397.3 177.1L397.3 177.1L397.3 257.6L397.3 257.6L342.5 257.6z" /></clipPath><clipPath id="65"><path d="M0 -0.9000244L595.3 -0.9000244L595.3 -0.9000244L595.3 841L595.3 841L0 841z" /></clipPath><clipPath id="66"><path d="M397.25 177.1L455.05 177.1L455.05 177.1L455.05 257.6L455.05 257.6L397.25 257.6z" /></clipPath><clipPath id="67"><path d="M0 -0.9000244L595.3 -0.9000244L595.3 -0.9000244L595.3 841L595.3 841L0 841z" /></clipPath><clipPath id="68"><path d="M455 177.1L512.05 177.1L512.05 177.1L512.05 257.6L512.05 257.6L455 257.6z" /></clipPath><clipPath id="69"><path d="M0 -0.9000244L595.3 -0.9000244L595.3 -0.9000244L595.3 841L595.3 841L0 841z" /></clipPath><clipPath id="70"><path d="M512 177.1L567.55 177.1L567.55 177.1L567.55 257.6L567.55 257.6L512 257.6z" /></clipPath><clipPath id="71"><path d="M0 -0.9000244L595.3 -0.9000244L595.3 -0.9000244L595.3 841L595.3 841L0 841z" /></clipPath><clipPath id="72"><path d="M26.75 257.6L50.8 257.6L50.8 257.6L50.8 338.1L50.8 338.1L26.75 338.1z" /></clipPath><clipPath id="73"><path d="M0 -0.9000244L595.3 -0.9000244L595.3 -0.9000244L595.3 841L595.3 841L0 841z" /></clipPath><clipPath id="74"><path d="M50.75 257.6L107.05 257.6L107.05 257.6L107.05 338.1L107.05 338.1L50.75 338.1z" /></clipPath><clipPath id="75"><path d="M0 -0.9000244L595.3 -0.9000244L595.3 -0.9000244L595.3 841L595.3 841L0 841z" /></clipPath><clipPath id="76"><path d="M107 257.6L155.8 257.6L155.8 257.6L155.8 338.1L155.8 338.1L107 338.1z" /></clipPath><clipPath id="77"><path d="M0 -0.9000244L595.3 -0.9000244L595.3 -0.9000244L595.3 841L595.3 841L0 841z" /></clipPath><clipPath id="78"><path d="M155.75 257.6L203.05 257.6L203.05 257.6L203.05 338.1L203.05 338.1L155.75 338.1z" /></clipPath><clipPath id="79"><path d="M0 -0.9000244L595.3 -0.9000244L595.3 -0.9000244L595.3 841L595.3 841L0 841z" /></clipPath><clipPath id="80"><path d="M203 257.6L253.3 257.6L253.3 257.6L253.3 338.1L253.3 338.1L203 338.1z" /></clipPath><clipPath id="81"><path d="M0 -0.9000244L595.3 -0.9000244L595.3 -0.9000244L595.3 841L595.3 841L0 841z" /></clipPath><clipPath id="82"><path d="M253.25 257.6L294.55 257.6L294.55 257.6L294.55 338.1L294.55 338.1L253.25 338.1z" /></clipPath><clipPath id="83"><path d="M0 -0.9000244L595.3 -0.9000244L595.3 -0.9000244L595.3 841L595.3 841L0 841z" /></clipPath><clipPath id="84"><path d="M294.5 257.6L342.55 257.6L342.55 257.6L342.55 338.1L342.55 338.1L294.5 338.1z" /></clipPath><clipPath id="85"><path d="M0 -0.9000244L595.3 -0.9000244L595.3 -0.9000244L595.3 841L595.3 841L0 841z" /></clipPath><clipPath id="86"><path d="M342.5 257.6L397.3 257.6L397.3 257.6L397.3 338.1L397.3 338.1L342.5 338.1z" /></clipPath><clipPath id="87"><path d="M0 -0.9000244L595.3 -0.9000244L595.3 -0.9000244L595.3 841L595.3 841L0 841z" /></clipPath><clipPath id="88"><path d="M397.25 257.6L455.05 257.6L455.05 257.6L455.05 338.1L455.05 338.1L397.25 338.1z" /></clipPath><clipPath id="89"><path d="M0 -0.9000244L595.3 -0.9000244L595.3 -0.9000244L595.3 841L595.3 841L0 841z" /></clipPath><clipPath id="90"><path d="M455 257.6L512.05 257.6L512.05 257.6L512.05 338.1L512.05 338.1L455 338.1z" /></clipPath><clipPath id="91"><path d="M0 -0.9000244L595.3 -0.9000244L595.3 -0.9000244L595.3 841L595.3 841L0 841z" /></clipPath><clipPath id="92"><path d="M512 257.6L567.55 257.6L567.55 257.6L567.55 338.1L567.55 338.1L512 338.1z" /></clipPath><clipPath id="93"><path d="M0 -0.9000244L595.3 -0.9000244L595.3 -0.9000244L595.3 841L595.3 841L0 841z" /></clipPath><clipPath id="94"><path d="M26.75 338.15L50.8 338.15L50.8 338.15L50.8 387.05L50.8 387.05L26.75 387.05z" /></clipPath><clipPath id="95"><path d="M0 -0.9000244L595.3 -0.9000244L595.3 -0.9000244L595.3 841L595.3 841L0 841z" /></clipPath><clipPath id="96"><path d="M50.75 338.15L107.05 338.15L107.05 338.15L107.05 387.05L107.05 387.05L50.75 387.05z" /></clipPath><clipPath id="97"><path d="M0 -0.9000244L595.3 -0.9000244L595.3 -0.9000244L595.3 841L595.3 841L0 841z" /></clipPath><clipPath id="98"><path d="M107 338.15L155.8 338.15L155.8 338.15L155.8 387.05L155.8 387.05L107 387.05z" /></clipPath><clipPath id="99"><path d="M0 -0.9000244L595.3 -0.9000244L595.3 -0.9000244L595.3 841L595.3 841L0 841z" /></clipPath><clipPath id="100"><path d="M155.75 338.15L203.05 338.15L203.05 338.15L203.05 387.05L203.05 387.05L155.75 387.05z" /></clipPath><clipPath id="101"><path d="M0 -0.9000244L595.3 -0.9000244L595.3 -0.9000244L595.3 841L595.3 841L0 841z" /></clipPath><clipPath id="102"><path d="M203 338.15L253.3 338.15L253.3 338.15L253.3 387.05L253.3 387.05L203 387.05z" /></clipPath><clipPath id="103"><path d="M0 -0.9000244L595.3 -0.9000244L595.3 -0.9000244L595.3 841L595.3 841L0 841z" /></clipPath><clipPath id="104"><path d="M253.25 338.15L294.55 338.15L294.55 338.15L294.55 387.05L294.55 387.05L253.25 387.05z" /></clipPath><clipPath id="105"><path d="M0 -0.9000244L595.3 -0.9000244L595.3 -0.9000244L595.3 841L595.3 841L0 841z" /></clipPath><clipPath id="106"><path d="M294.5 338.15L342.55 338.15L342.55 338.15L342.55 387.05L342.55 387.05L294.5 387.05z" /></clipPath><clipPath id="107"><path d="M0 -0.9000244L595.3 -0.9000244L595.3 -0.9000244L595.3 841L595.3 841L0 841z" /></clipPath><clipPath id="108"><path d="M342.5 338.15L397.3 338.15L397.3 338.15L397.3 387.05L397.3 387.05L342.5 387.05z" /></clipPath><clipPath id="109"><path d="M0 -0.9000244L595.3 -0.9000244L595.3 -0.9000244L595.3 841L595.3 841L0 841z" /></clipPath><clipPath id="110"><path d="M397.25 338.15L455.05 338.15L455.05 338.15L455.05 387.05L455.05 387.05L397.25 387.05z" /></clipPath><clipPath id="111"><path d="M0 -0.9000244L595.3 -0.9000244L595.3 -0.9000244L595.3 841L595.3 841L0 841z" /></clipPath><clipPath id="112"><path d="M455 338.15L512.05 338.15L512.05 338.15L512.05 387.05L512.05 387.05L455 387.05z" /></clipPath><clipPath id="113"><path d="M0 -0.9000244L595.3 -0.9000244L595.3 -0.9000244L595.3 841L595.3 841L0 841z" /></clipPath><clipPath id="114"><path d="M512 338.15L567.55 338.15L567.55 338.15L567.55 387.05L567.55 387.05L512 387.05z" /></clipPath><clipPath id="115"><path d="M0 -0.9000244L595.3 -0.9000244L595.3 -0.9000244L595.3 841L595.3 841L0 841z" /></clipPath><clipPath id="116"><path d="M26.75 387.05L50.8 387.05L50.8 387.05L50.8 444.2L50.8 444.2L26.75 444.2z" /></clipPath><clipPath id="117"><path d="M0 -0.9000244L595.3 -0.9000244L595.3 -0.9000244L595.3 841L595.3 841L0 841z" /></clipPath><clipPath id="118"><path d="M50.75 387.05L107.05 387.05L107.05 387.05L107.05 444.2L107.05 444.2L50.75 444.2z" /></clipPath><clipPath id="119"><path d="M0 -0.9000244L595.3 -0.9000244L595.3 -0.9000244L595.3 841L595.3 841L0 841z" /></clipPath><clipPath id="120"><path d="M107 387.05L155.8 387.05L155.8 387.05L155.8 444.2L155.8 444.2L107 444.2z" /></clipPath><clipPath id="121"><path d="M0 -0.9000244L595.3 -0.9000244L595.3 -0.9000244L595.3 841L595.3 841L0 841z" /></clipPath><clipPath id="122"><path d="M155.75 387.05L203.05 387.05L203.05 387.05L203.05 444.2L203.05 444.2L155.75 444.2z" /></clipPath><clipPath id="123"><path d="M0 -0.9000244L595.3 -0.9000244L595.3 -0.9000244L595.3 841L595.3 841L0 841z" /></clipPath><clipPath id="124"><path d="M203 387.05L253.3 387.05L253.3 387.05L253.3 444.2L253.3 444.2L203 444.2z" /></clipPath><clipPath id="125"><path d="M0 -0.9000244L595.3 -0.9000244L595.3 -0.9000244L595.3 841L595.3 841L0 841z" /></clipPath><clipPath id="126"><path d="M253.25 387.05L294.55 387.05L294.55 387.05L294.55 444.2L294.55 444.2L253.25 444.2z" /></clipPath><clipPath id="127"><path d="M0 -0.9000244L595.3 -0.9000244L595.3 -0.9000244L595.3 841L595.3 841L0 841z" /></clipPath><clipPath id="128"><path d="M294.5 387.05L342.55 387.05L342.55 387.05L342.55 444.2L342.55 444.2L294.5 444.2z" /></clipPath><clipPath id="129"><path d="M0 -0.9000244L595.3 -0.9000244L595.3 -0.9000244L595.3 841L595.3 841L0 841z" /></clipPath><clipPath id="130"><path d="M342.5 387.05L397.3 387.05L397.3 387.05L397.3 444.2L397.3 444.2L342.5 444.2z" /></clipPath><clipPath id="131"><path d="M0 -0.9000244L595.3 -0.9000244L595.3 -0.9000244L595.3 841L595.3 841L0 841z" /></clipPath><clipPath id="132"><path d="M397.25 387.05L455.05 387.05L455.05 387.05L455.05 444.2L455.05 444.2L397.25 444.2z" /></clipPath><clipPath id="133"><path d="M0 -0.9000244L595.3 -0.9000244L595.3 -0.9000244L595.3 841L595.3 841L0 841z" /></clipPath><clipPath id="134"><path d="M455 387.05L512.05 387.05L512.05 387.05L512.05 444.2L512.05 444.2L455 444.2z" /></clipPath><clipPath id="135"><path d="M0 -0.9000244L595.3 -0.9000244L595.3 -0.9000244L595.3 841L595.3 841L0 841z" /></clipPath><clipPath id="136"><path d="M512 387.05L567.55 387.05L567.55 387.05L567.55 444.2L567.55 444.2L512 444.2z" /></clipPath><clipPath id="137"><path d="M0 -0.9000244L595.3 -0.9000244L595.3 -0.9000244L595.3 841L595.3 841L0 841z" /></clipPath><clipPath id="138"><path d="M26.75 444.25L50.8 444.25L50.8 444.25L50.8 513.1L50.8 513.1L26.75 513.1z" /></clipPath><clipPath id="139"><path d="M0 -0.9000244L595.3 -0.9000244L595.3 -0.9000244L595.3 841L595.3 841L0 841z" /></clipPath><clipPath id="140"><path d="M50.75 444.25L107.05 444.25L107.05 444.25L107.05 513.1L107.05 513.1L50.75 513.1z" /></clipPath><clipPath id="141"><path d="M0 -0.9000244L595.3 -0.9000244L595.3 -0.9000244L595.3 841L595.3 841L0 841z" /></clipPath><clipPath id="142"><path d="M107 444.25L155.8 444.25L155.8 444.25L155.8 513.1L155.8 513.1L107 513.1z" /></clipPath><clipPath id="143"><path d="M0 -0.9000244L595.3 -0.9000244L595.3 -0.9000244L595.3 841L595.3 841L0 841z" /></clipPath><clipPath id="144"><path d="M155.75 444.25L203.05 444.25L203.05 444.25L203.05 513.1L203.05 513.1L155.75 513.1z" /></clipPath><clipPath id="145"><path d="M0 -0.9000244L595.3 -0.9000244L595.3 -0.9000244L595.3 841L595.3 841L0 841z" /></clipPath><clipPath id="146"><path d="M203 444.25L253.3 444.25L253.3 444.25L253.3 513.1L253.3 513.1L203 513.1z" /></clipPath><clipPath id="147"><path d="M0 -0.9000244L595.3 -0.9000244L595.3 -0.9000244L595.3 841L595.3 841L0 841z" /></clipPath><clipPath id="148"><path d="M253.25 444.25L294.55 444.25L294.55 444.25L294.55 513.1L294.55 513.1L253.25 513.1z" /></clipPath><clipPath id="149"><path d="M0 -0.9000244L595.3 -0.9000244L595.3 -0.9000244L595.3 841L595.3 841L0 841z" /></clipPath><clipPath id="150"><path d="M294.5 444.25L342.55 444.25L342.55 444.25L342.55 513.1L342.55 513.1L294.5 513.1z" /></clipPath><clipPath id="151"><path d="M0 -0.9000244L595.3 -0.9000244L595.3 -0.9000244L595.3 841L595.3 841L0 841z" /></clipPath><clipPath id="152"><path d="M342.5 444.25L397.3 444.25L397.3 444.25L397.3 513.1L397.3 513.1L342.5 513.1z" /></clipPath><clipPath id="153"><path d="M0 -0.9000244L595.3 -0.9000244L595.3 -0.9000244L595.3 841L595.3 841L0 841z" /></clipPath><clipPath id="154"><path d="M397.25 444.25L455.05 444.25L455.05 444.25L455.05 513.1L455.05 513.1L397.25 513.1z" /></clipPath><clipPath id="155"><path d="M0 -0.9000244L595.3 -0.9000244L595.3 -0.9000244L595.3 841L595.3 841L0 841z" /></clipPath><clipPath id="156"><path d="M455 444.25L512.05 444.25L512.05 444.25L512.05 513.1L512.05 513.1L455 513.1z" /></clipPath><clipPath id="157"><path d="M0 -0.9000244L595.3 -0.9000244L595.3 -0.9000244L595.3 841L595.3 841L0 841z" /></clipPath><clipPath id="158"><path d="M512 444.25L567.55 444.25L567.55 444.25L567.55 513.1L567.55 513.1L512 513.1z" /></clipPath><clipPath id="159"><path d="M0 -0.9000244L595.3 -0.9000244L595.3 -0.9000244L595.3 841L595.3 841L0 841z" /></clipPath><clipPath id="160"><path d="M26.75 513.1L50.8 513.1L50.8 513.1L50.8 581.95L50.8 581.95L26.75 581.95z" /></clipPath><clipPath id="161"><path d="M0 -0.9000244L595.3 -0.9000244L595.3 -0.9000244L595.3 841L595.3 841L0 841z" /></clipPath><clipPath id="162"><path d="M50.75 513.1L107.05 513.1L107.05 513.1L107.05 581.95L107.05 581.95L50.75 581.95z" /></clipPath><clipPath id="163"><path d="M0 -0.9000244L595.3 -0.9000244L595.3 -0.9000244L595.3 841L595.3 841L0 841z" /></clipPath><clipPath id="164"><path d="M107 513.1L155.8 513.1L155.8 513.1L155.8 581.95L155.8 581.95L107 581.95z" /></clipPath><clipPath id="165"><path d="M0 -0.9000244L595.3 -0.9000244L595.3 -0.9000244L595.3 841L595.3 841L0 841z" /></clipPath><clipPath id="166"><path d="M155.75 513.1L203.05 513.1L203.05 513.1L203.05 581.95L203.05 581.95L155.75 581.95z" /></clipPath><clipPath id="167"><path d="M0 -0.9000244L595.3 -0.9000244L595.3 -0.9000244L595.3 841L595.3 841L0 841z" /></clipPath><clipPath id="168"><path d="M203 513.1L253.3 513.1L253.3 513.1L253.3 581.95L253.3 581.95L203 581.95z" /></clipPath><clipPath id="169"><path d="M0 -0.9000244L595.3 -0.9000244L595.3 -0.9000244L595.3 841L595.3 841L0 841z" /></clipPath><clipPath id="170"><path d="M253.25 513.1L294.55 513.1L294.55 513.1L294.55 581.95L294.55 581.95L253.25 581.95z" /></clipPath><clipPath id="171"><path d="M0 -0.9000244L595.3 -0.9000244L595.3 -0.9000244L595.3 841L595.3 841L0 841z" /></clipPath><clipPath id="172"><path d="M294.5 513.1L342.55 513.1L342.55 513.1L342.55 581.95L342.55 581.95L294.5 581.95z" /></clipPath><clipPath id="173"><path d="M0 -0.9000244L595.3 -0.9000244L595.3 -0.9000244L595.3 841L595.3 841L0 841z" /></clipPath><clipPath id="174"><path d="M342.5 513.1L397.3 513.1L397.3 513.1L397.3 581.95L397.3 581.95L342.5 581.95z" /></clipPath><clipPath id="175"><path d="M0 -0.9000244L595.3 -0.9000244L595.3 -0.9000244L595.3 841L595.3 841L0 841z" /></clipPath><clipPath id="176"><path d="M397.25 513.1L455.05 513.1L455.05 513.1L455.05 581.95L455.05 581.95L397.25 581.95z" /></clipPath><clipPath id="177"><path d="M0 -0.9000244L595.3 -0.9000244L595.3 -0.9000244L595.3 841L595.3 841L0 841z" /></clipPath><clipPath id="178"><path d="M455 513.1L512.05 513.1L512.05 513.1L512.05 581.95L512.05 581.95L455 581.95z" /></clipPath><clipPath id="179"><path d="M0 -0.9000244L595.3 -0.9000244L595.3 -0.9000244L595.3 841L595.3 841L0 841z" /></clipPath><clipPath id="180"><path d="M512 513.1L567.55 513.1L567.55 513.1L567.55 581.95L567.55 581.95L512 581.95z" /></clipPath><clipPath id="181"><path d="M0 -0.9000244L595.3 -0.9000244L595.3 -0.9000244L595.3 841L595.3 841L0 841z" /></clipPath><clipPath id="182"><path d="M26.75 581.95L50.8 581.95L50.8 581.95L50.8 639.1L50.8 639.1L26.75 639.1z" /></clipPath><clipPath id="183"><path d="M0 -0.9000244L595.3 -0.9000244L595.3 -0.9000244L595.3 841L595.3 841L0 841z" /></clipPath><clipPath id="184"><path d="M50.75 581.95L107.05 581.95L107.05 581.95L107.05 639.1L107.05 639.1L50.75 639.1z" /></clipPath><clipPath id="185"><path d="M0 -0.9000244L595.3 -0.9000244L595.3 -0.9000244L595.3 841L595.3 841L0 841z" /></clipPath><clipPath id="186"><path d="M107 581.95L155.8 581.95L155.8 581.95L155.8 639.1L155.8 639.1L107 639.1z" /></clipPath><clipPath id="187"><path d="M0 -0.9000244L595.3 -0.9000244L595.3 -0.9000244L595.3 841L595.3 841L0 841z" /></clipPath><clipPath id="188"><path d="M155.75 581.95L203.05 581.95L203.05 581.95L203.05 639.1L203.05 639.1L155.75 639.1z" /></clipPath><clipPath id="189"><path d="M0 -0.9000244L595.3 -0.9000244L595.3 -0.9000244L595.3 841L595.3 841L0 841z" /></clipPath><clipPath id="190"><path d="M203 581.95L253.3 581.95L253.3 581.95L253.3 639.1L253.3 639.1L203 639.1z" /></clipPath><clipPath id="191"><path d="M0 -0.9000244L595.3 -0.9000244L595.3 -0.9000244L595.3 841L595.3 841L0 841z" /></clipPath><clipPath id="192"><path d="M253.25 581.95L294.55 581.95L294.55 581.95L294.55 639.1L294.55 639.1L253.25 639.1z" /></clipPath><clipPath id="193"><path d="M0 -0.9000244L595.3 -0.9000244L595.3 -0.9000244L595.3 841L595.3 841L0 841z" /></clipPath><clipPath id="194"><path d="M294.5 581.95L342.55 581.95L342.55 581.95L342.55 639.1L342.55 639.1L294.5 639.1z" /></clipPath><clipPath id="195"><path d="M0 -0.9000244L595.3 -0.9000244L595.3 -0.9000244L595.3 841L595.3 841L0 841z" /></clipPath><clipPath id="196"><path d="M342.5 581.95L397.3 581.95L397.3 581.95L397.3 639.1L397.3 639.1L342.5 639.1z" /></clipPath><clipPath id="197"><path d="M0 -0.9000244L595.3 -0.9000244L595.3 -0.9000244L595.3 841L595.3 841L0 841z" /></clipPath><clipPath id="198"><path d="M397.25 581.95L455.05 581.95L455.05 581.95L455.05 639.1L455.05 639.1L397.25 639.1z" /></clipPath><clipPath id="199"><path d="M0 -0.9000244L595.3 -0.9000244L595.3 -0.9000244L595.3 841L595.3 841L0 841z" /></clipPath><clipPath id="200"><path d="M455 581.95L512.05 581.95L512.05 581.95L512.05 639.1L512.05 639.1L455 639.1z" /></clipPath><clipPath id="201"><path d="M0 -0.9000244L595.3 -0.9000244L595.3 -0.9000244L595.3 841L595.3 841L0 841z" /></clipPath><clipPath id="202"><path d="M512 581.95L567.55 581.95L567.55 581.95L567.55 639.1L567.55 639.1L512 639.1z" /></clipPath><clipPath id="203"><path d="M0 -0.9000244L595.3 -0.9000244L595.3 -0.9000244L595.3 841L595.3 841L0 841z" /></clipPath><clipPath id="204"><path d="M26.75 639.15L50.8 639.15L50.8 639.15L50.8 686.2L50.8 686.2L26.75 686.2z" /></clipPath><clipPath id="205"><path d="M0 -0.9000244L595.3 -0.9000244L595.3 -0.9000244L595.3 841L595.3 841L0 841z" /></clipPath><clipPath id="206"><path d="M50.75 639.15L107.05 639.15L107.05 639.15L107.05 686.2L107.05 686.2L50.75 686.2z" /></clipPath><clipPath id="207"><path d="M0 -0.9000244L595.3 -0.9000244L595.3 -0.9000244L595.3 841L595.3 841L0 841z" /></clipPath><clipPath id="208"><path d="M107 639.15L155.8 639.15L155.8 639.15L155.8 686.2L155.8 686.2L107 686.2z" /></clipPath><clipPath id="209"><path d="M0 -0.9000244L595.3 -0.9000244L595.3 -0.9000244L595.3 841L595.3 841L0 841z" /></clipPath><clipPath id="210"><path d="M155.75 639.15L203.05 639.15L203.05 639.15L203.05 686.2L203.05 686.2L155.75 686.2z" /></clipPath><clipPath id="211"><path d="M0 -0.9000244L595.3 -0.9000244L595.3 -0.9000244L595.3 841L595.3 841L0 841z" /></clipPath><clipPath id="212"><path d="M203 639.15L253.3 639.15L253.3 639.15L253.3 686.2L253.3 686.2L203 686.2z" /></clipPath><clipPath id="213"><path d="M0 -0.9000244L595.3 -0.9000244L595.3 -0.9000244L595.3 841L595.3 841L0 841z" /></clipPath><clipPath id="214"><path d="M253.25 639.15L294.55 639.15L294.55 639.15L294.55 686.2L294.55 686.2L253.25 686.2z" /></clipPath><clipPath id="215"><path d="M0 -0.9000244L595.3 -0.9000244L595.3 -0.9000244L595.3 841L595.3 841L0 841z" /></clipPath><clipPath id="216"><path d="M294.5 639.15L342.55 639.15L342.55 639.15L342.55 686.2L342.55 686.2L294.5 686.2z" /></clipPath><clipPath id="217"><path d="M0 -0.9000244L595.3 -0.9000244L595.3 -0.9000244L595.3 841L595.3 841L0 841z" /></clipPath><clipPath id="218"><path d="M342.5 639.15L397.3 639.15L397.3 639.15L397.3 686.2L397.3 686.2L342.5 686.2z" /></clipPath><clipPath id="219"><path d="M0 -0.9000244L595.3 -0.9000244L595.3 -0.9000244L595.3 841L595.3 841L0 841z" /></clipPath><clipPath id="220"><path d="M397.25 639.15L455.05 639.15L455.05 639.15L455.05 686.2L455.05 686.2L397.25 686.2z" /></clipPath><clipPath id="221"><path d="M0 -0.9000244L595.3 -0.9000244L595.3 -0.9000244L595.3 841L595.3 841L0 841z" /></clipPath><clipPath id="222"><path d="M455 639.15L512.05 639.15L512.05 639.15L512.05 686.2L512.05 686.2L455 686.2z" /></clipPath><clipPath id="223"><path d="M0 -0.9000244L595.3 -0.9000244L595.3 -0.9000244L595.3 841L595.3 841L0 841z" /></clipPath><clipPath id="224"><path d="M512 639.15L567.55 639.15L567.55 639.15L567.55 686.2L567.55 686.2L512 686.2z" /></clipPath><clipPath id="225"><path d="M0 -0.9000244L595.3 -0.9000244L595.3 -0.9000244L595.3 841L595.3 841L0 841z" /></clipPath></defs><g transform="matrix(1.333333 0 0 1.333333 0 0)"><g><g clip-path="url(#1)"><g clip-path="url(#2)"><g transform="matrix(0.3271429 0 0 0.3275676 55.56 34.5)"><g transform="matrix(1 0 0 1 0 0)"><image x="0" y="0" xlink:href="img_03.png" width="168" height="74" /></g></g><path transform="matrix(1 0 0 -1 0 841)" d="M54 778.4L523.3 778.4L523.3 778.4L523.3 777.6801L523.3 777.6801L54 777.6801z" stroke="none" fill="#000000" fill-rule="evenodd" /></g><g clip-path="url(#3)"><g clip-path="url(#4)"></g></g><g clip-path="url(#5)"><g clip-path="url(#6)"></g></g><g clip-path="url(#7)"><g clip-path="url(#8)"></g></g><g clip-path="url(#9)"><g clip-path="url(#10)"></g></g><g clip-path="url(#11)"><g clip-path="url(#12)"></g></g><g clip-path="url(#13)"><g clip-path="url(#14)"></g></g><g clip-path="url(#15)"><g clip-path="url(#16)"></g></g><g clip-path="url(#17)"><g clip-path="url(#18)"></g></g><g clip-path="url(#19)"><g clip-path="url(#20)"></g></g><g clip-path="url(#21)"><g clip-path="url(#22)"></g></g><g clip-path="url(#23)"><g clip-path="url(#24)"></g></g><g clip-path="url(#25)"><g clip-path="url(#26)"></g></g><g clip-path="url(#27)"><g clip-path="url(#28)"></g></g><g clip-path="url(#29)"><g clip-path="url(#30)"></g></g><g clip-path="url(#31)"><g clip-path="url(#32)"></g></g><g clip-path="url(#33)"><g clip-path="url(#34)"></g></g><g clip-path="url(#35)"><g clip-path="url(#36)"></g></g><g clip-path="url(#37)"><g clip-path="url(#38)"></g></g><g clip-path="url(#39)"><g clip-path="url(#40)"></g></g><g clip-path="url(#41)"><g clip-path="url(#42)"></g></g><g clip-path="url(#43)"><g clip-path="url(#44)"></g></g><g clip-path="url(#45)"><g clip-path="url(#46)"></g></g><g clip-path="url(#47)"><g clip-path="url(#48)"></g></g><g clip-path="url(#49)"><g clip-path="url(#50)"></g></g><g clip-path="url(#51)"><g clip-path="url(#52)"></g></g><g clip-path="url(#53)"><g clip-path="url(#54)"></g></g><g clip-path="url(#55)"><g clip-path="url(#56)"></g></g><g clip-path="url(#57)"><g clip-path="url(#58)"></g></g><g clip-path="url(#59)"><g clip-path="url(#60)"></g></g><g clip-path="url(#61)"><g clip-path="url(#62)"></g></g><g clip-path="url(#63)"><g clip-path="url(#64)"></g></g><g clip-path="url(#65)"><g clip-path="url(#66)"></g></g><g clip-path="url(#67)"><g clip-path="url(#68)"></g></g><g clip-path="url(#69)"><g clip-path="url(#70)"></g></g><g clip-path="url(#71)"><g clip-path="url(#72)"></g></g><g clip-path="url(#73)"><g clip-path="url(#74)"></g></g><g clip-path="url(#75)"><g clip-path="url(#76)"></g></g><g clip-path="url(#77)"><g clip-path="url(#78)"></g></g><g clip-path="url(#79)"><g clip-path="url(#80)"></g></g><g clip-path="url(#81)"><g clip-path="url(#82)"></g></g><g clip-path="url(#83)"><g clip-path="url(#84)"></g></g><g clip-path="url(#85)"><g clip-path="url(#86)"></g></g><g clip-path="url(#87)"><g clip-path="url(#88)"></g></g><g clip-path="url(#89)"><g clip-path="url(#90)"></g></g><g clip-path="url(#91)"><g clip-path="url(#92)"></g></g><g clip-path="url(#93)"><g clip-path="url(#94)"></g></g><g clip-path="url(#95)"><g clip-path="url(#96)"></g></g><g clip-path="url(#97)"><g clip-path="url(#98)"></g></g><g clip-path="url(#99)"><g clip-path="url(#100)"></g></g><g clip-path="url(#101)"><g clip-path="url(#102)"></g></g><g clip-path="url(#103)"><g clip-path="url(#104)"></g></g><g clip-path="url(#105)"><g clip-path="url(#106)"></g></g><g clip-path="url(#107)"><g clip-path="url(#108)"></g></g><g clip-path="url(#109)"><g clip-path="url(#110)"></g></g><g clip-path="url(#111)"><g clip-path="url(#112)"></g></g><g clip-path="url(#113)"><g clip-path="url(#114)"></g></g><g clip-path="url(#115)"><g clip-path="url(#116)"></g></g><g clip-path="url(#117)"><g clip-path="url(#118)"></g></g><g clip-path="url(#119)"><g clip-path="url(#120)"></g></g><g clip-path="url(#121)"><g clip-path="url(#122)"></g></g><g clip-path="url(#123)"><g clip-path="url(#124)"></g></g><g clip-path="url(#125)"><g clip-path="url(#126)"></g></g><g clip-path="url(#127)"><g clip-path="url(#128)"></g></g><g clip-path="url(#129)"><g clip-path="url(#130)"></g></g><g clip-path="url(#131)"><g clip-path="url(#132)"></g></g><g clip-path="url(#133)"><g clip-path="url(#134)"></g></g><g clip-path="url(#135)"><g clip-path="url(#136)"></g></g><g clip-path="url(#137)"><g clip-path="url(#138)"></g></g><g clip-path="url(#139)"><g clip-path="url(#140)"></g></g><g clip-path="url(#141)"><g clip-path="url(#142)"></g></g><g clip-path="url(#143)"><g clip-path="url(#144)"></g></g><g clip-path="url(#145)"><g clip-path="url(#146)"></g></g><g clip-path="url(#147)"><g clip-path="url(#148)"></g></g><g clip-path="url(#149)"><g clip-path="url(#150)"></g></g><g clip-path="url(#151)"><g clip-path="url(#152)"></g></g><g clip-path="url(#153)"><g clip-path="url(#154)"></g></g><g clip-path="url(#155)"><g clip-path="url(#156)"></g></g><g clip-path="url(#157)"><g clip-path="url(#158)"></g></g><g clip-path="url(#159)"><g clip-path="url(#160)"></g></g><g clip-path="url(#161)"><g clip-path="url(#162)"></g></g><g clip-path="url(#163)"><g clip-path="url(#164)"></g></g><g clip-path="url(#165)"><g clip-path="url(#166)"></g></g><g clip-path="url(#167)"><g clip-path="url(#168)"></g></g><g clip-path="url(#169)"><g clip-path="url(#170)"></g></g><g clip-path="url(#171)"><g clip-path="url(#172)"></g></g><g clip-path="url(#173)"><g clip-path="url(#174)"></g></g><g clip-path="url(#175)"><g clip-path="url(#176)"></g></g><g clip-path="url(#177)"><g clip-path="url(#178)"></g></g><g clip-path="url(#179)"><g clip-path="url(#180)"></g></g><g clip-path="url(#181)"><g clip-path="url(#182)"></g></g><g clip-path="url(#183)"><g clip-path="url(#184)"></g></g><g clip-path="url(#185)"><g clip-path="url(#186)"></g></g><g clip-path="url(#187)"><g clip-path="url(#188)"></g></g><g clip-path="url(#189)"><g clip-path="url(#190)"></g></g><g clip-path="url(#191)"><g clip-path="url(#192)"></g></g><g clip-path="url(#193)"><g clip-path="url(#194)"></g></g><g clip-path="url(#195)"><g clip-path="url(#196)"></g></g><g clip-path="url(#197)"><g clip-path="url(#198)"></g></g><g clip-path="url(#199)"><g clip-path="url(#200)"></g></g><g clip-path="url(#201)"><g clip-path="url(#202)"></g></g><g clip-path="url(#203)"><g clip-path="url(#204)"></g></g><g clip-path="url(#205)"><g clip-path="url(#206)"></g></g><g clip-path="url(#207)"><g clip-path="url(#208)"></g></g><g clip-path="url(#209)"><g clip-path="url(#210)"></g></g><g clip-path="url(#211)"><g clip-path="url(#212)"></g></g><g clip-path="url(#213)"><g clip-path="url(#214)"></g></g><g clip-path="url(#215)"><g clip-path="url(#216)"></g></g><g clip-path="url(#217)"><g clip-path="url(#218)"></g></g><g clip-path="url(#219)"><g clip-path="url(#220)"></g></g><g clip-path="url(#221)"><g clip-path="url(#222)"></g></g><g clip-path="url(#223)"><g clip-path="url(#224)"></g></g><g clip-path="url(#225)"><path transform="matrix(1 0 0 -1 0 841)" d="M26.03 766.88L568.22 766.88" stroke="#000000" stroke-width="1.44" fill="none" /><path transform="matrix(1 0 0 -1 0 841)" d="M26.03 155.58L568.22 155.58" stroke="#000000" stroke-width="1.44" fill="none" /><path transform="matrix(1 0 0 -1 0 841)" d="M27.47 709.16L566.78 709.16" stroke="#000000" stroke-width="0.48" fill="none" /><path transform="matrix(1 0 0 -1 0 841)" d="M27.47 663.66L566.78 663.66" stroke="#000000" stroke-width="0.48" fill="none" /><path transform="matrix(1 0 0 -1 0 841)" d="M27.47 583.11L566.78 583.11" stroke="#000000" stroke-width="0.48" fill="none" /><path transform="matrix(1 0 0 -1 0 841)" d="M27.47 502.61L566.78 502.61" stroke="#000000" stroke-width="0.48" fill="none" /><path transform="matrix(1 0 0 -1 0 841)" d="M27.47 453.71L566.78 453.71" stroke="#000000" stroke-width="0.48" fill="none" /><path transform="matrix(1 0 0 -1 0 841)" d="M27.47 396.51L566.78 396.51" stroke="#000000" stroke-width="0.48" fill="none" /><path transform="matrix(1 0 0 -1 0 841)" d="M27.47 327.66L566.78 327.66" stroke="#000000" stroke-width="0.48" fill="none" /><path transform="matrix(1 0 0 -1 0 841)" d="M27.47 258.81L566.78 258.81" stroke="#000000" stroke-width="0.48" fill="none" /><path transform="matrix(1 0 0 -1 0 841)" d="M27.47 201.61L566.78 201.61" stroke="#000000" stroke-width="0.48" fill="none" /><path transform="matrix(1 0 0 -1 0 841)" d="M26.75 767.6L26.75 154.86" stroke="#000000" stroke-width="1.44" fill="none" /><path transform="matrix(1 0 0 -1 0 841)" d="M567.5 766.16L567.5 154.86" stroke="#000000" stroke-width="1.44" fill="none" /><path transform="matrix(1 0 0 -1 0 841)" d="M50.75 766.16L50.75 156.3" stroke="#000000" stroke-width="0.48" fill="none" /><path transform="matrix(1 0 0 -1 0 841)" d="M107 766.16L107 156.3" stroke="#000000" stroke-width="0.48" fill="none" /><path transform="matrix(1 0 0 -1 0 841)" d="M155.75 766.16L155.75 156.3" stroke="#000000" stroke-width="0.48" fill="none" /><path transform="matrix(1 0 0 -1 0 841)" d="M203 766.16L203 156.3" stroke="#000000" stroke-width="0.48" fill="none" /><path transform="matrix(1 0 0 -1 0 841)" d="M253.25 766.16L253.25 156.3" stroke="#000000" stroke-width="0.48" fill="none" /><path transform="matrix(1 0 0 -1 0 841)" d="M294.5 766.16L294.5 156.3" stroke="#000000" stroke-width="0.48" fill="none" /><path transform="matrix(1 0 0 -1 0 841)" d="M342.5 766.16L342.5 156.3" stroke="#000000" stroke-width="0.48" fill="none" /><path transform="matrix(1 0 0 -1 0 841)" d="M397.25 766.16L397.25 156.3" stroke="#000000" stroke-width="0.48" fill="none" /><path transform="matrix(1 0 0 -1 0 841)" d="M455 766.16L455 156.3" stroke="#000000" stroke-width="0.48" fill="none" /><path transform="matrix(1 0 0 -1 0 841)" d="M512 766.16L512 156.3" stroke="#000000" stroke-width="0.48" fill="none" /></g></g></g></g></svg>