<svg xmlns="http://www.w3.org/2000/svg" xmlns:xlink="http://www.w3.org/1999/xlink" id="body_4" preserveAspectRatio="xMinYMin meet" viewBox="0 0 793 1121"><defs><clipPath id="1"><path d="M0 841L0 -0.9000244L0 -0.9000244L595.3 -0.9000244L595.3 -0.9000244L595.3 841L595.3 841L0 841z" /></clipPath><clipPath id="2"><path d="M0 -0.9000244L595.3 -0.9000244L595.3 -0.9000244L595.3 841L595.3 841L0 841z" /></clipPath><clipPath id="3"><path d="M0 -0.9000244L595.3 -0.9000244L595.3 -0.9000244L595.3 841L595.3 841L0 841z" /></clipPath><clipPath id="4"><path d="M295.2 763.05L300.1 763.05L300.1 763.05L300.1 783.9L300.1 783.9L295.2 783.9z" /></clipPath><clipPath id="5"><path d="M0 -0.9000244L595.3 -0.9000244L595.3 -0.9000244L595.3 841L595.3 841L0 841z" /></clipPath><clipPath id="6"><path d="M-1638.4 73.39996L2179.65 73.39996L2179.65 73.39996L2179.65 101.4L2179.65 101.4L-1638.4 101.4z" /></clipPath><clipPath id="7"><path d="M0 -0.9000244L595.3 -0.9000244L595.3 -0.9000244L595.3 841L595.3 841L0 841z" /></clipPath><clipPath id="8"><path d="M-1638.4 101.35L2179.65 101.35L2179.65 101.35L2179.65 129.35L2179.65 129.35L-1638.4 129.35z" /></clipPath><clipPath id="9"><path d="M0 -0.9000244L595.3 -0.9000244L595.3 -0.9000244L595.3 841L595.3 841L0 841z" /></clipPath><clipPath id="10"><path d="M-1638.4 129.3L2179.65 129.3L2179.65 129.3L2179.65 157.3L2179.65 157.3L-1638.4 157.3z" /></clipPath><clipPath id="11"><path d="M0 -0.9000244L595.3 -0.9000244L595.3 -0.9000244L595.3 841L595.3 841L0 841z" /></clipPath><clipPath id="12"><path d="M-1638.4 157.4L2179.65 157.4L2179.65 157.4L2179.65 185.4L2179.65 185.4L-1638.4 185.4z" /></clipPath><clipPath id="13"><path d="M0 -0.9000244L595.3 -0.9000244L595.3 -0.9000244L595.3 841L595.3 841L0 841z" /></clipPath><clipPath id="14"><path d="M-1638.4 185.35L2179.65 185.35L2179.65 185.35L2179.65 213.35L2179.65 213.35L-1638.4 213.35z" /></clipPath><clipPath id="15"><path d="M0 -0.9000244L595.3 -0.9000244L595.3 -0.9000244L595.3 841L595.3 841L0 841z" /></clipPath><clipPath id="16"><path d="M-1638.4 213.3L2179.65 213.3L2179.65 213.3L2179.65 241.3L2179.65 241.3L-1638.4 241.3z" /></clipPath><clipPath id="17"><path d="M0 -0.9000244L595.3 -0.9000244L595.3 -0.9000244L595.3 841L595.3 841L0 841z" /></clipPath><clipPath id="18"><path d="M-1638.4 241.4L2179.65 241.4L2179.65 241.4L2179.65 269.4L2179.65 269.4L-1638.4 269.4z" /></clipPath><clipPath id="19"><path d="M0 -0.9000244L595.3 -0.9000244L595.3 -0.9000244L595.3 841L595.3 841L0 841z" /></clipPath><clipPath id="20"><path d="M-1638.4 269.35L2179.65 269.35L2179.65 269.35L2179.65 297.35L2179.65 297.35L-1638.4 297.35z" /></clipPath><clipPath id="21"><path d="M0 -0.9000244L595.3 -0.9000244L595.3 -0.9000244L595.3 841L595.3 841L0 841z" /></clipPath><clipPath id="22"><path d="M-1638.4 297.3L2179.65 297.3L2179.65 297.3L2179.65 325.3L2179.65 325.3L-1638.4 325.3z" /></clipPath><clipPath id="23"><path d="M0 -0.9000244L595.3 -0.9000244L595.3 -0.9000244L595.3 841L595.3 841L0 841z" /></clipPath><clipPath id="24"><path d="M-1638.4 325.4L2179.65 325.4L2179.65 325.4L2179.65 353.4L2179.65 353.4L-1638.4 353.4z" /></clipPath><clipPath id="25"><path d="M0 -0.9000244L595.3 -0.9000244L595.3 -0.9000244L595.3 841L595.3 841L0 841z" /></clipPath><clipPath id="26"><path d="M0 -0.9000244L595.3 -0.9000244L595.3 -0.9000244L595.3 841L595.3 841L0 841z" /></clipPath><clipPath id="27"><path d="M-1638.4 418.6L2179.65 418.6L2179.65 418.6L2179.65 446.6L2179.65 446.6L-1638.4 446.6z" /></clipPath><clipPath id="28"><path d="M0 -0.9000244L595.3 -0.9000244L595.3 -0.9000244L595.3 841L595.3 841L0 841z" /></clipPath><clipPath id="29"><path d="M-1638.4 446.7L2179.65 446.7L2179.65 446.7L2179.65 474.7L2179.65 474.7L-1638.4 474.7z" /></clipPath><clipPath id="30"><path d="M0 -0.9000244L595.3 -0.9000244L595.3 -0.9000244L595.3 841L595.3 841L0 841z" /></clipPath><clipPath id="31"><path d="M-1638.4 474.65L2179.65 474.65L2179.65 474.65L2179.65 502.65L2179.65 502.65L-1638.4 502.65z" /></clipPath><clipPath id="32"><path d="M0 -0.9000244L595.3 -0.9000244L595.3 -0.9000244L595.3 841L595.3 841L0 841z" /></clipPath><clipPath id="33"><path d="M-1638.4 502.6L2179.65 502.6L2179.65 502.6L2179.65 530.6L2179.65 530.6L-1638.4 530.6z" /></clipPath><clipPath id="34"><path d="M0 -0.9000244L595.3 -0.9000244L595.3 -0.9000244L595.3 841L595.3 841L0 841z" /></clipPath><clipPath id="35"><path d="M-1638.4 530.7L2179.65 530.7L2179.65 530.7L2179.65 558.7L2179.65 558.7L-1638.4 558.7z" /></clipPath><clipPath id="36"><path d="M0 -0.9000244L595.3 -0.9000244L595.3 -0.9000244L595.3 841L595.3 841L0 841z" /></clipPath><clipPath id="37"><path d="M-1638.4 558.65L2179.65 558.65L2179.65 558.65L2179.65 586.65L2179.65 586.65L-1638.4 586.65z" /></clipPath><clipPath id="38"><path d="M0 -0.9000244L595.3 -0.9000244L595.3 -0.9000244L595.3 841L595.3 841L0 841z" /></clipPath><clipPath id="39"><path d="M-1638.4 586.6L2179.65 586.6L2179.65 586.6L2179.65 614.6L2179.65 614.6L-1638.4 614.6z" /></clipPath><clipPath id="40"><path d="M0 -0.9000244L595.3 -0.9000244L595.3 -0.9000244L595.3 841L595.3 841L0 841z" /></clipPath><clipPath id="41"><path d="M-1638.4 614.7L2179.65 614.7L2179.65 614.7L2179.65 642.7L2179.65 642.7L-1638.4 642.7z" /></clipPath><clipPath id="42"><path d="M0 -0.9000244L595.3 -0.9000244L595.3 -0.9000244L595.3 841L595.3 841L0 841z" /></clipPath><clipPath id="43"><path d="M-1638.4 642.65L2179.65 642.65L2179.65 642.65L2179.65 670.65L2179.65 670.65L-1638.4 670.65z" /></clipPath><clipPath id="44"><path d="M0 -0.9000244L595.3 -0.9000244L595.3 -0.9000244L595.3 841L595.3 841L0 841z" /></clipPath><clipPath id="45"><path d="M-1638.4 670.6L2179.65 670.6L2179.65 670.6L2179.65 698.6L2179.65 698.6L-1638.4 698.6z" /></clipPath><clipPath id="46"><path d="M0 -0.9000244L595.3 -0.9000244L595.3 -0.9000244L595.3 841L595.3 841L0 841z" /></clipPath><clipPath id="47"><path d="M-1638.4 698.7L2179.65 698.7L2179.65 698.7L2179.65 726.7L2179.65 726.7L-1638.4 726.7z" /></clipPath><clipPath id="48"><path d="M0 -0.9000244L595.3 -0.9000244L595.3 -0.9000244L595.3 841L595.3 841L0 841z" /></clipPath><clipPath id="49"><path d="M-1638.4 726.65L2179.65 726.65L2179.65 726.65L2179.65 754.65L2179.65 754.65L-1638.4 754.65z" /></clipPath><clipPath id="50"><path d="M0 -0.9000244L595.3 -0.9000244L595.3 -0.9000244L595.3 841L595.3 841L0 841z" /></clipPath></defs><g transform="matrix(1.333333 0 0 1.333333 0 0)"><g><g clip-path="url(#1)"><g clip-path="url(#2)"><g transform="matrix(0.3271429 0 0 0.3275676 55.56 34.5)"><g transform="matrix(1 0 0 1 0 0)"><image x="0" y="0" xlink:href="img_03.png" width="168" height="74" /></g></g><path transform="matrix(1 0 0 -1 0 841)" d="M54 778.4L523.3 778.4L523.3 778.4L523.3 777.6801L523.3 777.6801L54 777.6801z" stroke="none" fill="#000000" fill-rule="evenodd" /></g><g clip-path="url(#3)"><g clip-path="url(#4)"></g></g><g clip-path="url(#5)"><g clip-path="url(#6)"></g></g><g clip-path="url(#7)"><g clip-path="url(#8)"></g></g><g clip-path="url(#9)"><g clip-path="url(#10)"></g></g><g clip-path="url(#11)"><g clip-path="url(#12)"></g></g><g clip-path="url(#13)"><g clip-path="url(#14)"></g></g><g clip-path="url(#15)"><g clip-path="url(#16)"></g></g><g clip-path="url(#17)"><g clip-path="url(#18)"></g></g><g clip-path="url(#19)"><g clip-path="url(#20)"></g></g><g clip-path="url(#21)"><g clip-path="url(#22)"></g></g><g clip-path="url(#23)"><g clip-path="url(#24)"></g></g><g clip-path="url(#25)"></g><g clip-path="url(#26)"><g clip-path="url(#27)"></g></g><g clip-path="url(#28)"><g clip-path="url(#29)"></g></g><g clip-path="url(#30)"><g clip-path="url(#31)"></g></g><g clip-path="url(#32)"><g clip-path="url(#33)"></g></g><g clip-path="url(#34)"><g clip-path="url(#35)"></g></g><g clip-path="url(#36)"><g clip-path="url(#37)"></g></g><g clip-path="url(#38)"><g clip-path="url(#39)"></g></g><g clip-path="url(#40)"><g clip-path="url(#41)"></g></g><g clip-path="url(#42)"><g clip-path="url(#43)"></g></g><g clip-path="url(#44)"><g clip-path="url(#45)"></g></g><g clip-path="url(#46)"><g clip-path="url(#47)"></g></g><g clip-path="url(#48)"><g clip-path="url(#49)"></g></g><g clip-path="url(#50)"><path transform="matrix(1 0 0 -1 0 841)" d="M337.68 437.14L336.12 432.58L336.12 432.58L330.84 432.58L330.84 432.58L335.04 429.7L335.04 429.7L333.48 425.14L333.48 425.14L337.68 428.02L337.68 428.02L341.88 425.14L341.88 425.14L340.2 429.7L340.2 429.7L344.52 432.58L344.52 432.58L339.24 432.58L339.24 432.58L337.68 437.14" stroke="none" fill="#FF0000" fill-rule="evenodd" /><path transform="matrix(1 0 0 -1 0 841)" d="M337.675 438.344L339.622 432.735L339.622 432.735L339.267 432.987L339.267 432.987L345.729 432.987L345.729 432.987L340.463 429.442L340.463 429.442L340.607 429.877L340.607 429.877L342.57 424.265L342.57 424.265L337.467 427.677L337.467 427.677L337.883 427.677L337.883 427.677L332.78 424.265L332.78 424.265L334.743 429.877L334.743 429.877L334.887 429.442L334.887 429.442L329.621 432.987L329.621 432.987L336.082 432.987L336.082 432.987L335.728 432.735L335.728 432.735L337.675 438.344M336.349 432.237L330.85 432.237L330.85 432.237L331.059 432.923L331.059 432.923L335.546 429.902L335.546 429.902L333.858 425.076L333.858 425.076L333.296 425.512L333.296 425.512L337.675 428.439L337.675 428.439L342.054 425.512L342.054 425.512L341.492 425.076L341.492 425.076L339.804 429.902L339.804 429.902L344.291 432.923L344.291 432.923L344.5 432.237L344.5 432.237L339.001 432.237L339.001 432.237L337.321 437.077L337.321 437.077L338.029 437.077L338.029 437.077L336.349 432.237z" stroke="none" fill="#FF0000" fill-rule="winding" /><path transform="matrix(1 0 0 -1 0 841)" d="M355.68 437.38L354.12 432.82L354.12 432.82L348.84 432.82L348.84 432.82L353.04 429.94L353.04 429.94L351.48 425.38L351.48 425.38L355.68 428.14L355.68 428.14L359.88 425.38L359.88 425.38L358.2 429.94L358.2 429.94L362.52 432.82L362.52 432.82L357.24 432.82L357.24 432.82L355.68 437.38" stroke="none" fill="#FF0000" fill-rule="evenodd" /><path transform="matrix(1 0 0 -1 0 841)" d="M355.675 438.544L357.622 432.935L357.622 432.935L357.267 433.187L357.267 433.187L363.729 433.187L363.729 433.187L358.463 429.642L358.463 429.642L358.607 430.077L358.607 430.077L360.57 424.465L360.57 424.465L355.467 427.877L355.467 427.877L355.883 427.877L355.883 427.877L350.78 424.465L350.78 424.465L352.743 430.077L352.743 430.077L352.887 429.642L352.887 429.642L347.621 433.187L347.621 433.187L354.082 433.187L354.082 433.187L353.728 432.935L353.728 432.935L355.675 438.544M354.349 432.437L348.85 432.437L348.85 432.437L349.059 433.123L349.059 433.123L353.546 430.102L353.546 430.102L351.858 425.276L351.858 425.276L351.296 425.712L351.296 425.712L355.675 428.639L355.675 428.639L360.054 425.712L360.054 425.712L359.492 425.276L359.492 425.276L357.804 430.102L357.804 430.102L362.291 433.123L362.291 433.123L362.5 432.437L362.5 432.437L357.001 432.437L357.001 432.437L355.321 437.277L355.321 437.277L356.029 437.277L356.029 437.277L354.349 432.437z" stroke="none" fill="#FF0000" fill-rule="winding" /><path transform="matrix(1 0 0 -1 0 841)" d="M374.04 437.5L372.48 432.94L372.48 432.94L367.2 432.94L367.2 432.94L371.4 430.06L371.4 430.06L369.84 425.5L369.84 425.5L374.04 428.26L374.04 428.26L378.24 425.5L378.24 425.5L376.56 430.06L376.56 430.06L380.88 432.94L380.88 432.94L375.6 432.94L375.6 432.94L374.04 437.5" stroke="none" fill="#FF0000" fill-rule="evenodd" /><path transform="matrix(1 0 0 -1 0 841)" d="M374.025 438.644L375.972 433.035L375.972 433.035L375.617 433.287L375.617 433.287L382.079 433.287L382.079 433.287L376.813 429.742L376.813 429.742L376.957 430.177L376.957 430.177L378.92 424.565L378.92 424.565L373.817 427.977L373.817 427.977L374.233 427.977L374.233 427.977L369.13 424.565L369.13 424.565L371.093 430.177L371.093 430.177L371.237 429.742L371.237 429.742L365.971 433.287L365.971 433.287L372.432 433.287L372.432 433.287L372.078 433.035L372.078 433.035L374.025 438.644M372.699 432.537L367.2 432.537L367.2 432.537L367.409 433.223L367.409 433.223L371.896 430.202L371.896 430.202L370.208 425.376L370.208 425.376L369.646 425.812L369.646 425.812L374.025 428.739L374.025 428.739L378.404 425.812L378.404 425.812L377.842 425.376L377.842 425.376L376.154 430.202L376.154 430.202L380.641 433.223L380.641 433.223L380.85 432.537L380.85 432.537L375.351 432.537L375.351 432.537L373.671 437.377L373.671 437.377L374.379 437.377L374.379 437.377L372.699 432.537z" stroke="none" fill="#FF0000" fill-rule="winding" /></g></g></g></g></svg>