<svg xmlns="http://www.w3.org/2000/svg" xmlns:xlink="http://www.w3.org/1999/xlink" id="body_2" preserveAspectRatio="xMinYMin meet" viewBox="0 0 793 1121"><defs><clipPath id="1"><path d="M0 841L0 -0.9000244L0 -0.9000244L595.3 -0.9000244L595.3 -0.9000244L595.3 841L595.3 841L0 841z" /></clipPath><clipPath id="2"><path d="M0 -0.9000244L595.3 -0.9000244L595.3 -0.9000244L595.3 841L595.3 841L0 841z" /></clipPath><clipPath id="3"><path d="M0 -0.9000244L595.3 -0.9000244L595.3 -0.9000244L595.3 841L595.3 841L0 841z" /></clipPath><clipPath id="4"><path d="M295.2 763.05L300.1 763.05L300.1 763.05L300.1 783.9L300.1 783.9L295.2 783.9z" /></clipPath><clipPath id="5"><path d="M0 -0.9000244L595.3 -0.9000244L595.3 -0.9000244L595.3 841L595.3 841L0 841z" /></clipPath><clipPath id="6"><path d="M0 -0.9000244L595.3 -0.9000244L595.3 -0.9000244L595.3 841L595.3 841L0 841z" /></clipPath><clipPath id="7"><path d="M-1638.4 203.55L2179.65 203.55L2179.65 203.55L2179.65 231.55L2179.65 231.55L-1638.4 231.55z" /></clipPath><clipPath id="8"><path d="M0 -0.9000244L595.3 -0.9000244L595.3 -0.9000244L595.3 841L595.3 841L0 841z" /></clipPath><clipPath id="9"><path d="M-1638.4 231.65L2179.65 231.65L2179.65 231.65L2179.65 259.65L2179.65 259.65L-1638.4 259.65z" /></clipPath><clipPath id="10"><path d="M0 -0.9000244L595.3 -0.9000244L595.3 -0.9000244L595.3 841L595.3 841L0 841z" /></clipPath><clipPath id="11"><path d="M-1638.4 259.6L2179.65 259.6L2179.65 259.6L2179.65 287.6L2179.65 287.6L-1638.4 287.6z" /></clipPath><clipPath id="12"><path d="M0 -0.9000244L595.3 -0.9000244L595.3 -0.9000244L595.3 841L595.3 841L0 841z" /></clipPath><clipPath id="13"><path d="M-1638.4 287.55L2179.65 287.55L2179.65 287.55L2179.65 315.55L2179.65 315.55L-1638.4 315.55z" /></clipPath><clipPath id="14"><path d="M0 -0.9000244L595.3 -0.9000244L595.3 -0.9000244L595.3 841L595.3 841L0 841z" /></clipPath><clipPath id="15"><path d="M-1638.4 315.65L2179.65 315.65L2179.65 315.65L2179.65 343.65L2179.65 343.65L-1638.4 343.65z" /></clipPath><clipPath id="16"><path d="M0 -0.9000244L595.3 -0.9000244L595.3 -0.9000244L595.3 841L595.3 841L0 841z" /></clipPath><clipPath id="17"><path d="M-1638.4 343.6L2179.65 343.6L2179.65 343.6L2179.65 371.6L2179.65 371.6L-1638.4 371.6z" /></clipPath><clipPath id="18"><path d="M0 -0.9000244L595.3 -0.9000244L595.3 -0.9000244L595.3 841L595.3 841L0 841z" /></clipPath><clipPath id="19"><path d="M-1638.4 371.55L2179.65 371.55L2179.65 371.55L2179.65 399.55L2179.65 399.55L-1638.4 399.55z" /></clipPath><clipPath id="20"><path d="M0 -0.9000244L595.3 -0.9000244L595.3 -0.9000244L595.3 841L595.3 841L0 841z" /></clipPath><clipPath id="21"><path d="M-1638.4 399.65L2179.65 399.65L2179.65 399.65L2179.65 427.65L2179.65 427.65L-1638.4 427.65z" /></clipPath><clipPath id="22"><path d="M0 -0.9000244L595.3 -0.9000244L595.3 -0.9000244L595.3 841L595.3 841L0 841z" /></clipPath><clipPath id="23"><path d="M-1638.4 427.6L2179.65 427.6L2179.65 427.6L2179.65 455.6L2179.65 455.6L-1638.4 455.6z" /></clipPath><clipPath id="24"><path d="M0 -0.9000244L595.3 -0.9000244L595.3 -0.9000244L595.3 841L595.3 841L0 841z" /></clipPath><clipPath id="25"><path d="M-1638.4 455.55L2179.65 455.55L2179.65 455.55L2179.65 483.55L2179.65 483.55L-1638.4 483.55z" /></clipPath><clipPath id="26"><path d="M0 -0.9000244L595.3 -0.9000244L595.3 -0.9000244L595.3 841L595.3 841L0 841z" /></clipPath><clipPath id="27"><path d="M-1638.4 483.65L2179.65 483.65L2179.65 483.65L2179.65 511.65L2179.65 511.65L-1638.4 511.65z" /></clipPath><clipPath id="28"><path d="M0 -0.9000244L595.3 -0.9000244L595.3 -0.9000244L595.3 841L595.3 841L0 841z" /></clipPath><clipPath id="29"><path d="M-1638.4 511.6L2179.65 511.6L2179.65 511.6L2179.65 539.6L2179.65 539.6L-1638.4 539.6z" /></clipPath><clipPath id="30"><path d="M0 -0.9000244L595.3 -0.9000244L595.3 -0.9000244L595.3 841L595.3 841L0 841z" /></clipPath><clipPath id="31"><path d="M-1638.4 539.55L2179.65 539.55L2179.65 539.55L2179.65 567.55L2179.65 567.55L-1638.4 567.55z" /></clipPath><clipPath id="32"><path d="M0 -0.9000244L595.3 -0.9000244L595.3 -0.9000244L595.3 841L595.3 841L0 841z" /></clipPath><clipPath id="33"><path d="M-1638.4 567.65L2179.65 567.65L2179.65 567.65L2179.65 595.65L2179.65 595.65L-1638.4 595.65z" /></clipPath><clipPath id="34"><path d="M0 -0.9000244L595.3 -0.9000244L595.3 -0.9000244L595.3 841L595.3 841L0 841z" /></clipPath><clipPath id="35"><path d="M-1638.4 595.6L2179.65 595.6L2179.65 595.6L2179.65 623.6L2179.65 623.6L-1638.4 623.6z" /></clipPath><clipPath id="36"><path d="M0 -0.9000244L595.3 -0.9000244L595.3 -0.9000244L595.3 841L595.3 841L0 841z" /></clipPath><clipPath id="37"><path d="M-1638.4 623.55L2179.65 623.55L2179.65 623.55L2179.65 651.55L2179.65 651.55L-1638.4 651.55z" /></clipPath><clipPath id="38"><path d="M0 -0.9000244L595.3 -0.9000244L595.3 -0.9000244L595.3 841L595.3 841L0 841z" /></clipPath></defs><g transform="matrix(1.333333 0 0 1.333333 0 0)"><g><g clip-path="url(#1)"><g clip-path="url(#2)"><g transform="matrix(0.3271429 0 0 0.3275676 55.56 34.5)"><g transform="matrix(1 0 0 1 0 0)"><image x="0" y="0" xlink:href="img_03.png" width="168" height="74" /></g></g><path transform="matrix(1 0 0 -1 0 841)" d="M54 778.4L523.3 778.4L523.3 778.4L523.3 777.6801L523.3 777.6801L54 777.6801z" stroke="none" fill="#000000" fill-rule="evenodd" /></g><g clip-path="url(#3)"><g clip-path="url(#4)"></g></g><g clip-path="url(#5)"></g><g clip-path="url(#6)"><g clip-path="url(#7)"></g></g><g clip-path="url(#8)"><g clip-path="url(#9)"></g></g><g clip-path="url(#10)"><g clip-path="url(#11)"></g></g><g clip-path="url(#12)"><g clip-path="url(#13)"></g></g><g clip-path="url(#14)"><g clip-path="url(#15)"></g></g><g clip-path="url(#16)"><g clip-path="url(#17)"></g></g><g clip-path="url(#18)"><g clip-path="url(#19)"></g></g><g clip-path="url(#20)"><g clip-path="url(#21)"></g></g><g clip-path="url(#22)"><g clip-path="url(#23)"></g></g><g clip-path="url(#24)"><g clip-path="url(#25)"></g></g><g clip-path="url(#26)"><g clip-path="url(#27)"></g></g><g clip-path="url(#28)"><g clip-path="url(#29)"></g></g><g clip-path="url(#30)"><g clip-path="url(#31)"></g></g><g clip-path="url(#32)"><g clip-path="url(#33)"></g></g><g clip-path="url(#34)"><g clip-path="url(#35)"></g></g><g clip-path="url(#36)"><g clip-path="url(#37)"></g></g><g clip-path="url(#38)"><path transform="matrix(1 0 0 -1 0 841)" d="M457.92 651.82L456.36 647.26L456.36 647.26L451.2 647.26L451.2 647.26L455.4 644.38L455.4 644.38L453.84 639.82L453.84 639.82L457.92 642.58L457.92 642.58L462.12 639.82L462.12 639.82L460.56 644.38L460.56 644.38L464.76 647.26L464.76 647.26L459.6 647.26L459.6 647.26L457.92 651.82" stroke="none" fill="#FF0000" fill-rule="evenodd" /><path transform="matrix(1 0 0 -1 0 841)" d="M457.975 652.944L459.922 647.335L459.922 647.335L459.568 647.587L459.568 647.587L466.029 647.587L466.029 647.587L460.763 644.042L460.763 644.042L460.907 644.4771L460.907 644.4771L462.87 638.865L462.87 638.865L457.767 642.277L457.767 642.277L458.183 642.277L458.183 642.277L453.08 638.865L453.08 638.865L455.043 644.4771L455.043 644.4771L455.187 644.042L455.187 644.042L449.921 647.587L449.921 647.587L456.383 647.587L456.383 647.587L456.028 647.335L456.028 647.335L457.975 652.944M456.649 646.837L451.15 646.837L451.15 646.837L451.359 647.523L451.359 647.523L455.846 644.502L455.846 644.502L454.158 639.676L454.158 639.676L453.596 640.1121L453.596 640.1121L457.975 643.0391L457.975 643.0391L462.354 640.1121L462.354 640.1121L461.792 639.676L461.792 639.676L460.104 644.502L460.104 644.502L464.591 647.523L464.591 647.523L464.8 646.837L464.8 646.837L459.301 646.837L459.301 646.837L457.621 651.677L457.621 651.677L458.329 651.677L458.329 651.677L456.649 646.837z" stroke="none" fill="#FF0000" fill-rule="winding" /><path transform="matrix(1 0 0 -1 0 841)" d="M475.92 651.94L474.36 647.38L474.36 647.38L469.2 647.38L469.2 647.38L473.4 644.5L473.4 644.5L471.84 639.94L471.84 639.94L475.92 642.82L475.92 642.82L480.12 639.94L480.12 639.94L478.56 644.5L478.56 644.5L482.76 647.38L482.76 647.38L477.6 647.38L477.6 647.38L475.92 651.94" stroke="none" fill="#FF0000" fill-rule="evenodd" /><path transform="matrix(1 0 0 -1 0 841)" d="M475.975 653.144L477.922 647.535L477.922 647.535L477.568 647.787L477.568 647.787L484.029 647.787L484.029 647.787L478.763 644.242L478.763 644.242L478.907 644.677L478.907 644.677L480.87 639.065L480.87 639.065L475.767 642.4771L475.767 642.4771L476.183 642.4771L476.183 642.4771L471.08 639.065L471.08 639.065L473.043 644.677L473.043 644.677L473.187 644.242L473.187 644.242L467.921 647.787L467.921 647.787L474.383 647.787L474.383 647.787L474.028 647.535L474.028 647.535L475.975 653.144M474.649 647.037L469.15 647.037L469.15 647.037L469.359 647.723L469.359 647.723L473.846 644.702L473.846 644.702L472.158 639.876L472.158 639.876L471.596 640.312L471.596 640.312L475.975 643.239L475.975 643.239L480.354 640.312L480.354 640.312L479.792 639.876L479.792 639.876L478.104 644.702L478.104 644.702L482.591 647.723L482.591 647.723L482.8 647.037L482.8 647.037L477.301 647.037L477.301 647.037L475.621 651.877L475.621 651.877L476.329 651.877L476.329 651.877L474.649 647.037z" stroke="none" fill="#FF0000" fill-rule="winding" /><path transform="matrix(1 0 0 -1 0 841)" d="M494.28 652.0601L492.72 647.5L492.72 647.5L487.56 647.5L487.56 647.5L491.76 644.62L491.76 644.62L490.2 640.0601L490.2 640.0601L494.28 642.94L494.28 642.94L498.48 640.0601L498.48 640.0601L496.92 644.62L496.92 644.62L501.12 647.5L501.12 647.5L495.96 647.5L495.96 647.5L494.28 652.0601" stroke="none" fill="#FF0000" fill-rule="evenodd" /><path transform="matrix(1 0 0 -1 0 841)" d="M494.325 653.244L496.272 647.635L496.272 647.635L495.918 647.887L495.918 647.887L502.379 647.887L502.379 647.887L497.113 644.342L497.113 644.342L497.257 644.777L497.257 644.777L499.22 639.165L499.22 639.165L494.117 642.577L494.117 642.577L494.533 642.577L494.533 642.577L489.43 639.165L489.43 639.165L491.393 644.777L491.393 644.777L491.537 644.342L491.537 644.342L486.271 647.887L486.271 647.887L492.733 647.887L492.733 647.887L492.378 647.635L492.378 647.635L494.325 653.244M492.999 647.137L487.5 647.137L487.5 647.137L487.709 647.823L487.709 647.823L492.196 644.802L492.196 644.802L490.508 639.976L490.508 639.976L489.946 640.412L489.946 640.412L494.325 643.339L494.325 643.339L498.704 640.412L498.704 640.412L498.142 639.976L498.142 639.976L496.454 644.802L496.454 644.802L500.941 647.823L500.941 647.823L501.15 647.137L501.15 647.137L495.651 647.137L495.651 647.137L493.971 651.9771L493.971 651.9771L494.679 651.9771L494.679 651.9771L492.999 647.137z" stroke="none" fill="#FF0000" fill-rule="winding" /><path transform="matrix(1 0 0 -1 0 841)" d="M512.64 652.42L511.08 647.86L511.08 647.86L505.8 647.86L505.8 647.86L510.12 644.98L510.12 644.98L508.56 640.42L508.56 640.42L512.64 643.1801L512.64 643.1801L516.84 640.42L516.84 640.42L515.28 644.98L515.28 644.98L519.48 647.86L519.48 647.86L514.32 647.86L514.32 647.86L512.64 652.42" stroke="none" fill="#FF0000" fill-rule="evenodd" /><path transform="matrix(1 0 0 -1 0 841)" d="M512.675 653.544L514.622 647.9351L514.622 647.9351L514.267 648.187L514.267 648.187L520.729 648.187L520.729 648.187L515.463 644.642L515.463 644.642L515.607 645.077L515.607 645.077L517.57 639.465L517.57 639.465L512.467 642.877L512.467 642.877L512.883 642.877L512.883 642.877L507.78 639.465L507.78 639.465L509.743 645.077L509.743 645.077L509.887 644.642L509.887 644.642L504.621 648.187L504.621 648.187L511.082 648.187L511.082 648.187L510.728 647.9351L510.728 647.9351L512.675 653.544M511.349 647.437L505.85 647.437L505.85 647.437L506.059 648.123L506.059 648.123L510.546 645.1021L510.546 645.1021L508.858 640.276L508.858 640.276L508.296 640.712L508.296 640.712L512.675 643.639L512.675 643.639L517.054 640.712L517.054 640.712L516.492 640.276L516.492 640.276L514.804 645.1021L514.804 645.1021L519.291 648.123L519.291 648.123L519.5 647.437L519.5 647.437L514.001 647.437L514.001 647.437L512.321 652.277L512.321 652.277L513.029 652.277L513.029 652.277L511.349 647.437z" stroke="none" fill="#FF0000" fill-rule="winding" /><path transform="matrix(1 0 0 -1 0 841)" d="M531 652.54L529.44 647.86L529.44 647.86L524.16 647.86L524.16 647.86L528.48 645.1L528.48 645.1L526.8 640.54L526.8 640.54L531 643.3L531 643.3L535.2 640.54L535.2 640.54L533.64 645.1L533.64 645.1L537.84 647.86L537.84 647.86L532.56 647.86L532.56 647.86L531 652.54" stroke="none" fill="#FF0000" fill-rule="evenodd" /><path transform="matrix(1 0 0 -1 0 841)" d="M531.025 653.644L532.972 648.035L532.972 648.035L532.617 648.287L532.617 648.287L539.079 648.287L539.079 648.287L533.813 644.742L533.813 644.742L533.957 645.177L533.957 645.177L535.92 639.565L535.92 639.565L530.817 642.9771L530.817 642.9771L531.233 642.9771L531.233 642.9771L526.13 639.565L526.13 639.565L528.093 645.177L528.093 645.177L528.237 644.742L528.237 644.742L522.971 648.287L522.971 648.287L529.432 648.287L529.432 648.287L529.078 648.035L529.078 648.035L531.025 653.644M529.699 647.537L524.2 647.537L524.2 647.537L524.409 648.223L524.409 648.223L528.896 645.202L528.896 645.202L527.208 640.376L527.208 640.376L526.646 640.812L526.646 640.812L531.025 643.739L531.025 643.739L535.404 640.812L535.404 640.812L534.842 640.376L534.842 640.376L533.154 645.202L533.154 645.202L537.641 648.223L537.641 648.223L537.85 647.537L537.85 647.537L532.351 647.537L532.351 647.537L530.671 652.377L530.671 652.377L531.379 652.377L531.379 652.377L529.699 647.537z" stroke="none" fill="#FF0000" fill-rule="winding" /></g></g></g></g></svg>