<svg xmlns="http://www.w3.org/2000/svg" xmlns:xlink="http://www.w3.org/1999/xlink" id="body_3" preserveAspectRatio="xMinYMin meet" viewBox="0 0 793 1121"><defs><clipPath id="1"><path d="M0 841L0 -0.9000244L0 -0.9000244L595.3 -0.9000244L595.3 -0.9000244L595.3 841L595.3 841L0 841z" /></clipPath><clipPath id="2"><path d="M0 -0.9000244L595.3 -0.9000244L595.3 -0.9000244L595.3 841L595.3 841L0 841z" /></clipPath><clipPath id="3"><path d="M0 -0.9000244L595.3 -0.9000244L595.3 -0.9000244L595.3 841L595.3 841L0 841z" /></clipPath><clipPath id="4"><path d="M295.2 763.05L300.1 763.05L300.1 763.05L300.1 783.9L300.1 783.9L295.2 783.9z" /></clipPath><clipPath id="5"><path d="M0 -0.9000244L595.3 -0.9000244L595.3 -0.9000244L595.3 841L595.3 841L0 841z" /></clipPath><clipPath id="6"><path d="M0 -0.9000244L595.3 -0.9000244L595.3 -0.9000244L595.3 841L595.3 841L0 841z" /></clipPath><clipPath id="7"><path d="M81.6 87L123.7 87L123.7 87L123.7 137.5L123.7 137.5L81.6 137.5z" /></clipPath><clipPath id="8"><path d="M0 -0.9000244L595.3 -0.9000244L595.3 -0.9000244L595.3 841L595.3 841L0 841z" /></clipPath><clipPath id="9"><path d="M123.65 87L321.25 87L321.25 87L321.25 106.5L321.25 106.5L123.65 106.5z" /></clipPath><clipPath id="10"><path d="M0 -0.9000244L595.3 -0.9000244L595.3 -0.9000244L595.3 841L595.3 841L0 841z" /></clipPath><clipPath id="11"><path d="M321.2 87L513.75 87L513.75 87L513.75 106.5L513.75 106.5L321.2 106.5z" /></clipPath><clipPath id="12"><path d="M0 -0.9000244L595.3 -0.9000244L595.3 -0.9000244L595.3 841L595.3 841L0 841z" /></clipPath><clipPath id="13"><path d="M123.65 106.5L180 106.5L180 106.5L180 137.5L180 137.5L123.65 137.5z" /></clipPath><clipPath id="14"><path d="M0 -0.9000244L595.3 -0.9000244L595.3 -0.9000244L595.3 841L595.3 841L0 841z" /></clipPath><clipPath id="15"><path d="M179.95 106.5L259.4 106.5L259.4 106.5L259.4 137.5L259.4 137.5L179.95 137.5z" /></clipPath><clipPath id="16"><path d="M0 -0.9000244L595.3 -0.9000244L595.3 -0.9000244L595.3 841L595.3 841L0 841z" /></clipPath><clipPath id="17"><path d="M259.35 106.5L321.25 106.5L321.25 106.5L321.25 137.5L321.25 137.5L259.35 137.5z" /></clipPath><clipPath id="18"><path d="M0 -0.9000244L595.3 -0.9000244L595.3 -0.9000244L595.3 841L595.3 841L0 841z" /></clipPath><clipPath id="19"><path d="M321.2 106.5L377.5 106.5L377.5 106.5L377.5 137.5L377.5 137.5L321.2 137.5z" /></clipPath><clipPath id="20"><path d="M0 -0.9000244L595.3 -0.9000244L595.3 -0.9000244L595.3 841L595.3 841L0 841z" /></clipPath><clipPath id="21"><path d="M377.45 106.5L453.15 106.5L453.15 106.5L453.15 137.5L453.15 137.5L377.45 137.5z" /></clipPath><clipPath id="22"><path d="M0 -0.9000244L595.3 -0.9000244L595.3 -0.9000244L595.3 841L595.3 841L0 841z" /></clipPath><clipPath id="23"><path d="M453.1 106.5L513.75 106.5L513.75 106.5L513.75 137.5L513.75 137.5L453.1 137.5z" /></clipPath><clipPath id="24"><path d="M0 -0.9000244L595.3 -0.9000244L595.3 -0.9000244L595.3 841L595.3 841L0 841z" /></clipPath><clipPath id="25"><path d="M81.6 137.5L123.7 137.5L123.7 137.5L123.7 150L123.7 150L81.6 150z" /></clipPath><clipPath id="26"><path d="M0 -0.9000244L595.3 -0.9000244L595.3 -0.9000244L595.3 841L595.3 841L0 841z" /></clipPath><clipPath id="27"><path d="M123.65 137.5L180 137.5L180 137.5L180 150L180 150L123.65 150z" /></clipPath><clipPath id="28"><path d="M0 -0.9000244L595.3 -0.9000244L595.3 -0.9000244L595.3 841L595.3 841L0 841z" /></clipPath><clipPath id="29"><path d="M179.95 137.5L259.4 137.5L259.4 137.5L259.4 150L259.4 150L179.95 150z" /></clipPath><clipPath id="30"><path d="M0 -0.9000244L595.3 -0.9000244L595.3 -0.9000244L595.3 841L595.3 841L0 841z" /></clipPath><clipPath id="31"><path d="M259.35 137.5L321.25 137.5L321.25 137.5L321.25 150L321.25 150L259.35 150z" /></clipPath><clipPath id="32"><path d="M0 -0.9000244L595.3 -0.9000244L595.3 -0.9000244L595.3 841L595.3 841L0 841z" /></clipPath><clipPath id="33"><path d="M321.2 137.5L377.5 137.5L377.5 137.5L377.5 150L377.5 150L321.2 150z" /></clipPath><clipPath id="34"><path d="M0 -0.9000244L595.3 -0.9000244L595.3 -0.9000244L595.3 841L595.3 841L0 841z" /></clipPath><clipPath id="35"><path d="M377.45 137.5L453.15 137.5L453.15 137.5L453.15 150L453.15 150L377.45 150z" /></clipPath><clipPath id="36"><path d="M0 -0.9000244L595.3 -0.9000244L595.3 -0.9000244L595.3 841L595.3 841L0 841z" /></clipPath><clipPath id="37"><path d="M453.1 137.5L513.75 137.5L513.75 137.5L513.75 150L513.75 150L453.1 150z" /></clipPath><clipPath id="38"><path d="M0 -0.9000244L595.3 -0.9000244L595.3 -0.9000244L595.3 841L595.3 841L0 841z" /></clipPath><clipPath id="39"><path d="M81.6 150L123.7 150L123.7 150L123.7 162.5L123.7 162.5L81.6 162.5z" /></clipPath><clipPath id="40"><path d="M0 -0.9000244L595.3 -0.9000244L595.3 -0.9000244L595.3 841L595.3 841L0 841z" /></clipPath><clipPath id="41"><path d="M123.65 150L180 150L180 150L180 162.5L180 162.5L123.65 162.5z" /></clipPath><clipPath id="42"><path d="M0 -0.9000244L595.3 -0.9000244L595.3 -0.9000244L595.3 841L595.3 841L0 841z" /></clipPath><clipPath id="43"><path d="M179.95 150L259.4 150L259.4 150L259.4 162.5L259.4 162.5L179.95 162.5z" /></clipPath><clipPath id="44"><path d="M0 -0.9000244L595.3 -0.9000244L595.3 -0.9000244L595.3 841L595.3 841L0 841z" /></clipPath><clipPath id="45"><path d="M259.35 150L321.25 150L321.25 150L321.25 162.5L321.25 162.5L259.35 162.5z" /></clipPath><clipPath id="46"><path d="M0 -0.9000244L595.3 -0.9000244L595.3 -0.9000244L595.3 841L595.3 841L0 841z" /></clipPath><clipPath id="47"><path d="M321.2 150L377.5 150L377.5 150L377.5 162.5L377.5 162.5L321.2 162.5z" /></clipPath><clipPath id="48"><path d="M0 -0.9000244L595.3 -0.9000244L595.3 -0.9000244L595.3 841L595.3 841L0 841z" /></clipPath><clipPath id="49"><path d="M377.45 150L453.15 150L453.15 150L453.15 162.5L453.15 162.5L377.45 162.5z" /></clipPath><clipPath id="50"><path d="M0 -0.9000244L595.3 -0.9000244L595.3 -0.9000244L595.3 841L595.3 841L0 841z" /></clipPath><clipPath id="51"><path d="M453.1 150L513.75 150L513.75 150L513.75 162.5L513.75 162.5L453.1 162.5z" /></clipPath><clipPath id="52"><path d="M0 -0.9000244L595.3 -0.9000244L595.3 -0.9000244L595.3 841L595.3 841L0 841z" /></clipPath><clipPath id="53"><path d="M81.6 162.5L123.7 162.5L123.7 162.5L123.7 175L123.7 175L81.6 175z" /></clipPath><clipPath id="54"><path d="M0 -0.9000244L595.3 -0.9000244L595.3 -0.9000244L595.3 841L595.3 841L0 841z" /></clipPath><clipPath id="55"><path d="M123.65 162.5L180 162.5L180 162.5L180 175L180 175L123.65 175z" /></clipPath><clipPath id="56"><path d="M0 -0.9000244L595.3 -0.9000244L595.3 -0.9000244L595.3 841L595.3 841L0 841z" /></clipPath><clipPath id="57"><path d="M179.95 162.5L259.4 162.5L259.4 162.5L259.4 175L259.4 175L179.95 175z" /></clipPath><clipPath id="58"><path d="M0 -0.9000244L595.3 -0.9000244L595.3 -0.9000244L595.3 841L595.3 841L0 841z" /></clipPath><clipPath id="59"><path d="M259.35 162.5L321.25 162.5L321.25 162.5L321.25 175L321.25 175L259.35 175z" /></clipPath><clipPath id="60"><path d="M0 -0.9000244L595.3 -0.9000244L595.3 -0.9000244L595.3 841L595.3 841L0 841z" /></clipPath><clipPath id="61"><path d="M321.2 162.5L377.5 162.5L377.5 162.5L377.5 175L377.5 175L321.2 175z" /></clipPath><clipPath id="62"><path d="M0 -0.9000244L595.3 -0.9000244L595.3 -0.9000244L595.3 841L595.3 841L0 841z" /></clipPath><clipPath id="63"><path d="M377.45 162.5L453.15 162.5L453.15 162.5L453.15 175L453.15 175L377.45 175z" /></clipPath><clipPath id="64"><path d="M0 -0.9000244L595.3 -0.9000244L595.3 -0.9000244L595.3 841L595.3 841L0 841z" /></clipPath><clipPath id="65"><path d="M453.1 162.5L513.75 162.5L513.75 162.5L513.75 175L513.75 175L453.1 175z" /></clipPath><clipPath id="66"><path d="M0 -0.9000244L595.3 -0.9000244L595.3 -0.9000244L595.3 841L595.3 841L0 841z" /></clipPath><clipPath id="67"><path d="M81.6 175L123.7 175L123.7 175L123.7 187.5L123.7 187.5L81.6 187.5z" /></clipPath><clipPath id="68"><path d="M0 -0.9000244L595.3 -0.9000244L595.3 -0.9000244L595.3 841L595.3 841L0 841z" /></clipPath><clipPath id="69"><path d="M123.65 175L180 175L180 175L180 187.5L180 187.5L123.65 187.5z" /></clipPath><clipPath id="70"><path d="M0 -0.9000244L595.3 -0.9000244L595.3 -0.9000244L595.3 841L595.3 841L0 841z" /></clipPath><clipPath id="71"><path d="M179.95 175L259.4 175L259.4 175L259.4 187.5L259.4 187.5L179.95 187.5z" /></clipPath><clipPath id="72"><path d="M0 -0.9000244L595.3 -0.9000244L595.3 -0.9000244L595.3 841L595.3 841L0 841z" /></clipPath><clipPath id="73"><path d="M259.35 175L321.25 175L321.25 175L321.25 187.5L321.25 187.5L259.35 187.5z" /></clipPath><clipPath id="74"><path d="M0 -0.9000244L595.3 -0.9000244L595.3 -0.9000244L595.3 841L595.3 841L0 841z" /></clipPath><clipPath id="75"><path d="M321.2 175L377.5 175L377.5 175L377.5 187.5L377.5 187.5L321.2 187.5z" /></clipPath><clipPath id="76"><path d="M0 -0.9000244L595.3 -0.9000244L595.3 -0.9000244L595.3 841L595.3 841L0 841z" /></clipPath><clipPath id="77"><path d="M377.45 175L453.15 175L453.15 175L453.15 187.5L453.15 187.5L377.45 187.5z" /></clipPath><clipPath id="78"><path d="M0 -0.9000244L595.3 -0.9000244L595.3 -0.9000244L595.3 841L595.3 841L0 841z" /></clipPath><clipPath id="79"><path d="M453.1 175L513.75 175L513.75 175L513.75 187.5L513.75 187.5L453.1 187.5z" /></clipPath><clipPath id="80"><path d="M0 -0.9000244L595.3 -0.9000244L595.3 -0.9000244L595.3 841L595.3 841L0 841z" /></clipPath><clipPath id="81"><path d="M81.6 187.5L123.7 187.5L123.7 187.5L123.7 200L123.7 200L81.6 200z" /></clipPath><clipPath id="82"><path d="M0 -0.9000244L595.3 -0.9000244L595.3 -0.9000244L595.3 841L595.3 841L0 841z" /></clipPath><clipPath id="83"><path d="M123.65 187.5L180 187.5L180 187.5L180 200L180 200L123.65 200z" /></clipPath><clipPath id="84"><path d="M0 -0.9000244L595.3 -0.9000244L595.3 -0.9000244L595.3 841L595.3 841L0 841z" /></clipPath><clipPath id="85"><path d="M179.95 187.5L259.4 187.5L259.4 187.5L259.4 200L259.4 200L179.95 200z" /></clipPath><clipPath id="86"><path d="M0 -0.9000244L595.3 -0.9000244L595.3 -0.9000244L595.3 841L595.3 841L0 841z" /></clipPath><clipPath id="87"><path d="M259.35 187.5L321.25 187.5L321.25 187.5L321.25 200L321.25 200L259.35 200z" /></clipPath><clipPath id="88"><path d="M0 -0.9000244L595.3 -0.9000244L595.3 -0.9000244L595.3 841L595.3 841L0 841z" /></clipPath><clipPath id="89"><path d="M321.2 187.5L377.5 187.5L377.5 187.5L377.5 200L377.5 200L321.2 200z" /></clipPath><clipPath id="90"><path d="M0 -0.9000244L595.3 -0.9000244L595.3 -0.9000244L595.3 841L595.3 841L0 841z" /></clipPath><clipPath id="91"><path d="M377.45 187.5L453.15 187.5L453.15 187.5L453.15 200L453.15 200L377.45 200z" /></clipPath><clipPath id="92"><path d="M0 -0.9000244L595.3 -0.9000244L595.3 -0.9000244L595.3 841L595.3 841L0 841z" /></clipPath><clipPath id="93"><path d="M453.1 187.5L513.75 187.5L513.75 187.5L513.75 200L513.75 200L453.1 200z" /></clipPath><clipPath id="94"><path d="M0 -0.9000244L595.3 -0.9000244L595.3 -0.9000244L595.3 841L595.3 841L0 841z" /></clipPath><clipPath id="95"><path d="M81.6 200L123.7 200L123.7 200L123.7 212.5L123.7 212.5L81.6 212.5z" /></clipPath><clipPath id="96"><path d="M0 -0.9000244L595.3 -0.9000244L595.3 -0.9000244L595.3 841L595.3 841L0 841z" /></clipPath><clipPath id="97"><path d="M123.65 200L180 200L180 200L180 212.5L180 212.5L123.65 212.5z" /></clipPath><clipPath id="98"><path d="M0 -0.9000244L595.3 -0.9000244L595.3 -0.9000244L595.3 841L595.3 841L0 841z" /></clipPath><clipPath id="99"><path d="M179.95 200L259.4 200L259.4 200L259.4 212.5L259.4 212.5L179.95 212.5z" /></clipPath><clipPath id="100"><path d="M0 -0.9000244L595.3 -0.9000244L595.3 -0.9000244L595.3 841L595.3 841L0 841z" /></clipPath><clipPath id="101"><path d="M259.35 200L321.25 200L321.25 200L321.25 212.5L321.25 212.5L259.35 212.5z" /></clipPath><clipPath id="102"><path d="M0 -0.9000244L595.3 -0.9000244L595.3 -0.9000244L595.3 841L595.3 841L0 841z" /></clipPath><clipPath id="103"><path d="M321.2 200L377.5 200L377.5 200L377.5 212.5L377.5 212.5L321.2 212.5z" /></clipPath><clipPath id="104"><path d="M0 -0.9000244L595.3 -0.9000244L595.3 -0.9000244L595.3 841L595.3 841L0 841z" /></clipPath><clipPath id="105"><path d="M377.45 200L453.15 200L453.15 200L453.15 212.5L453.15 212.5L377.45 212.5z" /></clipPath><clipPath id="106"><path d="M0 -0.9000244L595.3 -0.9000244L595.3 -0.9000244L595.3 841L595.3 841L0 841z" /></clipPath><clipPath id="107"><path d="M453.1 200L513.75 200L513.75 200L513.75 212.5L513.75 212.5L453.1 212.5z" /></clipPath><clipPath id="108"><path d="M0 -0.9000244L595.3 -0.9000244L595.3 -0.9000244L595.3 841L595.3 841L0 841z" /></clipPath><clipPath id="109"><path d="M81.6 212.5L123.7 212.5L123.7 212.5L123.7 225L123.7 225L81.6 225z" /></clipPath><clipPath id="110"><path d="M0 -0.9000244L595.3 -0.9000244L595.3 -0.9000244L595.3 841L595.3 841L0 841z" /></clipPath><clipPath id="111"><path d="M123.65 212.5L180 212.5L180 212.5L180 225L180 225L123.65 225z" /></clipPath><clipPath id="112"><path d="M0 -0.9000244L595.3 -0.9000244L595.3 -0.9000244L595.3 841L595.3 841L0 841z" /></clipPath><clipPath id="113"><path d="M179.95 212.5L259.4 212.5L259.4 212.5L259.4 225L259.4 225L179.95 225z" /></clipPath><clipPath id="114"><path d="M0 -0.9000244L595.3 -0.9000244L595.3 -0.9000244L595.3 841L595.3 841L0 841z" /></clipPath><clipPath id="115"><path d="M259.35 212.5L321.25 212.5L321.25 212.5L321.25 225L321.25 225L259.35 225z" /></clipPath><clipPath id="116"><path d="M0 -0.9000244L595.3 -0.9000244L595.3 -0.9000244L595.3 841L595.3 841L0 841z" /></clipPath><clipPath id="117"><path d="M321.2 212.5L377.5 212.5L377.5 212.5L377.5 225L377.5 225L321.2 225z" /></clipPath><clipPath id="118"><path d="M0 -0.9000244L595.3 -0.9000244L595.3 -0.9000244L595.3 841L595.3 841L0 841z" /></clipPath><clipPath id="119"><path d="M377.45 212.5L453.15 212.5L453.15 212.5L453.15 225L453.15 225L377.45 225z" /></clipPath><clipPath id="120"><path d="M0 -0.9000244L595.3 -0.9000244L595.3 -0.9000244L595.3 841L595.3 841L0 841z" /></clipPath><clipPath id="121"><path d="M453.1 212.5L513.75 212.5L513.75 212.5L513.75 225L513.75 225L453.1 225z" /></clipPath><clipPath id="122"><path d="M0 -0.9000244L595.3 -0.9000244L595.3 -0.9000244L595.3 841L595.3 841L0 841z" /></clipPath><clipPath id="123"><path d="M81.6 225L123.7 225L123.7 225L123.7 237.5L123.7 237.5L81.6 237.5z" /></clipPath><clipPath id="124"><path d="M0 -0.9000244L595.3 -0.9000244L595.3 -0.9000244L595.3 841L595.3 841L0 841z" /></clipPath><clipPath id="125"><path d="M123.65 225L180 225L180 225L180 237.5L180 237.5L123.65 237.5z" /></clipPath><clipPath id="126"><path d="M0 -0.9000244L595.3 -0.9000244L595.3 -0.9000244L595.3 841L595.3 841L0 841z" /></clipPath><clipPath id="127"><path d="M179.95 225L259.4 225L259.4 225L259.4 237.5L259.4 237.5L179.95 237.5z" /></clipPath><clipPath id="128"><path d="M0 -0.9000244L595.3 -0.9000244L595.3 -0.9000244L595.3 841L595.3 841L0 841z" /></clipPath><clipPath id="129"><path d="M259.35 225L321.25 225L321.25 225L321.25 237.5L321.25 237.5L259.35 237.5z" /></clipPath><clipPath id="130"><path d="M0 -0.9000244L595.3 -0.9000244L595.3 -0.9000244L595.3 841L595.3 841L0 841z" /></clipPath><clipPath id="131"><path d="M321.2 225L377.5 225L377.5 225L377.5 237.5L377.5 237.5L321.2 237.5z" /></clipPath><clipPath id="132"><path d="M0 -0.9000244L595.3 -0.9000244L595.3 -0.9000244L595.3 841L595.3 841L0 841z" /></clipPath><clipPath id="133"><path d="M377.45 225L453.15 225L453.15 225L453.15 237.5L453.15 237.5L377.45 237.5z" /></clipPath><clipPath id="134"><path d="M0 -0.9000244L595.3 -0.9000244L595.3 -0.9000244L595.3 841L595.3 841L0 841z" /></clipPath><clipPath id="135"><path d="M453.1 225L513.75 225L513.75 225L513.75 237.5L513.75 237.5L453.1 237.5z" /></clipPath><clipPath id="136"><path d="M0 -0.9000244L595.3 -0.9000244L595.3 -0.9000244L595.3 841L595.3 841L0 841z" /></clipPath><clipPath id="137"><path d="M81.6 237.5L123.7 237.5L123.7 237.5L123.7 250L123.7 250L81.6 250z" /></clipPath><clipPath id="138"><path d="M0 -0.9000244L595.3 -0.9000244L595.3 -0.9000244L595.3 841L595.3 841L0 841z" /></clipPath><clipPath id="139"><path d="M123.65 237.5L180 237.5L180 237.5L180 250L180 250L123.65 250z" /></clipPath><clipPath id="140"><path d="M0 -0.9000244L595.3 -0.9000244L595.3 -0.9000244L595.3 841L595.3 841L0 841z" /></clipPath><clipPath id="141"><path d="M179.95 237.5L259.4 237.5L259.4 237.5L259.4 250L259.4 250L179.95 250z" /></clipPath><clipPath id="142"><path d="M0 -0.9000244L595.3 -0.9000244L595.3 -0.9000244L595.3 841L595.3 841L0 841z" /></clipPath><clipPath id="143"><path d="M259.35 237.5L321.25 237.5L321.25 237.5L321.25 250L321.25 250L259.35 250z" /></clipPath><clipPath id="144"><path d="M0 -0.9000244L595.3 -0.9000244L595.3 -0.9000244L595.3 841L595.3 841L0 841z" /></clipPath><clipPath id="145"><path d="M321.2 237.5L377.5 237.5L377.5 237.5L377.5 250L377.5 250L321.2 250z" /></clipPath><clipPath id="146"><path d="M0 -0.9000244L595.3 -0.9000244L595.3 -0.9000244L595.3 841L595.3 841L0 841z" /></clipPath><clipPath id="147"><path d="M377.45 237.5L453.15 237.5L453.15 237.5L453.15 250L453.15 250L377.45 250z" /></clipPath><clipPath id="148"><path d="M0 -0.9000244L595.3 -0.9000244L595.3 -0.9000244L595.3 841L595.3 841L0 841z" /></clipPath><clipPath id="149"><path d="M453.1 237.5L513.75 237.5L513.75 237.5L513.75 250L513.75 250L453.1 250z" /></clipPath><clipPath id="150"><path d="M0 -0.9000244L595.3 -0.9000244L595.3 -0.9000244L595.3 841L595.3 841L0 841z" /></clipPath><clipPath id="151"><path d="M81.6 250L123.7 250L123.7 250L123.7 262.5L123.7 262.5L81.6 262.5z" /></clipPath><clipPath id="152"><path d="M0 -0.9000244L595.3 -0.9000244L595.3 -0.9000244L595.3 841L595.3 841L0 841z" /></clipPath><clipPath id="153"><path d="M123.65 250L180 250L180 250L180 262.5L180 262.5L123.65 262.5z" /></clipPath><clipPath id="154"><path d="M0 -0.9000244L595.3 -0.9000244L595.3 -0.9000244L595.3 841L595.3 841L0 841z" /></clipPath><clipPath id="155"><path d="M179.95 250L259.4 250L259.4 250L259.4 262.5L259.4 262.5L179.95 262.5z" /></clipPath><clipPath id="156"><path d="M0 -0.9000244L595.3 -0.9000244L595.3 -0.9000244L595.3 841L595.3 841L0 841z" /></clipPath><clipPath id="157"><path d="M259.35 250L321.25 250L321.25 250L321.25 262.5L321.25 262.5L259.35 262.5z" /></clipPath><clipPath id="158"><path d="M0 -0.9000244L595.3 -0.9000244L595.3 -0.9000244L595.3 841L595.3 841L0 841z" /></clipPath><clipPath id="159"><path d="M321.2 250L377.5 250L377.5 250L377.5 262.5L377.5 262.5L321.2 262.5z" /></clipPath><clipPath id="160"><path d="M0 -0.9000244L595.3 -0.9000244L595.3 -0.9000244L595.3 841L595.3 841L0 841z" /></clipPath><clipPath id="161"><path d="M377.45 250L453.15 250L453.15 250L453.15 262.5L453.15 262.5L377.45 262.5z" /></clipPath><clipPath id="162"><path d="M0 -0.9000244L595.3 -0.9000244L595.3 -0.9000244L595.3 841L595.3 841L0 841z" /></clipPath><clipPath id="163"><path d="M453.1 250L513.75 250L513.75 250L513.75 262.5L513.75 262.5L453.1 262.5z" /></clipPath><clipPath id="164"><path d="M0 -0.9000244L595.3 -0.9000244L595.3 -0.9000244L595.3 841L595.3 841L0 841z" /></clipPath><clipPath id="165"><path d="M81.6 262.5L123.7 262.5L123.7 262.5L123.7 275L123.7 275L81.6 275z" /></clipPath><clipPath id="166"><path d="M0 -0.9000244L595.3 -0.9000244L595.3 -0.9000244L595.3 841L595.3 841L0 841z" /></clipPath><clipPath id="167"><path d="M123.65 262.5L180 262.5L180 262.5L180 275L180 275L123.65 275z" /></clipPath><clipPath id="168"><path d="M0 -0.9000244L595.3 -0.9000244L595.3 -0.9000244L595.3 841L595.3 841L0 841z" /></clipPath><clipPath id="169"><path d="M179.95 262.5L259.4 262.5L259.4 262.5L259.4 275L259.4 275L179.95 275z" /></clipPath><clipPath id="170"><path d="M0 -0.9000244L595.3 -0.9000244L595.3 -0.9000244L595.3 841L595.3 841L0 841z" /></clipPath><clipPath id="171"><path d="M259.35 262.5L321.25 262.5L321.25 262.5L321.25 275L321.25 275L259.35 275z" /></clipPath><clipPath id="172"><path d="M0 -0.9000244L595.3 -0.9000244L595.3 -0.9000244L595.3 841L595.3 841L0 841z" /></clipPath><clipPath id="173"><path d="M321.2 262.5L377.5 262.5L377.5 262.5L377.5 275L377.5 275L321.2 275z" /></clipPath><clipPath id="174"><path d="M0 -0.9000244L595.3 -0.9000244L595.3 -0.9000244L595.3 841L595.3 841L0 841z" /></clipPath><clipPath id="175"><path d="M377.45 262.5L453.15 262.5L453.15 262.5L453.15 275L453.15 275L377.45 275z" /></clipPath><clipPath id="176"><path d="M0 -0.9000244L595.3 -0.9000244L595.3 -0.9000244L595.3 841L595.3 841L0 841z" /></clipPath><clipPath id="177"><path d="M453.1 262.5L513.75 262.5L513.75 262.5L513.75 275L513.75 275L453.1 275z" /></clipPath><clipPath id="178"><path d="M0 -0.9000244L595.3 -0.9000244L595.3 -0.9000244L595.3 841L595.3 841L0 841z" /></clipPath><clipPath id="179"><path d="M81.6 275L123.7 275L123.7 275L123.7 287.5L123.7 287.5L81.6 287.5z" /></clipPath><clipPath id="180"><path d="M0 -0.9000244L595.3 -0.9000244L595.3 -0.9000244L595.3 841L595.3 841L0 841z" /></clipPath><clipPath id="181"><path d="M123.65 275L180 275L180 275L180 287.5L180 287.5L123.65 287.5z" /></clipPath><clipPath id="182"><path d="M0 -0.9000244L595.3 -0.9000244L595.3 -0.9000244L595.3 841L595.3 841L0 841z" /></clipPath><clipPath id="183"><path d="M179.95 275L259.4 275L259.4 275L259.4 287.5L259.4 287.5L179.95 287.5z" /></clipPath><clipPath id="184"><path d="M0 -0.9000244L595.3 -0.9000244L595.3 -0.9000244L595.3 841L595.3 841L0 841z" /></clipPath><clipPath id="185"><path d="M259.35 275L321.25 275L321.25 275L321.25 287.5L321.25 287.5L259.35 287.5z" /></clipPath><clipPath id="186"><path d="M0 -0.9000244L595.3 -0.9000244L595.3 -0.9000244L595.3 841L595.3 841L0 841z" /></clipPath><clipPath id="187"><path d="M321.2 275L377.5 275L377.5 275L377.5 287.5L377.5 287.5L321.2 287.5z" /></clipPath><clipPath id="188"><path d="M0 -0.9000244L595.3 -0.9000244L595.3 -0.9000244L595.3 841L595.3 841L0 841z" /></clipPath><clipPath id="189"><path d="M377.45 275L453.15 275L453.15 275L453.15 287.5L453.15 287.5L377.45 287.5z" /></clipPath><clipPath id="190"><path d="M0 -0.9000244L595.3 -0.9000244L595.3 -0.9000244L595.3 841L595.3 841L0 841z" /></clipPath><clipPath id="191"><path d="M453.1 275L513.75 275L513.75 275L513.75 287.5L513.75 287.5L453.1 287.5z" /></clipPath><clipPath id="192"><path d="M0 -0.9000244L595.3 -0.9000244L595.3 -0.9000244L595.3 841L595.3 841L0 841z" /></clipPath><clipPath id="193"><path d="M81.6 287.5L123.7 287.5L123.7 287.5L123.7 300L123.7 300L81.6 300z" /></clipPath><clipPath id="194"><path d="M0 -0.9000244L595.3 -0.9000244L595.3 -0.9000244L595.3 841L595.3 841L0 841z" /></clipPath><clipPath id="195"><path d="M123.65 287.5L180 287.5L180 287.5L180 300L180 300L123.65 300z" /></clipPath><clipPath id="196"><path d="M0 -0.9000244L595.3 -0.9000244L595.3 -0.9000244L595.3 841L595.3 841L0 841z" /></clipPath><clipPath id="197"><path d="M179.95 287.5L259.4 287.5L259.4 287.5L259.4 300L259.4 300L179.95 300z" /></clipPath><clipPath id="198"><path d="M0 -0.9000244L595.3 -0.9000244L595.3 -0.9000244L595.3 841L595.3 841L0 841z" /></clipPath><clipPath id="199"><path d="M259.35 287.5L321.25 287.5L321.25 287.5L321.25 300L321.25 300L259.35 300z" /></clipPath><clipPath id="200"><path d="M0 -0.9000244L595.3 -0.9000244L595.3 -0.9000244L595.3 841L595.3 841L0 841z" /></clipPath><clipPath id="201"><path d="M321.2 287.5L377.5 287.5L377.5 287.5L377.5 300L377.5 300L321.2 300z" /></clipPath><clipPath id="202"><path d="M0 -0.9000244L595.3 -0.9000244L595.3 -0.9000244L595.3 841L595.3 841L0 841z" /></clipPath><clipPath id="203"><path d="M377.45 287.5L453.15 287.5L453.15 287.5L453.15 300L453.15 300L377.45 300z" /></clipPath><clipPath id="204"><path d="M0 -0.9000244L595.3 -0.9000244L595.3 -0.9000244L595.3 841L595.3 841L0 841z" /></clipPath><clipPath id="205"><path d="M453.1 287.5L513.75 287.5L513.75 287.5L513.75 300L513.75 300L453.1 300z" /></clipPath><clipPath id="206"><path d="M0 -0.9000244L595.3 -0.9000244L595.3 -0.9000244L595.3 841L595.3 841L0 841z" /></clipPath><clipPath id="207"><path d="M81.6 300L123.7 300L123.7 300L123.7 312.5L123.7 312.5L81.6 312.5z" /></clipPath><clipPath id="208"><path d="M0 -0.9000244L595.3 -0.9000244L595.3 -0.9000244L595.3 841L595.3 841L0 841z" /></clipPath><clipPath id="209"><path d="M123.65 300L180 300L180 300L180 312.5L180 312.5L123.65 312.5z" /></clipPath><clipPath id="210"><path d="M0 -0.9000244L595.3 -0.9000244L595.3 -0.9000244L595.3 841L595.3 841L0 841z" /></clipPath><clipPath id="211"><path d="M179.95 300L259.4 300L259.4 300L259.4 312.5L259.4 312.5L179.95 312.5z" /></clipPath><clipPath id="212"><path d="M0 -0.9000244L595.3 -0.9000244L595.3 -0.9000244L595.3 841L595.3 841L0 841z" /></clipPath><clipPath id="213"><path d="M259.35 300L321.25 300L321.25 300L321.25 312.5L321.25 312.5L259.35 312.5z" /></clipPath><clipPath id="214"><path d="M0 -0.9000244L595.3 -0.9000244L595.3 -0.9000244L595.3 841L595.3 841L0 841z" /></clipPath><clipPath id="215"><path d="M321.2 300L377.5 300L377.5 300L377.5 312.5L377.5 312.5L321.2 312.5z" /></clipPath><clipPath id="216"><path d="M0 -0.9000244L595.3 -0.9000244L595.3 -0.9000244L595.3 841L595.3 841L0 841z" /></clipPath><clipPath id="217"><path d="M377.45 300L453.15 300L453.15 300L453.15 312.5L453.15 312.5L377.45 312.5z" /></clipPath><clipPath id="218"><path d="M0 -0.9000244L595.3 -0.9000244L595.3 -0.9000244L595.3 841L595.3 841L0 841z" /></clipPath><clipPath id="219"><path d="M453.1 300L513.75 300L513.75 300L513.75 312.5L513.75 312.5L453.1 312.5z" /></clipPath><clipPath id="220"><path d="M0 -0.9000244L595.3 -0.9000244L595.3 -0.9000244L595.3 841L595.3 841L0 841z" /></clipPath><clipPath id="221"><path d="M81.6 312.5L123.7 312.5L123.7 312.5L123.7 325L123.7 325L81.6 325z" /></clipPath><clipPath id="222"><path d="M0 -0.9000244L595.3 -0.9000244L595.3 -0.9000244L595.3 841L595.3 841L0 841z" /></clipPath><clipPath id="223"><path d="M123.65 312.5L180 312.5L180 312.5L180 325L180 325L123.65 325z" /></clipPath><clipPath id="224"><path d="M0 -0.9000244L595.3 -0.9000244L595.3 -0.9000244L595.3 841L595.3 841L0 841z" /></clipPath><clipPath id="225"><path d="M179.95 312.5L259.4 312.5L259.4 312.5L259.4 325L259.4 325L179.95 325z" /></clipPath><clipPath id="226"><path d="M0 -0.9000244L595.3 -0.9000244L595.3 -0.9000244L595.3 841L595.3 841L0 841z" /></clipPath><clipPath id="227"><path d="M259.35 312.5L321.25 312.5L321.25 312.5L321.25 325L321.25 325L259.35 325z" /></clipPath><clipPath id="228"><path d="M0 -0.9000244L595.3 -0.9000244L595.3 -0.9000244L595.3 841L595.3 841L0 841z" /></clipPath><clipPath id="229"><path d="M321.2 312.5L377.5 312.5L377.5 312.5L377.5 325L377.5 325L321.2 325z" /></clipPath><clipPath id="230"><path d="M0 -0.9000244L595.3 -0.9000244L595.3 -0.9000244L595.3 841L595.3 841L0 841z" /></clipPath><clipPath id="231"><path d="M377.45 312.5L453.15 312.5L453.15 312.5L453.15 325L453.15 325L377.45 325z" /></clipPath><clipPath id="232"><path d="M0 -0.9000244L595.3 -0.9000244L595.3 -0.9000244L595.3 841L595.3 841L0 841z" /></clipPath><clipPath id="233"><path d="M453.1 312.5L513.75 312.5L513.75 312.5L513.75 325L513.75 325L453.1 325z" /></clipPath><clipPath id="234"><path d="M0 -0.9000244L595.3 -0.9000244L595.3 -0.9000244L595.3 841L595.3 841L0 841z" /></clipPath><clipPath id="235"><path d="M81.6 325L123.7 325L123.7 325L123.7 337.5L123.7 337.5L81.6 337.5z" /></clipPath><clipPath id="236"><path d="M0 -0.9000244L595.3 -0.9000244L595.3 -0.9000244L595.3 841L595.3 841L0 841z" /></clipPath><clipPath id="237"><path d="M123.65 325L180 325L180 325L180 337.5L180 337.5L123.65 337.5z" /></clipPath><clipPath id="238"><path d="M0 -0.9000244L595.3 -0.9000244L595.3 -0.9000244L595.3 841L595.3 841L0 841z" /></clipPath><clipPath id="239"><path d="M179.95 325L259.4 325L259.4 325L259.4 337.5L259.4 337.5L179.95 337.5z" /></clipPath><clipPath id="240"><path d="M0 -0.9000244L595.3 -0.9000244L595.3 -0.9000244L595.3 841L595.3 841L0 841z" /></clipPath><clipPath id="241"><path d="M259.35 325L321.25 325L321.25 325L321.25 337.5L321.25 337.5L259.35 337.5z" /></clipPath><clipPath id="242"><path d="M0 -0.9000244L595.3 -0.9000244L595.3 -0.9000244L595.3 841L595.3 841L0 841z" /></clipPath><clipPath id="243"><path d="M321.2 325L377.5 325L377.5 325L377.5 337.5L377.5 337.5L321.2 337.5z" /></clipPath><clipPath id="244"><path d="M0 -0.9000244L595.3 -0.9000244L595.3 -0.9000244L595.3 841L595.3 841L0 841z" /></clipPath><clipPath id="245"><path d="M377.45 325L453.15 325L453.15 325L453.15 337.5L453.15 337.5L377.45 337.5z" /></clipPath><clipPath id="246"><path d="M0 -0.9000244L595.3 -0.9000244L595.3 -0.9000244L595.3 841L595.3 841L0 841z" /></clipPath><clipPath id="247"><path d="M453.1 325L513.75 325L513.75 325L513.75 337.5L513.75 337.5L453.1 337.5z" /></clipPath><clipPath id="248"><path d="M0 -0.9000244L595.3 -0.9000244L595.3 -0.9000244L595.3 841L595.3 841L0 841z" /></clipPath><clipPath id="249"><path d="M81.6 337.5L123.7 337.5L123.7 337.5L123.7 350L123.7 350L81.6 350z" /></clipPath><clipPath id="250"><path d="M0 -0.9000244L595.3 -0.9000244L595.3 -0.9000244L595.3 841L595.3 841L0 841z" /></clipPath><clipPath id="251"><path d="M123.65 337.5L180 337.5L180 337.5L180 350L180 350L123.65 350z" /></clipPath><clipPath id="252"><path d="M0 -0.9000244L595.3 -0.9000244L595.3 -0.9000244L595.3 841L595.3 841L0 841z" /></clipPath><clipPath id="253"><path d="M179.95 337.5L259.4 337.5L259.4 337.5L259.4 350L259.4 350L179.95 350z" /></clipPath><clipPath id="254"><path d="M0 -0.9000244L595.3 -0.9000244L595.3 -0.9000244L595.3 841L595.3 841L0 841z" /></clipPath><clipPath id="255"><path d="M259.35 337.5L321.25 337.5L321.25 337.5L321.25 350L321.25 350L259.35 350z" /></clipPath><clipPath id="256"><path d="M0 -0.9000244L595.3 -0.9000244L595.3 -0.9000244L595.3 841L595.3 841L0 841z" /></clipPath><clipPath id="257"><path d="M321.2 337.5L377.5 337.5L377.5 337.5L377.5 350L377.5 350L321.2 350z" /></clipPath><clipPath id="258"><path d="M0 -0.9000244L595.3 -0.9000244L595.3 -0.9000244L595.3 841L595.3 841L0 841z" /></clipPath><clipPath id="259"><path d="M377.45 337.5L453.15 337.5L453.15 337.5L453.15 350L453.15 350L377.45 350z" /></clipPath><clipPath id="260"><path d="M0 -0.9000244L595.3 -0.9000244L595.3 -0.9000244L595.3 841L595.3 841L0 841z" /></clipPath><clipPath id="261"><path d="M453.1 337.5L513.75 337.5L513.75 337.5L513.75 350L513.75 350L453.1 350z" /></clipPath><clipPath id="262"><path d="M0 -0.9000244L595.3 -0.9000244L595.3 -0.9000244L595.3 841L595.3 841L0 841z" /></clipPath><clipPath id="263"><path d="M81.6 350L123.7 350L123.7 350L123.7 362.5L123.7 362.5L81.6 362.5z" /></clipPath><clipPath id="264"><path d="M0 -0.9000244L595.3 -0.9000244L595.3 -0.9000244L595.3 841L595.3 841L0 841z" /></clipPath><clipPath id="265"><path d="M123.65 350L180 350L180 350L180 362.5L180 362.5L123.65 362.5z" /></clipPath><clipPath id="266"><path d="M0 -0.9000244L595.3 -0.9000244L595.3 -0.9000244L595.3 841L595.3 841L0 841z" /></clipPath><clipPath id="267"><path d="M179.95 350L259.4 350L259.4 350L259.4 362.5L259.4 362.5L179.95 362.5z" /></clipPath><clipPath id="268"><path d="M0 -0.9000244L595.3 -0.9000244L595.3 -0.9000244L595.3 841L595.3 841L0 841z" /></clipPath><clipPath id="269"><path d="M259.35 350L321.25 350L321.25 350L321.25 362.5L321.25 362.5L259.35 362.5z" /></clipPath><clipPath id="270"><path d="M0 -0.9000244L595.3 -0.9000244L595.3 -0.9000244L595.3 841L595.3 841L0 841z" /></clipPath><clipPath id="271"><path d="M321.2 350L377.5 350L377.5 350L377.5 362.5L377.5 362.5L321.2 362.5z" /></clipPath><clipPath id="272"><path d="M0 -0.9000244L595.3 -0.9000244L595.3 -0.9000244L595.3 841L595.3 841L0 841z" /></clipPath><clipPath id="273"><path d="M377.45 350L453.15 350L453.15 350L453.15 362.5L453.15 362.5L377.45 362.5z" /></clipPath><clipPath id="274"><path d="M0 -0.9000244L595.3 -0.9000244L595.3 -0.9000244L595.3 841L595.3 841L0 841z" /></clipPath><clipPath id="275"><path d="M453.1 350L513.75 350L513.75 350L513.75 362.5L513.75 362.5L453.1 362.5z" /></clipPath><clipPath id="276"><path d="M0 -0.9000244L595.3 -0.9000244L595.3 -0.9000244L595.3 841L595.3 841L0 841z" /></clipPath><clipPath id="277"><path d="M81.6 362.5L123.7 362.5L123.7 362.5L123.7 375L123.7 375L81.6 375z" /></clipPath><clipPath id="278"><path d="M0 -0.9000244L595.3 -0.9000244L595.3 -0.9000244L595.3 841L595.3 841L0 841z" /></clipPath><clipPath id="279"><path d="M123.65 362.5L180 362.5L180 362.5L180 375L180 375L123.65 375z" /></clipPath><clipPath id="280"><path d="M0 -0.9000244L595.3 -0.9000244L595.3 -0.9000244L595.3 841L595.3 841L0 841z" /></clipPath><clipPath id="281"><path d="M179.95 362.5L259.4 362.5L259.4 362.5L259.4 375L259.4 375L179.95 375z" /></clipPath><clipPath id="282"><path d="M0 -0.9000244L595.3 -0.9000244L595.3 -0.9000244L595.3 841L595.3 841L0 841z" /></clipPath><clipPath id="283"><path d="M259.35 362.5L321.25 362.5L321.25 362.5L321.25 375L321.25 375L259.35 375z" /></clipPath><clipPath id="284"><path d="M0 -0.9000244L595.3 -0.9000244L595.3 -0.9000244L595.3 841L595.3 841L0 841z" /></clipPath><clipPath id="285"><path d="M321.2 362.5L377.5 362.5L377.5 362.5L377.5 375L377.5 375L321.2 375z" /></clipPath><clipPath id="286"><path d="M0 -0.9000244L595.3 -0.9000244L595.3 -0.9000244L595.3 841L595.3 841L0 841z" /></clipPath><clipPath id="287"><path d="M377.45 362.5L453.15 362.5L453.15 362.5L453.15 375L453.15 375L377.45 375z" /></clipPath><clipPath id="288"><path d="M0 -0.9000244L595.3 -0.9000244L595.3 -0.9000244L595.3 841L595.3 841L0 841z" /></clipPath><clipPath id="289"><path d="M453.1 362.5L513.75 362.5L513.75 362.5L513.75 375L513.75 375L453.1 375z" /></clipPath><clipPath id="290"><path d="M0 -0.9000244L595.3 -0.9000244L595.3 -0.9000244L595.3 841L595.3 841L0 841z" /></clipPath><clipPath id="291"><path d="M81.6 375L123.7 375L123.7 375L123.7 387.5L123.7 387.5L81.6 387.5z" /></clipPath><clipPath id="292"><path d="M0 -0.9000244L595.3 -0.9000244L595.3 -0.9000244L595.3 841L595.3 841L0 841z" /></clipPath><clipPath id="293"><path d="M123.65 375L180 375L180 375L180 387.5L180 387.5L123.65 387.5z" /></clipPath><clipPath id="294"><path d="M0 -0.9000244L595.3 -0.9000244L595.3 -0.9000244L595.3 841L595.3 841L0 841z" /></clipPath><clipPath id="295"><path d="M179.95 375L259.4 375L259.4 375L259.4 387.5L259.4 387.5L179.95 387.5z" /></clipPath><clipPath id="296"><path d="M0 -0.9000244L595.3 -0.9000244L595.3 -0.9000244L595.3 841L595.3 841L0 841z" /></clipPath><clipPath id="297"><path d="M259.35 375L321.25 375L321.25 375L321.25 387.5L321.25 387.5L259.35 387.5z" /></clipPath><clipPath id="298"><path d="M0 -0.9000244L595.3 -0.9000244L595.3 -0.9000244L595.3 841L595.3 841L0 841z" /></clipPath><clipPath id="299"><path d="M321.2 375L377.5 375L377.5 375L377.5 387.5L377.5 387.5L321.2 387.5z" /></clipPath><clipPath id="300"><path d="M0 -0.9000244L595.3 -0.9000244L595.3 -0.9000244L595.3 841L595.3 841L0 841z" /></clipPath><clipPath id="301"><path d="M377.45 375L453.15 375L453.15 375L453.15 387.5L453.15 387.5L377.45 387.5z" /></clipPath><clipPath id="302"><path d="M0 -0.9000244L595.3 -0.9000244L595.3 -0.9000244L595.3 841L595.3 841L0 841z" /></clipPath><clipPath id="303"><path d="M453.1 375L513.75 375L513.75 375L513.75 387.5L513.75 387.5L453.1 387.5z" /></clipPath><clipPath id="304"><path d="M0 -0.9000244L595.3 -0.9000244L595.3 -0.9000244L595.3 841L595.3 841L0 841z" /></clipPath><clipPath id="305"><path d="M81.6 387.5L123.7 387.5L123.7 387.5L123.7 400L123.7 400L81.6 400z" /></clipPath><clipPath id="306"><path d="M0 -0.9000244L595.3 -0.9000244L595.3 -0.9000244L595.3 841L595.3 841L0 841z" /></clipPath><clipPath id="307"><path d="M123.65 387.5L180 387.5L180 387.5L180 400L180 400L123.65 400z" /></clipPath><clipPath id="308"><path d="M0 -0.9000244L595.3 -0.9000244L595.3 -0.9000244L595.3 841L595.3 841L0 841z" /></clipPath><clipPath id="309"><path d="M179.95 387.5L259.4 387.5L259.4 387.5L259.4 400L259.4 400L179.95 400z" /></clipPath><clipPath id="310"><path d="M0 -0.9000244L595.3 -0.9000244L595.3 -0.9000244L595.3 841L595.3 841L0 841z" /></clipPath><clipPath id="311"><path d="M259.35 387.5L321.25 387.5L321.25 387.5L321.25 400L321.25 400L259.35 400z" /></clipPath><clipPath id="312"><path d="M0 -0.9000244L595.3 -0.9000244L595.3 -0.9000244L595.3 841L595.3 841L0 841z" /></clipPath><clipPath id="313"><path d="M321.2 387.5L377.5 387.5L377.5 387.5L377.5 400L377.5 400L321.2 400z" /></clipPath><clipPath id="314"><path d="M0 -0.9000244L595.3 -0.9000244L595.3 -0.9000244L595.3 841L595.3 841L0 841z" /></clipPath><clipPath id="315"><path d="M377.45 387.5L453.15 387.5L453.15 387.5L453.15 400L453.15 400L377.45 400z" /></clipPath><clipPath id="316"><path d="M0 -0.9000244L595.3 -0.9000244L595.3 -0.9000244L595.3 841L595.3 841L0 841z" /></clipPath><clipPath id="317"><path d="M453.1 387.5L513.75 387.5L513.75 387.5L513.75 400L513.75 400L453.1 400z" /></clipPath><clipPath id="318"><path d="M0 -0.9000244L595.3 -0.9000244L595.3 -0.9000244L595.3 841L595.3 841L0 841z" /></clipPath><clipPath id="319"><path d="M81.6 400L123.7 400L123.7 400L123.7 414.05L123.7 414.05L81.6 414.05z" /></clipPath><clipPath id="320"><path d="M0 -0.9000244L595.3 -0.9000244L595.3 -0.9000244L595.3 841L595.3 841L0 841z" /></clipPath><clipPath id="321"><path d="M123.65 400L180 400L180 400L180 414.05L180 414.05L123.65 414.05z" /></clipPath><clipPath id="322"><path d="M0 -0.9000244L595.3 -0.9000244L595.3 -0.9000244L595.3 841L595.3 841L0 841z" /></clipPath><clipPath id="323"><path d="M179.95 400L259.4 400L259.4 400L259.4 414.05L259.4 414.05L179.95 414.05z" /></clipPath><clipPath id="324"><path d="M0 -0.9000244L595.3 -0.9000244L595.3 -0.9000244L595.3 841L595.3 841L0 841z" /></clipPath><clipPath id="325"><path d="M259.35 400L321.25 400L321.25 400L321.25 414.05L321.25 414.05L259.35 414.05z" /></clipPath><clipPath id="326"><path d="M0 -0.9000244L595.3 -0.9000244L595.3 -0.9000244L595.3 841L595.3 841L0 841z" /></clipPath><clipPath id="327"><path d="M321.2 400L377.5 400L377.5 400L377.5 414.05L377.5 414.05L321.2 414.05z" /></clipPath><clipPath id="328"><path d="M0 -0.9000244L595.3 -0.9000244L595.3 -0.9000244L595.3 841L595.3 841L0 841z" /></clipPath><clipPath id="329"><path d="M377.45 400L453.15 400L453.15 400L453.15 414.05L453.15 414.05L377.45 414.05z" /></clipPath><clipPath id="330"><path d="M0 -0.9000244L595.3 -0.9000244L595.3 -0.9000244L595.3 841L595.3 841L0 841z" /></clipPath><clipPath id="331"><path d="M453.1 400L513.75 400L513.75 400L513.75 414.05L513.75 414.05L453.1 414.05z" /></clipPath><clipPath id="332"><path d="M0 -0.9000244L595.3 -0.9000244L595.3 -0.9000244L595.3 841L595.3 841L0 841z" /></clipPath><clipPath id="333"><path d="M0 -0.9000244L595.3 -0.9000244L595.3 -0.9000244L595.3 841L595.3 841L0 841z" /></clipPath><clipPath id="334"><path d="M-1638.4 481.35L2179.65 481.35L2179.65 481.35L2179.65 509.35L2179.65 509.35L-1638.4 509.35z" /></clipPath><clipPath id="335"><path d="M0 -0.9000244L595.3 -0.9000244L595.3 -0.9000244L595.3 841L595.3 841L0 841z" /></clipPath><clipPath id="336"><path d="M-1638.4 509.45L2179.65 509.45L2179.65 509.45L2179.65 537.45L2179.65 537.45L-1638.4 537.45z" /></clipPath><clipPath id="337"><path d="M0 -0.9000244L595.3 -0.9000244L595.3 -0.9000244L595.3 841L595.3 841L0 841z" /></clipPath><clipPath id="338"><path d="M-1638.4 537.4L2179.65 537.4L2179.65 537.4L2179.65 565.4L2179.65 565.4L-1638.4 565.4z" /></clipPath><clipPath id="339"><path d="M0 -0.9000244L595.3 -0.9000244L595.3 -0.9000244L595.3 841L595.3 841L0 841z" /></clipPath><clipPath id="340"><path d="M-1638.4 565.35L2179.65 565.35L2179.65 565.35L2179.65 593.35L2179.65 593.35L-1638.4 593.35z" /></clipPath><clipPath id="341"><path d="M0 -0.9000244L595.3 -0.9000244L595.3 -0.9000244L595.3 841L595.3 841L0 841z" /></clipPath><clipPath id="342"><path d="M-1638.4 593.45L2179.65 593.45L2179.65 593.45L2179.65 621.45L2179.65 621.45L-1638.4 621.45z" /></clipPath><clipPath id="343"><path d="M0 -0.9000244L595.3 -0.9000244L595.3 -0.9000244L595.3 841L595.3 841L0 841z" /></clipPath><clipPath id="344"><path d="M-1638.4 621.4L2179.65 621.4L2179.65 621.4L2179.65 649.4L2179.65 649.4L-1638.4 649.4z" /></clipPath><clipPath id="345"><path d="M0 -0.9000244L595.3 -0.9000244L595.3 -0.9000244L595.3 841L595.3 841L0 841z" /></clipPath><clipPath id="346"><path d="M-1638.4 649.35L2179.65 649.35L2179.65 649.35L2179.65 677.35L2179.65 677.35L-1638.4 677.35z" /></clipPath><clipPath id="347"><path d="M0 -0.9000244L595.3 -0.9000244L595.3 -0.9000244L595.3 841L595.3 841L0 841z" /></clipPath><clipPath id="348"><path d="M0 -0.9000244L595.3 -0.9000244L595.3 -0.9000244L595.3 841L595.3 841L0 841z" /></clipPath><clipPath id="349"><path d="M-1638.4 701.55L2179.65 701.55L2179.65 701.55L2179.65 729.55L2179.65 729.55L-1638.4 729.55z" /></clipPath><clipPath id="350"><path d="M0 -0.9000244L595.3 -0.9000244L595.3 -0.9000244L595.3 841L595.3 841L0 841z" /></clipPath><clipPath id="351"><path d="M-1638.4 729.5L2179.65 729.5L2179.65 729.5L2179.65 757.5L2179.65 757.5L-1638.4 757.5z" /></clipPath><clipPath id="352"><path d="M0 -0.9000244L595.3 -0.9000244L595.3 -0.9000244L595.3 841L595.3 841L0 841z" /></clipPath></defs><g transform="matrix(1.333333 0 0 1.333333 0 0)"><g><g clip-path="url(#1)"><g clip-path="url(#2)"><g transform="matrix(0.3271429 0 0 0.3275676 55.56 34.5)"><g transform="matrix(1 0 0 1 0 0)"><image x="0" y="0" xlink:href="img_03.png" width="168" height="74" /></g></g><path transform="matrix(1 0 0 -1 0 841)" d="M54 778.4L523.3 778.4L523.3 778.4L523.3 777.6801L523.3 777.6801L54 777.6801z" stroke="none" fill="#000000" fill-rule="evenodd" /></g><g clip-path="url(#3)"><g clip-path="url(#4)"></g></g><g clip-path="url(#5)"></g><g clip-path="url(#6)"><g clip-path="url(#7)"></g></g><g clip-path="url(#8)"><g clip-path="url(#9)"></g></g><g clip-path="url(#10)"><g clip-path="url(#11)"></g></g><g clip-path="url(#12)"><g clip-path="url(#13)"></g></g><g clip-path="url(#14)"><g clip-path="url(#15)"></g></g><g clip-path="url(#16)"><g clip-path="url(#17)"></g></g><g clip-path="url(#18)"><g clip-path="url(#19)"></g></g><g clip-path="url(#20)"><g clip-path="url(#21)"></g></g><g clip-path="url(#22)"><g clip-path="url(#23)"></g></g><g clip-path="url(#24)"><g clip-path="url(#25)"></g></g><g clip-path="url(#26)"><g clip-path="url(#27)"></g></g><g clip-path="url(#28)"><g clip-path="url(#29)"></g></g><g clip-path="url(#30)"><g clip-path="url(#31)"></g></g><g clip-path="url(#32)"><g clip-path="url(#33)"></g></g><g clip-path="url(#34)"><g clip-path="url(#35)"></g></g><g clip-path="url(#36)"><g clip-path="url(#37)"></g></g><g clip-path="url(#38)"><g clip-path="url(#39)"></g></g><g clip-path="url(#40)"><g clip-path="url(#41)"></g></g><g clip-path="url(#42)"><g clip-path="url(#43)"></g></g><g clip-path="url(#44)"><g clip-path="url(#45)"></g></g><g clip-path="url(#46)"><g clip-path="url(#47)"></g></g><g clip-path="url(#48)"><g clip-path="url(#49)"></g></g><g clip-path="url(#50)"><g clip-path="url(#51)"></g></g><g clip-path="url(#52)"><g clip-path="url(#53)"></g></g><g clip-path="url(#54)"><g clip-path="url(#55)"></g></g><g clip-path="url(#56)"><g clip-path="url(#57)"></g></g><g clip-path="url(#58)"><g clip-path="url(#59)"></g></g><g clip-path="url(#60)"><g clip-path="url(#61)"></g></g><g clip-path="url(#62)"><g clip-path="url(#63)"></g></g><g clip-path="url(#64)"><g clip-path="url(#65)"></g></g><g clip-path="url(#66)"><g clip-path="url(#67)"></g></g><g clip-path="url(#68)"><g clip-path="url(#69)"></g></g><g clip-path="url(#70)"><g clip-path="url(#71)"></g></g><g clip-path="url(#72)"><g clip-path="url(#73)"></g></g><g clip-path="url(#74)"><g clip-path="url(#75)"></g></g><g clip-path="url(#76)"><g clip-path="url(#77)"></g></g><g clip-path="url(#78)"><g clip-path="url(#79)"></g></g><g clip-path="url(#80)"><g clip-path="url(#81)"></g></g><g clip-path="url(#82)"><g clip-path="url(#83)"></g></g><g clip-path="url(#84)"><g clip-path="url(#85)"></g></g><g clip-path="url(#86)"><g clip-path="url(#87)"></g></g><g clip-path="url(#88)"><g clip-path="url(#89)"></g></g><g clip-path="url(#90)"><g clip-path="url(#91)"></g></g><g clip-path="url(#92)"><g clip-path="url(#93)"></g></g><g clip-path="url(#94)"><g clip-path="url(#95)"></g></g><g clip-path="url(#96)"><g clip-path="url(#97)"></g></g><g clip-path="url(#98)"><g clip-path="url(#99)"></g></g><g clip-path="url(#100)"><g clip-path="url(#101)"></g></g><g clip-path="url(#102)"><g clip-path="url(#103)"></g></g><g clip-path="url(#104)"><g clip-path="url(#105)"></g></g><g clip-path="url(#106)"><g clip-path="url(#107)"></g></g><g clip-path="url(#108)"><g clip-path="url(#109)"></g></g><g clip-path="url(#110)"><g clip-path="url(#111)"></g></g><g clip-path="url(#112)"><g clip-path="url(#113)"></g></g><g clip-path="url(#114)"><g clip-path="url(#115)"></g></g><g clip-path="url(#116)"><g clip-path="url(#117)"></g></g><g clip-path="url(#118)"><g clip-path="url(#119)"></g></g><g clip-path="url(#120)"><g clip-path="url(#121)"></g></g><g clip-path="url(#122)"><g clip-path="url(#123)"></g></g><g clip-path="url(#124)"><g clip-path="url(#125)"></g></g><g clip-path="url(#126)"><g clip-path="url(#127)"></g></g><g clip-path="url(#128)"><g clip-path="url(#129)"></g></g><g clip-path="url(#130)"><g clip-path="url(#131)"></g></g><g clip-path="url(#132)"><g clip-path="url(#133)"></g></g><g clip-path="url(#134)"><g clip-path="url(#135)"></g></g><g clip-path="url(#136)"><g clip-path="url(#137)"></g></g><g clip-path="url(#138)"><g clip-path="url(#139)"></g></g><g clip-path="url(#140)"><g clip-path="url(#141)"></g></g><g clip-path="url(#142)"><g clip-path="url(#143)"></g></g><g clip-path="url(#144)"><g clip-path="url(#145)"></g></g><g clip-path="url(#146)"><g clip-path="url(#147)"></g></g><g clip-path="url(#148)"><g clip-path="url(#149)"></g></g><g clip-path="url(#150)"><g clip-path="url(#151)"></g></g><g clip-path="url(#152)"><g clip-path="url(#153)"></g></g><g clip-path="url(#154)"><g clip-path="url(#155)"></g></g><g clip-path="url(#156)"><g clip-path="url(#157)"></g></g><g clip-path="url(#158)"><g clip-path="url(#159)"></g></g><g clip-path="url(#160)"><g clip-path="url(#161)"></g></g><g clip-path="url(#162)"><g clip-path="url(#163)"></g></g><g clip-path="url(#164)"><g clip-path="url(#165)"></g></g><g clip-path="url(#166)"><g clip-path="url(#167)"></g></g><g clip-path="url(#168)"><g clip-path="url(#169)"></g></g><g clip-path="url(#170)"><g clip-path="url(#171)"></g></g><g clip-path="url(#172)"><g clip-path="url(#173)"></g></g><g clip-path="url(#174)"><g clip-path="url(#175)"></g></g><g clip-path="url(#176)"><g clip-path="url(#177)"></g></g><g clip-path="url(#178)"><g clip-path="url(#179)"></g></g><g clip-path="url(#180)"><g clip-path="url(#181)"></g></g><g clip-path="url(#182)"><g clip-path="url(#183)"></g></g><g clip-path="url(#184)"><g clip-path="url(#185)"></g></g><g clip-path="url(#186)"><g clip-path="url(#187)"></g></g><g clip-path="url(#188)"><g clip-path="url(#189)"></g></g><g clip-path="url(#190)"><g clip-path="url(#191)"></g></g><g clip-path="url(#192)"><g clip-path="url(#193)"></g></g><g clip-path="url(#194)"><g clip-path="url(#195)"></g></g><g clip-path="url(#196)"><g clip-path="url(#197)"></g></g><g clip-path="url(#198)"><g clip-path="url(#199)"></g></g><g clip-path="url(#200)"><g clip-path="url(#201)"></g></g><g clip-path="url(#202)"><g clip-path="url(#203)"></g></g><g clip-path="url(#204)"><g clip-path="url(#205)"></g></g><g clip-path="url(#206)"><g clip-path="url(#207)"></g></g><g clip-path="url(#208)"><g clip-path="url(#209)"></g></g><g clip-path="url(#210)"><g clip-path="url(#211)"></g></g><g clip-path="url(#212)"><g clip-path="url(#213)"></g></g><g clip-path="url(#214)"><g clip-path="url(#215)"></g></g><g clip-path="url(#216)"><g clip-path="url(#217)"></g></g><g clip-path="url(#218)"><g clip-path="url(#219)"></g></g><g clip-path="url(#220)"><g clip-path="url(#221)"></g></g><g clip-path="url(#222)"><g clip-path="url(#223)"></g></g><g clip-path="url(#224)"><g clip-path="url(#225)"></g></g><g clip-path="url(#226)"><g clip-path="url(#227)"></g></g><g clip-path="url(#228)"><g clip-path="url(#229)"></g></g><g clip-path="url(#230)"><g clip-path="url(#231)"></g></g><g clip-path="url(#232)"><g clip-path="url(#233)"></g></g><g clip-path="url(#234)"><g clip-path="url(#235)"></g></g><g clip-path="url(#236)"><g clip-path="url(#237)"></g></g><g clip-path="url(#238)"><g clip-path="url(#239)"></g></g><g clip-path="url(#240)"><g clip-path="url(#241)"></g></g><g clip-path="url(#242)"><g clip-path="url(#243)"></g></g><g clip-path="url(#244)"><g clip-path="url(#245)"></g></g><g clip-path="url(#246)"><g clip-path="url(#247)"></g></g><g clip-path="url(#248)"><g clip-path="url(#249)"></g></g><g clip-path="url(#250)"><g clip-path="url(#251)"></g></g><g clip-path="url(#252)"><g clip-path="url(#253)"></g></g><g clip-path="url(#254)"><g clip-path="url(#255)"></g></g><g clip-path="url(#256)"><g clip-path="url(#257)"></g></g><g clip-path="url(#258)"><g clip-path="url(#259)"></g></g><g clip-path="url(#260)"><g clip-path="url(#261)"></g></g><g clip-path="url(#262)"><g clip-path="url(#263)"></g></g><g clip-path="url(#264)"><g clip-path="url(#265)"></g></g><g clip-path="url(#266)"><g clip-path="url(#267)"></g></g><g clip-path="url(#268)"><g clip-path="url(#269)"></g></g><g clip-path="url(#270)"><g clip-path="url(#271)"></g></g><g clip-path="url(#272)"><g clip-path="url(#273)"></g></g><g clip-path="url(#274)"><g clip-path="url(#275)"></g></g><g clip-path="url(#276)"><g clip-path="url(#277)"></g></g><g clip-path="url(#278)"><g clip-path="url(#279)"></g></g><g clip-path="url(#280)"><g clip-path="url(#281)"></g></g><g clip-path="url(#282)"><g clip-path="url(#283)"></g></g><g clip-path="url(#284)"><g clip-path="url(#285)"></g></g><g clip-path="url(#286)"><g clip-path="url(#287)"></g></g><g clip-path="url(#288)"><g clip-path="url(#289)"></g></g><g clip-path="url(#290)"><g clip-path="url(#291)"></g></g><g clip-path="url(#292)"><g clip-path="url(#293)"></g></g><g clip-path="url(#294)"><g clip-path="url(#295)"></g></g><g clip-path="url(#296)"><g clip-path="url(#297)"></g></g><g clip-path="url(#298)"><g clip-path="url(#299)"></g></g><g clip-path="url(#300)"><g clip-path="url(#301)"></g></g><g clip-path="url(#302)"><g clip-path="url(#303)"></g></g><g clip-path="url(#304)"><g clip-path="url(#305)"></g></g><g clip-path="url(#306)"><g clip-path="url(#307)"></g></g><g clip-path="url(#308)"><g clip-path="url(#309)"></g></g><g clip-path="url(#310)"><g clip-path="url(#311)"></g></g><g clip-path="url(#312)"><g clip-path="url(#313)"></g></g><g clip-path="url(#314)"><g clip-path="url(#315)"></g></g><g clip-path="url(#316)"><g clip-path="url(#317)"></g></g><g clip-path="url(#318)"><g clip-path="url(#319)"></g></g><g clip-path="url(#320)"><g clip-path="url(#321)"></g></g><g clip-path="url(#322)"><g clip-path="url(#323)"></g></g><g clip-path="url(#324)"><g clip-path="url(#325)"></g></g><g clip-path="url(#326)"><g clip-path="url(#327)"></g></g><g clip-path="url(#328)"><g clip-path="url(#329)"></g></g><g clip-path="url(#330)"><g clip-path="url(#331)"></g></g><g clip-path="url(#332)"><path transform="matrix(1 0 0 -1 0 841)" d="M80.88 753.28L514.42 753.28" stroke="#000000" stroke-width="1.44" fill="none" /><path transform="matrix(1 0 0 -1 0 841)" d="M80.88 427.78L514.42 427.78" stroke="#000000" stroke-width="1.44" fill="none" /><path transform="matrix(1 0 0 -1 0 841)" d="M123.41 734.26L512.98 734.26" stroke="#000000" stroke-width="0.48" fill="none" /><path transform="matrix(1 0 0 -1 0 841)" d="M82.32 703.26L512.98 703.26" stroke="#000000" stroke-width="0.48" fill="none" /><path transform="matrix(1 0 0 -1 0 841)" d="M82.32 690.76L512.98 690.76" stroke="#000000" stroke-width="0.48" fill="none" /><path transform="matrix(1 0 0 -1 0 841)" d="M82.32 678.26L512.98 678.26" stroke="#000000" stroke-width="0.48" fill="none" /><path transform="matrix(1 0 0 -1 0 841)" d="M82.32 665.76L512.98 665.76" stroke="#000000" stroke-width="0.48" fill="none" /><path transform="matrix(1 0 0 -1 0 841)" d="M82.32 653.26L512.98 653.26" stroke="#000000" stroke-width="0.48" fill="none" /><path transform="matrix(1 0 0 -1 0 841)" d="M82.32 640.76L512.98 640.76" stroke="#000000" stroke-width="0.48" fill="none" /><path transform="matrix(1 0 0 -1 0 841)" d="M82.32 628.26L512.98 628.26" stroke="#000000" stroke-width="0.48" fill="none" /><path transform="matrix(1 0 0 -1 0 841)" d="M82.32 615.76L512.98 615.76" stroke="#000000" stroke-width="0.48" fill="none" /><path transform="matrix(1 0 0 -1 0 841)" d="M82.32 603.26L512.98 603.26" stroke="#000000" stroke-width="0.48" fill="none" /><path transform="matrix(1 0 0 -1 0 841)" d="M82.32 590.76L512.98 590.76" stroke="#000000" stroke-width="0.48" fill="none" /><path transform="matrix(1 0 0 -1 0 841)" d="M82.32 578.26L512.98 578.26" stroke="#000000" stroke-width="0.48" fill="none" /><path transform="matrix(1 0 0 -1 0 841)" d="M82.32 565.76L512.98 565.76" stroke="#000000" stroke-width="0.48" fill="none" /><path transform="matrix(1 0 0 -1 0 841)" d="M82.32 553.26L512.98 553.26" stroke="#000000" stroke-width="0.48" fill="none" /><path transform="matrix(1 0 0 -1 0 841)" d="M82.32 540.76L512.98 540.76" stroke="#000000" stroke-width="0.48" fill="none" /><path transform="matrix(1 0 0 -1 0 841)" d="M82.32 528.26L512.98 528.26" stroke="#000000" stroke-width="0.48" fill="none" /><path transform="matrix(1 0 0 -1 0 841)" d="M82.32 515.76L512.98 515.76" stroke="#000000" stroke-width="0.48" fill="none" /><path transform="matrix(1 0 0 -1 0 841)" d="M82.32 503.26L512.98 503.26" stroke="#000000" stroke-width="0.48" fill="none" /><path transform="matrix(1 0 0 -1 0 841)" d="M82.32 490.76L512.98 490.76" stroke="#000000" stroke-width="0.48" fill="none" /><path transform="matrix(1 0 0 -1 0 841)" d="M82.32 478.26L512.98 478.26" stroke="#000000" stroke-width="0.48" fill="none" /><path transform="matrix(1 0 0 -1 0 841)" d="M82.32 465.76L512.98 465.76" stroke="#000000" stroke-width="0.48" fill="none" /><path transform="matrix(1 0 0 -1 0 841)" d="M82.32 453.26L512.98 453.26" stroke="#000000" stroke-width="0.48" fill="none" /><path transform="matrix(1 0 0 -1 0 841)" d="M82.32 440.76L512.98 440.76" stroke="#000000" stroke-width="0.48" fill="none" /><path transform="matrix(1 0 0 -1 0 841)" d="M81.6 754L81.6 427.06" stroke="#000000" stroke-width="1.44" fill="none" /><path transform="matrix(1 0 0 -1 0 841)" d="M513.7 752.5601L513.7 427.06" stroke="#000000" stroke-width="1.44" fill="none" /><path transform="matrix(1 0 0 -1 0 841)" d="M123.65 752.5601L123.65 428.5" stroke="#000000" stroke-width="0.48" fill="none" /><path transform="matrix(1 0 0 -1 0 841)" d="M179.95 734.5L179.95 428.5" stroke="#000000" stroke-width="0.48" fill="none" /><path transform="matrix(1 0 0 -1 0 841)" d="M259.35 734.5L259.35 428.5" stroke="#000000" stroke-width="0.48" fill="none" /><path transform="matrix(1 0 0 -1 0 841)" d="M321.2 752.5601L321.2 428.5" stroke="#000000" stroke-width="0.48" fill="none" /><path transform="matrix(1 0 0 -1 0 841)" d="M377.45 734.5L377.45 428.5" stroke="#000000" stroke-width="0.48" fill="none" /><path transform="matrix(1 0 0 -1 0 841)" d="M453.1 734.5L453.1 428.5" stroke="#000000" stroke-width="0.48" fill="none" /></g><g clip-path="url(#333)"><g clip-path="url(#334)"></g></g><g clip-path="url(#335)"><g clip-path="url(#336)"></g></g><g clip-path="url(#337)"><g clip-path="url(#338)"></g></g><g clip-path="url(#339)"><g clip-path="url(#340)"></g></g><g clip-path="url(#341)"><g clip-path="url(#342)"></g></g><g clip-path="url(#343)"><g clip-path="url(#344)"></g></g><g clip-path="url(#345)"><g clip-path="url(#346)"></g></g><g clip-path="url(#347)"></g><g clip-path="url(#348)"><g clip-path="url(#349)"></g></g><g clip-path="url(#350)"><g clip-path="url(#351)"></g></g><g clip-path="url(#352)"><path transform="matrix(1 0 0 -1 0 841)" d="M359.28 154.78L357.72 150.22L357.72 150.22L352.44 150.22L352.44 150.22L356.64 147.34L356.64 147.34L355.08 142.78L355.08 142.78L359.28 145.54L359.28 145.54L363.48 142.78L363.48 142.78L361.8 147.34L361.8 147.34L366.12 150.22L366.12 150.22L360.84 150.22L360.84 150.22L359.28 154.78" stroke="none" fill="#FF0000" fill-rule="evenodd" /><path transform="matrix(1 0 0 -1 0 841)" d="M359.275 155.944L361.222 150.335L361.222 150.335L360.867 150.587L360.867 150.587L367.329 150.587L367.329 150.587L362.063 147.0421L362.063 147.0421L362.207 147.4771L362.207 147.4771L364.17 141.8651L364.17 141.8651L359.067 145.277L359.067 145.277L359.483 145.277L359.483 145.277L354.38 141.8651L354.38 141.8651L356.343 147.4771L356.343 147.4771L356.487 147.0421L356.487 147.0421L351.221 150.587L351.221 150.587L357.682 150.587L357.682 150.587L357.328 150.335L357.328 150.335L359.275 155.944M357.949 149.837L352.45 149.837L352.45 149.837L352.659 150.523L352.659 150.523L357.146 147.502L357.146 147.502L355.458 142.676L355.458 142.676L354.896 143.112L354.896 143.112L359.275 146.039L359.275 146.039L363.654 143.112L363.654 143.112L363.092 142.676L363.092 142.676L361.404 147.502L361.404 147.502L365.891 150.523L365.891 150.523L366.1 149.837L366.1 149.837L360.601 149.837L360.601 149.837L358.921 154.677L358.921 154.677L359.629 154.677L359.629 154.677L357.949 149.837z" stroke="none" fill="#FF0000" fill-rule="winding" /><path transform="matrix(1 0 0 -1 0 841)" d="M377.04 154.9L375.48 150.34L375.48 150.34L370.2 150.34L370.2 150.34L374.52 147.46L374.52 147.46L372.96 142.9L372.96 142.9L377.04 145.66L377.04 145.66L381.24 142.9L381.24 142.9L379.68 147.46L379.68 147.46L383.88 150.34L383.88 150.34L378.72 150.34L378.72 150.34L377.04 154.9" stroke="none" fill="#FF0000" fill-rule="evenodd" /><path transform="matrix(1 0 0 -1 0 841)" d="M377.075 156.044L379.022 150.435L379.022 150.435L378.668 150.687L378.668 150.687L385.129 150.687L385.129 150.687L379.863 147.142L379.863 147.142L380.007 147.577L380.007 147.577L381.97 141.965L381.97 141.965L376.867 145.377L376.867 145.377L377.283 145.377L377.283 145.377L372.18 141.965L372.18 141.965L374.143 147.577L374.143 147.577L374.287 147.142L374.287 147.142L369.021 150.687L369.021 150.687L375.483 150.687L375.483 150.687L375.128 150.435L375.128 150.435L377.075 156.044M375.749 149.937L370.25 149.937L370.25 149.937L370.459 150.623L370.459 150.623L374.946 147.6021L374.946 147.6021L373.258 142.776L373.258 142.776L372.696 143.212L372.696 143.212L377.075 146.139L377.075 146.139L381.454 143.212L381.454 143.212L380.892 142.776L380.892 142.776L379.204 147.6021L379.204 147.6021L383.691 150.623L383.691 150.623L383.9 149.937L383.9 149.937L378.401 149.937L378.401 149.937L376.721 154.777L376.721 154.777L377.429 154.777L377.429 154.777L375.749 149.937z" stroke="none" fill="#FF0000" fill-rule="winding" /><path transform="matrix(1 0 0 -1 0 841)" d="M396 155.14L394.44 150.58L394.44 150.58L389.16 150.58L389.16 150.58L393.36 147.7L393.36 147.7L391.8 143.14L391.8 143.14L396 146.02L396 146.02L400.2 143.14L400.2 143.14L398.52 147.7L398.52 147.7L402.84 150.58L402.84 150.58L397.56 150.58L397.56 150.58L396 155.14" stroke="none" fill="#FF0000" fill-rule="evenodd" /><path transform="matrix(1 0 0 -1 0 841)" d="M395.975 156.344L397.922 150.735L397.922 150.735L397.568 150.987L397.568 150.987L404.029 150.987L404.029 150.987L398.763 147.442L398.763 147.442L398.907 147.877L398.907 147.877L400.87 142.265L400.87 142.265L395.767 145.677L395.767 145.677L396.183 145.677L396.183 145.677L391.08 142.265L391.08 142.265L393.043 147.877L393.043 147.877L393.187 147.442L393.187 147.442L387.921 150.987L387.921 150.987L394.383 150.987L394.383 150.987L394.028 150.735L394.028 150.735L395.975 156.344M394.649 150.237L389.15 150.237L389.15 150.237L389.359 150.923L389.359 150.923L393.846 147.902L393.846 147.902L392.158 143.076L392.158 143.076L391.596 143.512L391.596 143.512L395.975 146.439L395.975 146.439L400.354 143.512L400.354 143.512L399.792 143.076L399.792 143.076L398.104 147.902L398.104 147.902L402.591 150.923L402.591 150.923L402.8 150.237L402.8 150.237L397.301 150.237L397.301 150.237L395.621 155.077L395.621 155.077L396.329 155.077L396.329 155.077L394.649 150.237z" stroke="none" fill="#FF0000" fill-rule="winding" /><path transform="matrix(1 0 0 -1 0 841)" d="M414.36 155.26L412.68 150.7L412.68 150.7L407.52 150.7L407.52 150.7L411.72 147.82L411.72 147.82L410.16 143.26L410.16 143.26L414.36 146.14L414.36 146.14L418.44 143.26L418.44 143.26L416.88 147.82L416.88 147.82L421.2 150.7L421.2 150.7L415.92 150.7L415.92 150.7L414.36 155.26" stroke="none" fill="#FF0000" fill-rule="evenodd" /><path transform="matrix(1 0 0 -1 0 841)" d="M414.325 156.444L416.272 150.835L416.272 150.835L415.917 151.087L415.917 151.087L422.379 151.087L422.379 151.087L417.113 147.5421L417.113 147.5421L417.257 147.9771L417.257 147.9771L419.22 142.3651L419.22 142.3651L414.117 145.777L414.117 145.777L414.533 145.777L414.533 145.777L409.43 142.3651L409.43 142.3651L411.393 147.9771L411.393 147.9771L411.537 147.5421L411.537 147.5421L406.271 151.087L406.271 151.087L412.732 151.087L412.732 151.087L412.378 150.835L412.378 150.835L414.325 156.444M412.999 150.337L407.5 150.337L407.5 150.337L407.709 151.023L407.709 151.023L412.196 148.002L412.196 148.002L410.508 143.176L410.508 143.176L409.946 143.612L409.946 143.612L414.325 146.539L414.325 146.539L418.704 143.612L418.704 143.612L418.142 143.176L418.142 143.176L416.454 148.002L416.454 148.002L420.941 151.023L420.941 151.023L421.15 150.337L421.15 150.337L415.651 150.337L415.651 150.337L413.971 155.177L413.971 155.177L414.679 155.177L414.679 155.177L412.999 150.337z" stroke="none" fill="#FF0000" fill-rule="winding" /><path transform="matrix(1 0 0 -1 0 841)" d="M422.88 374.14L421.32 369.58L421.32 369.58L416.04 369.58L416.04 369.58L420.24 366.7L420.24 366.7L418.68 362.14L418.68 362.14L422.88 365.02L422.88 365.02L427.08 362.14L427.08 362.14L425.4 366.7L425.4 366.7L429.72 369.58L429.72 369.58L424.44 369.58L424.44 369.58L422.88 374.14" stroke="none" fill="#FF0000" fill-rule="evenodd" /><path transform="matrix(1 0 0 -1 0 841)" d="M422.875 375.344L424.822 369.735L424.822 369.735L424.467 369.987L424.467 369.987L430.929 369.987L430.929 369.987L425.663 366.442L425.663 366.442L425.807 366.877L425.807 366.877L427.77 361.265L427.77 361.265L422.667 364.677L422.667 364.677L423.083 364.677L423.083 364.677L417.98 361.265L417.98 361.265L419.943 366.877L419.943 366.877L420.087 366.442L420.087 366.442L414.821 369.987L414.821 369.987L421.283 369.987L421.283 369.987L420.928 369.735L420.928 369.735L422.875 375.344M421.549 369.237L416.05 369.237L416.05 369.237L416.259 369.923L416.259 369.923L420.746 366.902L420.746 366.902L419.058 362.076L419.058 362.076L418.496 362.512L418.496 362.512L422.875 365.439L422.875 365.439L427.254 362.512L427.254 362.512L426.692 362.076L426.692 362.076L425.004 366.902L425.004 366.902L429.491 369.923L429.491 369.923L429.7 369.237L429.7 369.237L424.201 369.237L424.201 369.237L422.521 374.077L422.521 374.077L423.229 374.077L423.229 374.077L421.549 369.237z" stroke="none" fill="#FF0000" fill-rule="winding" /><path transform="matrix(1 0 0 -1 0 841)" d="M441.24 374.26L439.68 369.7L439.68 369.7L434.4 369.7L434.4 369.7L438.6 366.82L438.6 366.82L437.04 362.26L437.04 362.26L441.24 365.14L441.24 365.14L445.44 362.26L445.44 362.26L443.76 366.82L443.76 366.82L448.08 369.7L448.08 369.7L442.8 369.7L442.8 369.7L441.24 374.26" stroke="none" fill="#FF0000" fill-rule="evenodd" /><path transform="matrix(1 0 0 -1 0 841)" d="M441.225 375.444L443.172 369.835L443.172 369.835L442.818 370.087L442.818 370.087L449.279 370.087L449.279 370.087L444.013 366.542L444.013 366.542L444.157 366.977L444.157 366.977L446.12 361.365L446.12 361.365L441.017 364.777L441.017 364.777L441.433 364.777L441.433 364.777L436.33 361.365L436.33 361.365L438.293 366.977L438.293 366.977L438.437 366.542L438.437 366.542L433.171 370.087L433.171 370.087L439.633 370.087L439.633 370.087L439.278 369.835L439.278 369.835L441.225 375.444M439.899 369.337L434.4 369.337L434.4 369.337L434.609 370.023L434.609 370.023L439.096 367.002L439.096 367.002L437.408 362.176L437.408 362.176L436.846 362.612L436.846 362.612L441.225 365.539L441.225 365.539L445.604 362.612L445.604 362.612L445.042 362.176L445.042 362.176L443.354 367.002L443.354 367.002L447.841 370.023L447.841 370.023L448.05 369.337L448.05 369.337L442.551 369.337L442.551 369.337L440.871 374.177L440.871 374.177L441.579 374.177L441.579 374.177L439.899 369.337z" stroke="none" fill="#FF0000" fill-rule="winding" /><path transform="matrix(1 0 0 -1 0 841)" d="M459.6 374.62L458.04 370.06L458.04 370.06L452.76 370.06L452.76 370.06L456.96 367.18L456.96 367.18L455.4 362.62L455.4 362.62L459.6 365.38L459.6 365.38L463.8 362.62L463.8 362.62L462.12 367.18L462.12 367.18L466.44 370.06L466.44 370.06L461.16 370.06L461.16 370.06L459.6 374.62" stroke="none" fill="#FF0000" fill-rule="evenodd" /><path transform="matrix(1 0 0 -1 0 841)" d="M459.575 375.744L461.522 370.135L461.522 370.135L461.168 370.387L461.168 370.387L467.629 370.387L467.629 370.387L462.363 366.842L462.363 366.842L462.507 367.277L462.507 367.277L464.47 361.665L464.47 361.665L459.367 365.077L459.367 365.077L459.783 365.077L459.783 365.077L454.68 361.665L454.68 361.665L456.643 367.277L456.643 367.277L456.787 366.842L456.787 366.842L451.521 370.387L451.521 370.387L457.983 370.387L457.983 370.387L457.628 370.135L457.628 370.135L459.575 375.744M458.249 369.637L452.75 369.637L452.75 369.637L452.959 370.323L452.959 370.323L457.446 367.302L457.446 367.302L455.758 362.476L455.758 362.476L455.196 362.912L455.196 362.912L459.575 365.839L459.575 365.839L463.954 362.912L463.954 362.912L463.392 362.476L463.392 362.476L461.704 367.302L461.704 367.302L466.191 370.323L466.191 370.323L466.4 369.637L466.4 369.637L460.901 369.637L460.901 369.637L459.221 374.477L459.221 374.477L459.929 374.477L459.929 374.477L458.249 369.637z" stroke="none" fill="#FF0000" fill-rule="winding" /></g></g></g></g></svg>