<svg xmlns="http://www.w3.org/2000/svg" xmlns:xlink="http://www.w3.org/1999/xlink" id="body_6" preserveAspectRatio="xMinYMin meet" viewBox="0 0 793 1121"><defs><clipPath id="1"><path d="M0 841L0 -0.9000244L0 -0.9000244L595.3 -0.9000244L595.3 -0.9000244L595.3 841L595.3 841L0 841z" /></clipPath><clipPath id="2"><path d="M0 -0.9000244L595.3 -0.9000244L595.3 -0.9000244L595.3 841L595.3 841L0 841z" /></clipPath><clipPath id="3"><path d="M0 -0.9000244L595.3 -0.9000244L595.3 -0.9000244L595.3 841L595.3 841L0 841z" /></clipPath><clipPath id="4"><path d="M295.2 763.05L300.1 763.05L300.1 763.05L300.1 783.9L300.1 783.9L295.2 783.9z" /></clipPath><clipPath id="5"><path d="M0 -0.9000244L595.3 -0.9000244L595.3 -0.9000244L595.3 841L595.3 841L0 841z" /></clipPath><clipPath id="6"><path d="M-1638.4 73.39996L2179.65 73.39996L2179.65 73.39996L2179.65 101.4L2179.65 101.4L-1638.4 101.4z" /></clipPath><clipPath id="7"><path d="M0 -0.9000244L595.3 -0.9000244L595.3 -0.9000244L595.3 841L595.3 841L0 841z" /></clipPath><clipPath id="8"><path d="M-1638.4 101.35L2179.65 101.35L2179.65 101.35L2179.65 129.35L2179.65 129.35L-1638.4 129.35z" /></clipPath><clipPath id="9"><path d="M0 -0.9000244L595.3 -0.9000244L595.3 -0.9000244L595.3 841L595.3 841L0 841z" /></clipPath><clipPath id="10"><path d="M-1638.4 129.3L2179.65 129.3L2179.65 129.3L2179.65 157.3L2179.65 157.3L-1638.4 157.3z" /></clipPath><clipPath id="11"><path d="M0 -0.9000244L595.3 -0.9000244L595.3 -0.9000244L595.3 841L595.3 841L0 841z" /></clipPath><clipPath id="12"><path d="M0 -0.9000244L595.3 -0.9000244L595.3 -0.9000244L595.3 841L595.3 841L0 841z" /></clipPath><clipPath id="13"><path d="M-1638.4 343.5L2179.65 343.5L2179.65 343.5L2179.65 371.5L2179.65 371.5L-1638.4 371.5z" /></clipPath><clipPath id="14"><path d="M0 -0.9000244L595.3 -0.9000244L595.3 -0.9000244L595.3 841L595.3 841L0 841z" /></clipPath><clipPath id="15"><path d="M-1638.4 371.45L2179.65 371.45L2179.65 371.45L2179.65 399.45L2179.65 399.45L-1638.4 399.45z" /></clipPath><clipPath id="16"><path d="M0 -0.9000244L595.3 -0.9000244L595.3 -0.9000244L595.3 841L595.3 841L0 841z" /></clipPath><clipPath id="17"><path d="M-1638.4 399.4L2179.65 399.4L2179.65 399.4L2179.65 427.4L2179.65 427.4L-1638.4 427.4z" /></clipPath><clipPath id="18"><path d="M0 -0.9000244L595.3 -0.9000244L595.3 -0.9000244L595.3 841L595.3 841L0 841z" /></clipPath><clipPath id="19"><path d="M-1638.4 427.5L2179.65 427.5L2179.65 427.5L2179.65 455.5L2179.65 455.5L-1638.4 455.5z" /></clipPath><clipPath id="20"><path d="M0 -0.9000244L595.3 -0.9000244L595.3 -0.9000244L595.3 841L595.3 841L0 841z" /></clipPath><clipPath id="21"><path d="M-1638.4 455.45L2179.65 455.45L2179.65 455.45L2179.65 483.45L2179.65 483.45L-1638.4 483.45z" /></clipPath><clipPath id="22"><path d="M0 -0.9000244L595.3 -0.9000244L595.3 -0.9000244L595.3 841L595.3 841L0 841z" /></clipPath><clipPath id="23"><path d="M-1638.4 483.5L2179.65 483.5L2179.65 483.5L2179.65 507.5L2179.65 507.5L-1638.4 507.5z" /></clipPath><clipPath id="24"><path d="M0 -0.9000244L595.3 -0.9000244L595.3 -0.9000244L595.3 841L595.3 841L0 841z" /></clipPath><clipPath id="25"><path d="M-1638.4 507.4L2179.65 507.4L2179.65 507.4L2179.65 535.4L2179.65 535.4L-1638.4 535.4z" /></clipPath><clipPath id="26"><path d="M0 -0.9000244L595.3 -0.9000244L595.3 -0.9000244L595.3 841L595.3 841L0 841z" /></clipPath><clipPath id="27"><path d="M-1638.4 535.5L2179.65 535.5L2179.65 535.5L2179.65 563.5L2179.65 563.5L-1638.4 563.5z" /></clipPath><clipPath id="28"><path d="M0 -0.9000244L595.3 -0.9000244L595.3 -0.9000244L595.3 841L595.3 841L0 841z" /></clipPath><clipPath id="29"><path d="M-1638.4 563.45L2179.65 563.45L2179.65 563.45L2179.65 591.45L2179.65 591.45L-1638.4 591.45z" /></clipPath><clipPath id="30"><path d="M0 -0.9000244L595.3 -0.9000244L595.3 -0.9000244L595.3 841L595.3 841L0 841z" /></clipPath><clipPath id="31"><path d="M-1638.4 591.4L2179.65 591.4L2179.65 591.4L2179.65 619.4L2179.65 619.4L-1638.4 619.4z" /></clipPath><clipPath id="32"><path d="M0 -0.9000244L595.3 -0.9000244L595.3 -0.9000244L595.3 841L595.3 841L0 841z" /></clipPath><clipPath id="33"><path d="M-1638.4 619.5L2179.65 619.5L2179.65 619.5L2179.65 647.5L2179.65 647.5L-1638.4 647.5z" /></clipPath><clipPath id="34"><path d="M0 -0.9000244L595.3 -0.9000244L595.3 -0.9000244L595.3 841L595.3 841L0 841z" /></clipPath><clipPath id="35"><path d="M-1638.4 647.45L2179.65 647.45L2179.65 647.45L2179.65 675.45L2179.65 675.45L-1638.4 675.45z" /></clipPath><clipPath id="36"><path d="M0 -0.9000244L595.3 -0.9000244L595.3 -0.9000244L595.3 841L595.3 841L0 841z" /></clipPath><clipPath id="37"><path d="M-1638.4 675.4L2179.65 675.4L2179.65 675.4L2179.65 703.4L2179.65 703.4L-1638.4 703.4z" /></clipPath><clipPath id="38"><path d="M0 -0.9000244L595.3 -0.9000244L595.3 -0.9000244L595.3 841L595.3 841L0 841z" /></clipPath><clipPath id="39"><path d="M-1638.4 703.5L2179.65 703.5L2179.65 703.5L2179.65 731.5L2179.65 731.5L-1638.4 731.5z" /></clipPath><clipPath id="40"><path d="M0 -0.9000244L595.3 -0.9000244L595.3 -0.9000244L595.3 841L595.3 841L0 841z" /></clipPath></defs><g transform="matrix(1.333333 0 0 1.333333 0 0)"><g><g clip-path="url(#1)"><g clip-path="url(#2)"><g transform="matrix(0.3271429 0 0 0.3275676 55.56 34.5)"><g transform="matrix(1 0 0 1 0 0)"><image x="0" y="0" xlink:href="img_03.png" width="168" height="74" /></g></g><path transform="matrix(1 0 0 -1 0 841)" d="M54 778.4L523.3 778.4L523.3 778.4L523.3 777.6801L523.3 777.6801L54 777.6801z" stroke="none" fill="#000000" fill-rule="evenodd" /></g><g clip-path="url(#3)"><g clip-path="url(#4)"></g></g><g clip-path="url(#5)"><g clip-path="url(#6)"></g></g><g clip-path="url(#7)"><g clip-path="url(#8)"></g></g><g clip-path="url(#9)"><g clip-path="url(#10)"></g></g><g clip-path="url(#11)"><g transform="matrix(0.57965 0 0 0.579661 78 157.38)"><g transform="matrix(1 0 0 1 0 0)"><image x="0" y="0" xlink:href="img_09.png" width="743" height="295" /></g></g></g><g clip-path="url(#12)"><g clip-path="url(#13)"></g></g><g clip-path="url(#14)"><g clip-path="url(#15)"></g></g><g clip-path="url(#16)"><g clip-path="url(#17)"></g></g><g clip-path="url(#18)"><g clip-path="url(#19)"></g></g><g clip-path="url(#20)"><g clip-path="url(#21)"></g></g><g clip-path="url(#22)"><g clip-path="url(#23)"></g></g><g clip-path="url(#24)"><g clip-path="url(#25)"></g></g><g clip-path="url(#26)"><g clip-path="url(#27)"></g></g><g clip-path="url(#28)"><g clip-path="url(#29)"></g></g><g clip-path="url(#30)"><g clip-path="url(#31)"></g></g><g clip-path="url(#32)"><g clip-path="url(#33)"></g></g><g clip-path="url(#34)"><g clip-path="url(#35)"></g></g><g clip-path="url(#36)"><g clip-path="url(#37)"></g></g><g clip-path="url(#38)"><g clip-path="url(#39)"></g></g><g clip-path="url(#40)"><path transform="matrix(1 0 0 -1 0 841)" d="M470.88 348.94L469.32 344.38L469.32 344.38L464.16 344.38L464.16 344.38L468.36 341.5L468.36 341.5L466.8 336.94L466.8 336.94L470.88 339.7L470.88 339.7L475.08 336.94L475.08 336.94L473.52 341.5L473.52 341.5L477.72 344.38L477.72 344.38L472.56 344.38L472.56 344.38L470.88 348.94" stroke="none" fill="#FF0000" fill-rule="evenodd" /><path transform="matrix(1 0 0 -1 0 841)" d="M470.925 350.094L472.872 344.485L472.872 344.485L472.517 344.737L472.517 344.737L478.979 344.737L478.979 344.737L473.713 341.192L473.713 341.192L473.857 341.627L473.857 341.627L475.82 336.015L475.82 336.015L470.717 339.427L470.717 339.427L471.133 339.427L471.133 339.427L466.03 336.015L466.03 336.015L467.993 341.627L467.993 341.627L468.137 341.192L468.137 341.192L462.871 344.737L462.871 344.737L469.332 344.737L469.332 344.737L468.978 344.485L468.978 344.485L470.925 350.094M469.599 343.987L464.1 343.987L464.1 343.987L464.309 344.673L464.309 344.673L468.796 341.652L468.796 341.652L467.108 336.826L467.108 336.826L466.546 337.262L466.546 337.262L470.925 340.189L470.925 340.189L475.304 337.262L475.304 337.262L474.742 336.826L474.742 336.826L473.054 341.652L473.054 341.652L477.541 344.673L477.541 344.673L477.75 343.987L477.75 343.987L472.251 343.987L472.251 343.987L470.571 348.827L470.571 348.827L471.279 348.827L471.279 348.827L469.599 343.987z" stroke="none" fill="#FF0000" fill-rule="winding" /><path transform="matrix(1 0 0 -1 0 841)" d="M489.48 348.58L487.92 344.02L487.92 344.02L482.76 344.02L482.76 344.02L486.96 341.14L486.96 341.14L485.4 336.58L485.4 336.58L489.48 339.34L489.48 339.34L493.68 336.58L493.68 336.58L492.12 341.14L492.12 341.14L496.32 344.02L496.32 344.02L491.16 344.02L491.16 344.02L489.48 348.58" stroke="none" fill="#FF0000" fill-rule="evenodd" /><path transform="matrix(1 0 0 -1 0 841)" d="M489.525 349.694L491.472 344.085L491.472 344.085L491.117 344.337L491.117 344.337L497.579 344.337L497.579 344.337L492.313 340.792L492.313 340.792L492.457 341.227L492.457 341.227L494.42 335.615L494.42 335.615L489.317 339.027L489.317 339.027L489.733 339.027L489.733 339.027L484.63 335.615L484.63 335.615L486.593 341.227L486.593 341.227L486.737 340.792L486.737 340.792L481.471 344.337L481.471 344.337L487.932 344.337L487.932 344.337L487.578 344.085L487.578 344.085L489.525 349.694M488.199 343.587L482.7 343.587L482.7 343.587L482.909 344.273L482.909 344.273L487.396 341.252L487.396 341.252L485.708 336.426L485.708 336.426L485.146 336.862L485.146 336.862L489.525 339.789L489.525 339.789L493.904 336.862L493.904 336.862L493.342 336.426L493.342 336.426L491.654 341.252L491.654 341.252L496.141 344.273L496.141 344.273L496.35 343.587L496.35 343.587L490.851 343.587L490.851 343.587L489.171 348.427L489.171 348.427L489.879 348.427L489.879 348.427L488.199 343.587z" stroke="none" fill="#FF0000" fill-rule="winding" /><path transform="matrix(1 0 0 -1 0 841)" d="M507.48 348.94L505.92 344.38L505.92 344.38L500.76 344.38L500.76 344.38L504.96 341.5L504.96 341.5L503.4 336.94L503.4 336.94L507.48 339.7L507.48 339.7L511.68 336.94L511.68 336.94L510.12 341.5L510.12 341.5L514.32 344.38L514.32 344.38L509.16 344.38L509.16 344.38L507.48 348.94" stroke="none" fill="#FF0000" fill-rule="evenodd" /><path transform="matrix(1 0 0 -1 0 841)" d="M507.525 350.094L509.472 344.485L509.472 344.485L509.117 344.737L509.117 344.737L515.578 344.737L515.578 344.737L510.313 341.192L510.313 341.192L510.457 341.627L510.457 341.627L512.42 336.015L512.42 336.015L507.317 339.427L507.317 339.427L507.733 339.427L507.733 339.427L502.63 336.015L502.63 336.015L504.593 341.627L504.593 341.627L504.737 341.192L504.737 341.192L499.471 344.737L499.471 344.737L505.932 344.737L505.932 344.737L505.578 344.485L505.578 344.485L507.525 350.094M506.199 343.987L500.7 343.987L500.7 343.987L500.909 344.673L500.909 344.673L505.396 341.652L505.396 341.652L503.708 336.826L503.708 336.826L503.146 337.262L503.146 337.262L507.525 340.189L507.525 340.189L511.904 337.262L511.904 337.262L511.342 336.826L511.342 336.826L509.654 341.652L509.654 341.652L514.141 344.673L514.141 344.673L514.35 343.987L514.35 343.987L508.851 343.987L508.851 343.987L507.171 348.827L507.171 348.827L507.879 348.827L507.879 348.827L506.199 343.987z" stroke="none" fill="#FF0000" fill-rule="winding" /><path transform="matrix(1 0 0 -1 0 841)" d="M526.08 348.58L524.52 344.02L524.52 344.02L519.36 344.02L519.36 344.02L523.56 341.14L523.56 341.14L522 336.58L522 336.58L526.08 339.34L526.08 339.34L530.28 336.58L530.28 336.58L528.72 341.14L528.72 341.14L532.92 344.02L532.92 344.02L527.76 344.02L527.76 344.02L526.08 348.58" stroke="none" fill="#FF0000" fill-rule="evenodd" /><path transform="matrix(1 0 0 -1 0 841)" d="M526.125 349.694L528.072 344.085L528.072 344.085L527.717 344.337L527.717 344.337L534.179 344.337L534.179 344.337L528.913 340.792L528.913 340.792L529.057 341.227L529.057 341.227L531.02 335.615L531.02 335.615L525.917 339.027L525.917 339.027L526.333 339.027L526.333 339.027L521.23 335.615L521.23 335.615L523.193 341.227L523.193 341.227L523.337 340.792L523.337 340.792L518.071 344.337L518.071 344.337L524.532 344.337L524.532 344.337L524.178 344.085L524.178 344.085L526.125 349.694M524.799 343.587L519.3 343.587L519.3 343.587L519.509 344.273L519.509 344.273L523.996 341.252L523.996 341.252L522.308 336.426L522.308 336.426L521.746 336.862L521.746 336.862L526.125 339.789L526.125 339.789L530.504 336.862L530.504 336.862L529.942 336.426L529.942 336.426L528.254 341.252L528.254 341.252L532.741 344.273L532.741 344.273L532.95 343.587L532.95 343.587L527.451 343.587L527.451 343.587L525.771 348.427L525.771 348.427L526.479 348.427L526.479 348.427L524.799 343.587z" stroke="none" fill="#FF0000" fill-rule="winding" /></g></g></g></g></svg>